<mxfile host="65bd71144e">
    <diagram name="screen-design" id="PQPUzrtSPRoY9t63tNTr">
        <mxGraphModel dx="2868" dy="1665" grid="1" gridSize="10" guides="1" tooltips="1" connect="1" arrows="1" fold="1" page="1" pageScale="1" pageWidth="1169" pageHeight="827" math="0" shadow="0">
            <root>
                <mxCell id="0"/>
                <mxCell id="1" parent="0"/>
                <mxCell id="_T3psCKW3RF578xt2ag6-39" value="エラー時" style="rounded=0;whiteSpace=wrap;html=1;align=left;verticalAlign=top;spacing=5;spacingLeft=6;fontStyle=1;fontSize=17;strokeColor=#FF0000;fontColor=#FF0000;" parent="1" vertex="1">
                    <mxGeometry x="2156.5" y="880" width="395" height="207" as="geometry"/>
                </mxCell>
                <mxCell id="4bEHPRB5DnhDI-j8BFeG-55" style="edgeStyle=orthogonalEdgeStyle;rounded=0;orthogonalLoop=1;jettySize=auto;html=1;entryX=0;entryY=0.5;entryDx=0;entryDy=0;strokeWidth=10;endArrow=block;endFill=1;strokeColor=#999999;endSize=20;" parent="1" source="b9YFm3cifNt7pc6ETkbJ-2" target="4bEHPRB5DnhDI-j8BFeG-1" edge="1">
                    <mxGeometry relative="1" as="geometry"/>
                </mxCell>
                <mxCell id="b9YFm3cifNt7pc6ETkbJ-2" value="" style="rounded=0;whiteSpace=wrap;html=1;aspect=fixed;strokeColor=#999999;" parent="1" vertex="1">
                    <mxGeometry x="80" y="120" width="1280" height="720" as="geometry"/>
                </mxCell>
                <mxCell id="b9YFm3cifNt7pc6ETkbJ-15" value="" style="rounded=1;whiteSpace=wrap;html=1;strokeColor=#CCCCCC;fillColor=none;" parent="1" vertex="1">
                    <mxGeometry x="620" y="713" width="200" height="40" as="geometry"/>
                </mxCell>
                <mxCell id="b9YFm3cifNt7pc6ETkbJ-3" value="次へ" style="html=1;shadow=0;dashed=0;shape=mxgraph.bootstrap.rrect;rSize=5;strokeColor=none;strokeWidth=1;fillColor=#422AD5;fontColor=#FFFFFF;whiteSpace=wrap;align=center;verticalAlign=middle;spacingLeft=0;fontStyle=0;fontSize=16;spacing=5;" parent="1" vertex="1">
                    <mxGeometry x="585" y="772" width="270" height="40" as="geometry"/>
                </mxCell>
                <mxCell id="b9YFm3cifNt7pc6ETkbJ-7" value="" style="rounded=1;whiteSpace=wrap;html=1;strokeColor=#CCCCCC;fillColor=none;" parent="1" vertex="1">
                    <mxGeometry x="620" y="660" width="200" height="40" as="geometry"/>
                </mxCell>
                <mxCell id="b9YFm3cifNt7pc6ETkbJ-4" value="体調不良は無く、健康です" style="html=1;shadow=0;dashed=0;shape=mxgraph.bootstrap.checkbox2;labelPosition=right;verticalLabelPosition=middle;align=left;verticalAlign=middle;gradientColor=#DEDEDE;fillColor=#EDEDED;checked=1;spacing=5;checkedFill=#422AD5;checkedStroke=#ffffff;sketch=0;fontStyle=0;fontFamily=Noto Sans JP;fontSource=https%3A%2F%2Ffonts.googleapis.com%2Fcss%3Ffamily%3DNoto%2BSans%2BJP;fontSize=9;fontColor=#666666;strokeColor=default;" parent="1" vertex="1">
                    <mxGeometry x="640" y="675" width="10" height="10" as="geometry"/>
                </mxCell>
                <mxCell id="b9YFm3cifNt7pc6ETkbJ-5" value="同意します" style="html=1;shadow=0;dashed=0;shape=mxgraph.bootstrap.checkbox2;labelPosition=right;verticalLabelPosition=middle;align=left;verticalAlign=middle;gradientColor=#DEDEDE;fillColor=#EDEDED;checked=0;spacing=5;fontColor=#666666;checkedFill=#0085FC;checkedStroke=#ffffff;sketch=0;fontSize=9;strokeColor=#4D4D4D;" parent="1" vertex="1">
                    <mxGeometry x="640" y="728" width="10" height="10" as="geometry"/>
                </mxCell>
                <mxCell id="b9YFm3cifNt7pc6ETkbJ-9" value="体調について" style="text;html=1;align=center;verticalAlign=middle;whiteSpace=wrap;rounded=0;fontSize=9;spacingLeft=0;spacing=2;fillColor=default;fontStyle=1" parent="1" vertex="1">
                    <mxGeometry x="633" y="652" width="60" height="15" as="geometry"/>
                </mxCell>
                <mxCell id="b9YFm3cifNt7pc6ETkbJ-17" value="個人情報の利用目的" style="text;html=1;align=center;verticalAlign=middle;whiteSpace=wrap;rounded=0;fontSize=9;spacingLeft=0;spacing=2;fillColor=default;fontStyle=1" parent="1" vertex="1">
                    <mxGeometry x="633" y="705" width="87" height="15" as="geometry"/>
                </mxCell>
                <mxCell id="b9YFm3cifNt7pc6ETkbJ-23" value="ようこそエンジニアカフェへ" style="text;html=1;align=center;verticalAlign=middle;whiteSpace=wrap;rounded=0;fontSize=32;fontStyle=1" parent="1" vertex="1">
                    <mxGeometry x="452.5" y="152" width="535" height="60" as="geometry"/>
                </mxCell>
                <mxCell id="b9YFm3cifNt7pc6ETkbJ-24" value="&lt;font style=&quot;font-size: 24px;&quot;&gt;新規登録&lt;/font&gt;" style="text;html=1;align=center;verticalAlign=middle;whiteSpace=wrap;rounded=0;fontColor=#666666;" parent="1" vertex="1">
                    <mxGeometry x="645" y="212" width="150" height="30" as="geometry"/>
                </mxCell>
                <mxCell id="b9YFm3cifNt7pc6ETkbJ-25" value="&lt;font style=&quot;font-size: 14px;&quot;&gt;ご利用者へのお知らせ&lt;/font&gt;&lt;div&gt;&lt;font style=&quot;font-weight: normal;&quot;&gt;コワーキングスペースの...&lt;/font&gt;&lt;/div&gt;" style="rounded=1;whiteSpace=wrap;html=1;arcSize=2;fillColor=none;fontStyle=1;align=left;verticalAlign=top;spacing=13;strokeColor=#CCCCCC;" parent="1" vertex="1">
                    <mxGeometry x="441.25" y="262" width="557.5" height="370" as="geometry"/>
                </mxCell>
                <mxCell id="b9YFm3cifNt7pc6ETkbJ-27" value="" style="rounded=1;whiteSpace=wrap;html=1;arcSize=50;fillColor=#E6E6E6;strokeColor=#CCCCCC;" parent="1" vertex="1">
                    <mxGeometry x="985.5" y="269" width="10" height="100" as="geometry"/>
                </mxCell>
                <mxCell id="b9YFm3cifNt7pc6ETkbJ-28" value="&lt;ul&gt;&lt;li&gt;&lt;span style=&quot;background-color: transparent; color: light-dark(rgb(51, 51, 51), rgb(193, 193, 193));&quot;&gt;個人情報利用目的などの内容は&lt;/span&gt;Markdownで作成&lt;/li&gt;&lt;li&gt;内容は検討中&lt;/li&gt;&lt;/ul&gt;" style="shape=note;strokeWidth=2;fontSize=14;size=20;whiteSpace=wrap;html=1;fillColor=#f5f5f5;strokeColor=#999999;fontColor=#333333;align=left;spacing=10;shadow=1;" parent="1" vertex="1">
                    <mxGeometry x="1400" y="236" width="400" height="70" as="geometry"/>
                </mxCell>
                <mxCell id="b9YFm3cifNt7pc6ETkbJ-29" value="&lt;b&gt;&lt;font style=&quot;font-size: 18px;&quot;&gt;登録開始&lt;/font&gt;&lt;/b&gt;&lt;div&gt;&lt;font style=&quot;font-size: 16px; color: rgb(128, 128, 128);&quot;&gt;/registration&lt;/font&gt;&lt;/div&gt;" style="rounded=1;whiteSpace=wrap;html=1;fillColor=#f5f5f5;fontColor=#333333;strokeColor=none;" parent="1" vertex="1">
                    <mxGeometry x="80" y="50" width="250" height="60" as="geometry"/>
                </mxCell>
                <mxCell id="b9YFm3cifNt7pc6ETkbJ-30" style="rounded=1;orthogonalLoop=1;jettySize=auto;html=1;entryX=1;entryY=0.5;entryDx=0;entryDy=0;exitX=0;exitY=0.5;exitDx=0;exitDy=0;exitPerimeter=0;endArrow=oval;endFill=1;shadow=1;strokeColor=#4D4D4D;strokeWidth=1;edgeStyle=orthogonalEdgeStyle;jumpStyle=none;jumpSize=6;startSize=6;endSize=8;curved=0;" parent="1" source="b9YFm3cifNt7pc6ETkbJ-28" target="b9YFm3cifNt7pc6ETkbJ-25" edge="1">
                    <mxGeometry relative="1" as="geometry"/>
                </mxCell>
                <mxCell id="b9YFm3cifNt7pc6ETkbJ-31" value="体調不良なし、同意を選択しなければ次へ進めない" style="shape=note;strokeWidth=2;fontSize=14;size=20;whiteSpace=wrap;html=1;fillColor=#f5f5f5;strokeColor=#999999;fontColor=#333333;align=left;spacing=10;shadow=1;" parent="1" vertex="1">
                    <mxGeometry x="800" y="880" width="359" height="70" as="geometry"/>
                </mxCell>
                <mxCell id="b9YFm3cifNt7pc6ETkbJ-32" style="rounded=1;orthogonalLoop=1;jettySize=auto;html=1;exitX=0;exitY=0.5;exitDx=0;exitDy=0;exitPerimeter=0;endArrow=oval;endFill=1;shadow=1;strokeColor=#4D4D4D;strokeWidth=1;edgeStyle=orthogonalEdgeStyle;jumpStyle=none;jumpSize=6;startSize=6;endSize=8;curved=0;entryX=0.493;entryY=0.95;entryDx=0;entryDy=0;entryPerimeter=0;" parent="1" source="b9YFm3cifNt7pc6ETkbJ-31" target="b9YFm3cifNt7pc6ETkbJ-3" edge="1">
                    <mxGeometry relative="1" as="geometry">
                        <mxPoint x="721" y="870" as="targetPoint"/>
                    </mxGeometry>
                </mxCell>
                <mxCell id="b9YFm3cifNt7pc6ETkbJ-33" value="" style="shape=image;verticalLabelPosition=bottom;labelBackgroundColor=default;verticalAlign=top;aspect=fixed;imageAspect=0;editableCssRules=.*;image=data:image/svg+xml,PHN2ZyB4bWxuczp4bGluaz0iaHR0cDovL3d3dy53My5vcmcvMTk5OS94bGluayIgeG1sbnM9Imh0dHA6Ly93d3cudzMub3JnLzIwMDAvc3ZnIiB4bWw6c3BhY2U9InByZXNlcnZlIiBzdHlsZT0iZW5hYmxlLWJhY2tncm91bmQ6bmV3IDAgMCAyMDAgMTcyOyIgdmlld0JveD0iMC4wODgyNDM0ODQ0OTcwNzAzMSAwIDE5OS45MTE3NzM2ODE2NDA2MiAxNzAuMDk5OTkwODQ0NzI2NTYiIHk9IjBweCIgeD0iMHB4IiBpZD0i44Os44Kk44Ok44O8XzEiIHZlcnNpb249IjEuMSIgd2lkdGg9IjE5OS45MTE3NzM2ODE2NDA2MiIgaGVpZ2h0PSIxNzAuMDk5OTkwODQ0NzI2NTYiPiYjeGE7PHN0eWxlIHR5cGU9InRleHQvY3NzIj4mI3hhOwkuc3Qwe2ZpbGw6IzAwMDt9JiN4YTs8L3N0eWxlPiYjeGE7PGc+JiN4YTsJPHBhdGggZD0iTTg2LjgsMzEuN2MwLjQsMCwwLjctMC4xLDEuMS0wLjFsLTIuOC0yMS4ybC0xLjUsMC4ybDIuOCwyMS4yQzg2LjUsMzEuOCw4Ni43LDMxLjgsODYuOCwzMS43eiIgY2xhc3M9InN0MCIvPiYjeGE7CTxwYXRoIGQ9Ik03NS45LDM0LjVsLTguMS0xOS42bC0xLjQsMC42TDc0LjUsMzVDNzQuOSwzNC44LDc1LjQsMzQuNyw3NS45LDM0LjV6IiBjbGFzcz0ic3QwIi8+JiN4YTsJPHBhdGggZD0iTTY0LjgsNDAuM0w1Mi4xLDIzLjdsLTEuMiwwLjlsMTIuNywxNi41QzY0LDQwLjgsNjQuNCw0MC41LDY0LjgsNDAuM3oiIGNsYXNzPSJzdDAiLz4mI3hhOwk8cGF0aCBkPSJNNTUuNSw0OC43TDM5LjMsMzYuMmwtMC45LDEuMmwxNi4yLDEyLjRDNTQuOSw0OS40LDU1LjIsNDksNTUuNSw0OC43eiIgY2xhc3M9InN0MCIvPiYjeGE7CTxwYXRoIGQ9Ik00OC41LDU5LjNsLTE4LjMtNy42TDI5LjYsNTNsMTguMyw3LjZDNDguMSw2MC4xLDQ4LjMsNTkuNyw0OC41LDU5LjN6IiBjbGFzcz0ic3QwIi8+JiN4YTsJPHBhdGggZD0iTTQ0LjQsNzEuNGwtMTktMi41bC0wLjIsMS41bDE4LjksMi41QzQ0LjIsNzIuNCw0NC4zLDcxLjksNDQuNCw3MS40eiIgY2xhc3M9InN0MCIvPiYjeGE7CTxwYXRoIGQ9Ik0xNDIuMyw3MS40YzAuMSwwLjUsMC4yLDEsMC4zLDEuNWwxOS0yLjVsLTAuMi0xLjVMMTQyLjMsNzEuNHoiIGNsYXNzPSJzdDAiLz4mI3hhOwk8cGF0aCBkPSJNMjUuMyw4OC4zbDE4LjMtMi40YzAtMC41LTAuMS0xLTAuMS0xLjVsLTE4LjQsMi40TDI1LjMsODguM3oiIGNsYXNzPSJzdDAiLz4mI3hhOwk8cGF0aCBkPSJNMTM4LjEsNTkuM2MwLjIsMC40LDAuNCwwLjksMC42LDEuM2wxOC4zLTcuNmwtMC42LTEuNEwxMzguMSw1OS4zeiIgY2xhc3M9InN0MCIvPiYjeGE7CTxyZWN0IGhlaWdodD0iMS41IiB3aWR0aD0iMTYuMiIgY2xhc3M9InN0MCIgdHJhbnNmb3JtPSJtYXRyaXgoMC43OTM0IC0wLjYwODcgMC42MDg3IDAuNzkzNCAzLjgwNjUgOTQuNzAwMSkiIHk9IjQxIiB4PSIxMzMuMyIvPiYjeGE7CTxwYXRoIGQ9Ik0xMjMsNDEuMWwxMi43LTE2LjVsLTEuMi0wLjlsLTEyLjcsMTYuNkMxMjIuMiw0MC42LDEyMi42LDQwLjgsMTIzLDQxLjF6IiBjbGFzcz0ic3QwIi8+JiN4YTsJPHBhdGggZD0iTTExMi4yLDM1bDguMS0xOS42bC0xLjQtMC42bC04LjEsMTkuNkMxMTEuMywzNC43LDExMS43LDM0LjgsMTEyLjIsMzV6IiBjbGFzcz0ic3QwIi8+JiN4YTsJPHBhdGggZD0iTTEwMywxMC42bC0xLjUtMC4ybC0yLjgsMjEuMmMwLjUsMC4xLDEsMC4xLDEuNSwwLjJMMTAzLDEwLjZ6IiBjbGFzcz0ic3QwIi8+JiN4YTsJPHBhdGggZD0iTTk0LjEsMGgtMS41djEuOWMwLjUsMCwxLDAsMS41LDBWMHoiIGNsYXNzPSJzdDAiLz4mI3hhOwk8cGF0aCBkPSJNODAuMywzM2MwLjUtMC4xLDEtMC4zLDEuNC0wLjRMNzUuMiw4LjFjLTAuNSwwLjEtMSwwLjMtMS40LDAuNEw4MC4zLDMzeiIgY2xhc3M9InN0MCIvPiYjeGE7CTxwYXRoIGQ9Ik03NC4yLDQuM2wtMC41LTEuOGwtMS40LDAuNGwwLjUsMS44QzczLjIsNC41LDczLjcsNC40LDc0LjIsNC4zeiIgY2xhc3M9InN0MCIvPiYjeGE7CTxwYXRoIGQ9Ik03MC4yLDM3TDU3LjYsMTUuMmMtMC40LDAuMi0wLjksMC41LTEuMywwLjdsMTIuNiwyMS44QzY5LjMsMzcuNSw2OS43LDM3LjIsNzAuMiwzN3oiIGNsYXNzPSJzdDAiLz4mI3hhOwk8cGF0aCBkPSJNNTUuNiwxMS44bC0wLjktMS42bC0xLjMsMC43bDAuOSwxLjZDNTQuNywxMi4yLDU1LjEsMTIsNTUuNiwxMS44eiIgY2xhc3M9InN0MCIvPiYjeGE7CTxwYXRoIGQ9Ik01OS45LDQ0LjFMNDIuNCwyNi42Yy0wLjQsMC4zLTAuNywwLjctMS4xLDEuMWwxNy41LDE3LjVDNTkuMiw0NC44LDU5LjUsNDQuNSw1OS45LDQ0LjF6IiBjbGFzcz0ic3QwIi8+JiN4YTsJPHBhdGggZD0iTTM5LjYsMjMuOGwtMS4zLTEuM2wtMS4xLDEuMWwxLjMsMS4zQzM4LjksMjQuNSwzOS4yLDI0LjIsMzkuNiwyMy44eiIgY2xhc3M9InN0MCIvPiYjeGE7CTxwYXRoIGQ9Ik01MS43LDUzLjdsLTIxLTEyLjFjLTAuMywwLjQtMC41LDAuOS0wLjcsMS4zTDUwLjksNTVDNTEuMSw1NC41LDUxLjQsNTQuMSw1MS43LDUzLjd6IiBjbGFzcz0ic3QwIi8+JiN4YTsJPHBhdGggZD0iTTI3LjIsMzkuNmwtMS42LTAuOUwyNC45LDQwbDEuNiwwLjlDMjYuNyw0MC41LDI3LDQwLDI3LjIsMzkuNnoiIGNsYXNzPSJzdDAiLz4mI3hhOwk8cGF0aCBkPSJNNDYsNjUuMmwtMjIuOC02LjFjLTAuMSwwLjUtMC4zLDEtMC40LDEuNGwyMi44LDYuMUM0NS43LDY2LjEsNDUuOSw2NS43LDQ2LDY1LjJ6IiBjbGFzcz0ic3QwIi8+JiN4YTsJPHBhdGggZD0iTTE5LjMsNThsLTEuOC0wLjVMMTcuMiw1OWwxLjgsMC41QzE5LjEsNTksMTkuMiw1OC41LDE5LjMsNTh6IiBjbGFzcz0ic3QwIi8+JiN4YTsJPHBhdGggZD0iTTE2LjYsNzcuOWgtMS45djEuNWgxLjlDMTYuNiw3OC45LDE2LjYsNzguNCwxNi42LDc3Ljl6IiBjbGFzcz0ic3QwIi8+JiN4YTsJPHBhdGggZD0iTTE3Miw3Ny45aC0xLjljMCwwLjUsMCwxLDAsMS41aDEuOVY3Ny45eiIgY2xhc3M9InN0MCIvPiYjeGE7CTxwYXRoIGQ9Ik00My40LDc5LjRjMC0wLjUsMC0xLDAuMS0xLjVIMjAuNWMwLDAuNSwwLDEsMCwxLjVINDMuNHoiIGNsYXNzPSJzdDAiLz4mI3hhOwk8cGF0aCBkPSJNMTY2LjEsNzkuNGMwLTAuNSwwLTEsMC0xLjVoLTIzYzAsMC41LDAuMSwxLDAuMSwxLjVIMTY2LjF6IiBjbGFzcz0ic3QwIi8+JiN4YTsJPHBhdGggZD0iTTE2OS41LDU5bC0wLjQtMS40bC0xLjgsMC41YzAuMSwwLjUsMC4zLDEsMC40LDEuNEwxNjkuNSw1OXoiIGNsYXNzPSJzdDAiLz4mI3hhOwk8cGF0aCBkPSJNMTQxLjEsNjYuNmwyMi44LTYuMWMtMC4xLTAuNS0wLjMtMS0wLjQtMS40bC0yMi44LDYuMUMxNDAuOCw2NS43LDE0MC45LDY2LjEsMTQxLjEsNjYuNnoiIGNsYXNzPSJzdDAiLz4mI3hhOwk8cGF0aCBkPSJNMTkuNCw5OS4yYy0wLjEtMC41LTAuMy0xLTAuNC0xLjRsLTEuOCwwLjVsMC40LDEuNEwxOS40LDk5LjJ6IiBjbGFzcz0ic3QwIi8+JiN4YTsJPHBhdGggZD0iTTIzLjIsOTguMmwyMS40LTUuN2MtMC4xLTAuNS0wLjItMS0wLjMtMS41bC0yMS41LDUuOEMyMyw5Ny4yLDIzLjEsOTcuNywyMy4yLDk4LjJ6IiBjbGFzcz0ic3QwIi8+JiN4YTsJPHBhdGggZD0iTTE2MS44LDQwbC0wLjctMS4zbC0xLjYsMC45YzAuMywwLjQsMC41LDAuOSwwLjcsMS4zTDE2MS44LDQweiIgY2xhc3M9InN0MCIvPiYjeGE7CTxwYXRoIGQ9Ik0xMzUuOCw1NWwyMS0xMi4xYy0wLjItMC40LTAuNS0wLjktMC43LTEuM2wtMjEsMTIuMUMxMzUuMyw1NC4xLDEzNS41LDU0LjYsMTM1LjgsNTV6IiBjbGFzcz0ic3QwIi8+JiN4YTsJPHBhdGggZD0iTTEzMi4xLDQwLjlsMTMuMi0xMy4yYy0wLjMtMC40LTAuNy0wLjctMS4xLTEuMUwxMzEsMzkuOUwxMzIuMSw0MC45eiIgY2xhc3M9InN0MCIvPiYjeGE7CTxwYXRoIGQ9Ik0xNDkuNSwyMy42bC0xLjEtMS4xbC0xLjMsMS4zYzAuNCwwLjMsMC43LDAuNywxLjEsMS4xTDE0OS41LDIzLjZ6IiBjbGFzcz0ic3QwIi8+JiN4YTsJPHBhdGggZD0iTTExNy44LDM3LjdMMTMwLjQsMTZjLTAuNC0wLjMtMC45LTAuNS0xLjMtMC43TDExNi41LDM3QzExNi45LDM3LjMsMTE3LjQsMzcuNSwxMTcuOCwzNy43eiIgY2xhc3M9InN0MCIvPiYjeGE7CTxwYXRoIGQ9Ik0xMzMuMywxMC45bC0xLjMtMC43bC0wLjksMS42YzAuNCwwLjIsMC45LDAuNSwxLjMsMC43TDEzMy4zLDEwLjl6IiBjbGFzcz0ic3QwIi8+JiN4YTsJPHBhdGggZD0iTTExNC40LDIuOUwxMTMsMi41bC0wLjUsMS44YzAuNSwwLjEsMSwwLjMsMS40LDAuNEwxMTQuNCwyLjl6IiBjbGFzcz0ic3QwIi8+JiN4YTsJPHBhdGggZD0iTTExMi45LDguNWMtMC41LTAuMS0xLTAuMy0xLjQtMC40bC02LjYsMjQuNmMwLjUsMC4xLDEsMC4yLDEuNCwwLjRMMTEyLjksOC41eiIgY2xhc3M9InN0MCIvPiYjeGE7CTxwYXRoIGQ9Ik05My4zLDQ3LjZjLTEuMywwLTIuNCwxLjEtMi40LDIuNGMwLDEuMywxLjEsMi40LDIuNCwyLjRjMS4zLDAsMi40LTEuMSwyLjQtMi40JiMxMDsmIzk7JiM5O0M5NS43LDQ4LjcsOTQuNiw0Ny42LDkzLjMsNDcuNnogTTkzLjMsNTEuMWMtMC42LDAtMS4xLTAuNS0xLjEtMS4xYzAtMC42LDAuNS0xLjEsMS4xLTEuMWMwLjYsMCwxLjEsMC41LDEuMSwxLjEmIzEwOyYjOTsmIzk7Qzk0LjQsNTAuNiw5My45LDUxLjEsOTMuMyw1MS4xeiIgY2xhc3M9InN0MCIvPiYjeGE7CTxwYXRoIGQ9Ik03MC44LDY0aDMuNWMwLjQsMCwwLjYtMC4zLDAuNi0wLjZ2LTMuNWMwLTEuMy0xLjEtMi40LTIuNC0yLjRjLTEuMywwLTIuNCwxLjEtMi40LDIuNHYzLjUmIzEwOyYjOTsmIzk7QzcwLjIsNjMuNyw3MC41LDY0LDcwLjgsNjR6IE03MS41LDU5LjljMC0wLjYsMC41LTEuMSwxLjEtMS4xYzAuNiwwLDEuMSwwLjUsMS4xLDEuMXYyLjhoLTIuMlY1OS45eiIgY2xhc3M9InN0MCIvPiYjeGE7CTxwYXRoIGQ9Ik05MS42LDYzLjZoMy41YzAuNCwwLDAuNi0wLjMsMC42LTAuNnYtMy40YzAtMS4zLTEuMS0yLjQtMi40LTIuNGMtMS4zLDAtMi40LDEuMS0yLjQsMi40djMuNCYjMTA7JiM5OyYjOTtDOTAuOSw2My4zLDkxLjIsNjMuNiw5MS42LDYzLjZ6IE05Mi4yLDU5LjVjMC0wLjYsMC41LTEuMSwxLjEtMS4xYzAuNiwwLDEuMSwwLjUsMS4xLDEuMXYyLjdoLTIuMlY1OS41eiIgY2xhc3M9InN0MCIvPiYjeGE7CTxwYXRoIGQ9Ik0xMTEuNiw2Ni4zaDMuNWMwLjQsMCwwLjYtMC4zLDAuNi0wLjZWNjFjMC0xLjMtMS4xLTIuNC0yLjQtMi40UzExMSw1OS43LDExMSw2MXY0LjYmIzEwOyYjOTsmIzk7QzExMSw2NiwxMTEuMyw2Ni4zLDExMS42LDY2LjN6IE0xMTIuMyw2MWMwLTAuNiwwLjUtMS4xLDEuMS0xLjFzMS4xLDAuNSwxLjEsMS4xdjRoLTIuMlY2MXoiIGNsYXNzPSJzdDAiLz4mI3hhOwk8cGF0aCBkPSJNNzQuMyw3NC4zaC0zLjVjLTAuNCwwLTAuNiwwLjMtMC42LDAuNnYxMC43YzAsMC40LDAuMywwLjYsMC42LDAuNmgzLjVjMC40LDAsMC42LTAuMywwLjYtMC42Vjc1JiMxMDsmIzk7JiM5O0M3NSw3NC42LDc0LjcsNzQuMyw3NC4zLDc0LjN6IE03My43LDg1aC0yLjJ2LTkuNGgyLjJWODV6IiBjbGFzcz0ic3QwIi8+JiN4YTsJPHBhdGggZD0iTTk1LjEsNzQuM2gtMy41Yy0wLjQsMC0wLjYsMC4zLTAuNiwwLjZ2MTAuN2MwLDAuNCwwLjMsMC42LDAuNiwwLjZoMy41YzAuNCwwLDAuNi0wLjMsMC42LTAuNlY3NSYjMTA7JiM5OyYjOTtDOTUuNyw3NC42LDk1LjQsNzQuMyw5NS4xLDc0LjN6IE05NC40LDg1aC0yLjJ2LTkuNGgyLjJWODV6IiBjbGFzcz0ic3QwIi8+JiN4YTsJPHBhdGggZD0iTTExNS4zLDc0LjNoLTMuNWMtMC40LDAtMC42LDAuMy0wLjYsMC42djEwLjdjMCwwLjQsMC4zLDAuNiwwLjYsMC42aDMuNWMwLjQsMCwwLjYtMC4zLDAuNi0wLjZWNzUmIzEwOyYjOTsmIzk7QzExNS45LDc0LjYsMTE1LjYsNzQuMywxMTUuMyw3NC4zeiBNMTE0LjYsODVoLTIuMnYtOS40aDIuMlY4NXoiIGNsYXNzPSJzdDAiLz4mI3hhOwk8cGF0aCBkPSJNMTMwLjEsNzQuM2gtMy41Yy0wLjQsMC0wLjYsMC4zLTAuNiwwLjZ2MTAuN2MwLDAuNCwwLjMsMC42LDAuNiwwLjZoMy41YzAuNCwwLDAuNi0wLjMsMC42LTAuNlY3NSYjMTA7JiM5OyYjOTtDMTMwLjcsNzQuNiwxMzAuNCw3NC4zLDEzMC4xLDc0LjN6IE0xMjkuNCw4NWgtMi4ydi05LjRoMi4yVjg1eiIgY2xhc3M9InN0MCIvPiYjeGE7CTxwYXRoIGQ9Ik04MS4yLDUzLjl2MS4ybC0yMS44LDBoMGMtMC4yLDAtMC4zLDAuMS0wLjUsMC4ycy0wLjIsMC4zLTAuMiwwLjV2MS43bC0yLjIsNC4ySDUzYy0wLjQsMC0wLjYsMC4zLTAuNiwwLjYmIzEwOyYjOTsmIzk7djMuNFY2OHYyNy42bDEuMy0wLjF2LTEuMmg4Ljl2MC4ybDEuMy0wLjF2LTAuMWgwLjdMNzYuNyw5M0g2My45di01aDE3LjN2NC41bDEuMy0wLjFWODhoMi4zdjQuMWwxLjMtMC4xVjY4LjdoMS4zdjIzLjJsMS4zLTAuMSYjMTA7JiM5OyYjOTtWODhoOS40djIuN2wxLjMtMC4xVjY4LjdoMS4zdjIxLjhsMS4zLTAuMVY4OGgyLjJ2Mi4xbDEuMy0wLjFWODhoMTUuOXYwLjJsMS4zLTAuMVY4OGgwLjlsMTAuOC0xLjJ2MC4xbDEuMy0wLjFWNjh2LTIuNCYjMTA7JiM5OyYjOTtjMC0wLjEsMC0wLjEsMC0wLjJsLTMuOS0xMy44di0zLjVjMC4zLTAuMSwwLjUtMC4zLDAuNS0wLjZ2LTEuM2MwLTAuMSwwLTAuMi0wLjEtMC4zbC0yLTMuOGMtMC4xLTAuMi0wLjMtMC4zLTAuNi0wLjNIMTI5di01LjQmIzEwOyYjOTsmIzk7aC0xLjV2NS40aC0wLjNjLTAuMiwwLTAuNSwwLjEtMC42LDAuM2wtMiwzLjhjMCwwLjEtMC4xLDAuMi0wLjEsMC4zdjEuM2MwLDAuNCwwLjMsMC42LDAuNiwwLjZoMC4xdjMuNWwtMy40LDExLjhsLTEuNi00LjZ2LTMuMSYjMTA7JiM5OyYjOTtjMC0wLjQtMC4zLTAuNi0wLjYtMC42SDEwN2MtMC40LDAtMC42LDAuMy0wLjYsMC42djMuMWwtMi4xLDVoMHYtNi45aDAuNWgwLjFjMC40LDAsMC42LTAuMywwLjYtMC42di0yLjRjMC0wLjQtMC4zLTAuNi0wLjYtMC42JiMxMDsmIzk7JiM5O2gtMC4xaC0wLjVjLTAuMy01LjMtMy41LTkuNy03LjktMTF2LTMuNmgwYzAuNCwwLDAuNi0wLjMsMC42LTAuNmMwLTIuMy0xLjItNC0yLjktNC40di0yLjNjMCwwLDAsMCwwLDBWNS44Yy0wLjIsMC0wLjQsMC0wLjYsMCYjMTA7JiM5OyYjOTtjLTAuMywwLTAuNiwwLTAuOSwwdjkuN2gwdjE4Yy0xLjcsMC40LTIuOSwyLjEtMi45LDQuNGMwLDAuNCwwLjMsMC42LDAuNiwwLjZoMC4zdjMuNWMtNC41LDEuMy03LjksNS44LTguMiwxMS4xaC0wLjUmIzEwOyYjOTsmIzk7QzgxLjUsNTMuMyw4MS4yLDUzLjYsODEuMiw1My45eiBNNTcsNjIuOWMwLjIsMCwwLjUtMC4xLDAuNi0wLjNsMi41LTQuN2MwLTAuMSwwLjEtMC4yLDAuMS0wLjN2LTEuMmwyMS4yLDBjMCwwLjMsMC4zLDAuNSwwLjYsMC41JiMxMDsmIzk7JiM5O2gwLjV2Ni45aC0wLjVjLTAuNCwwLTAuNiwwLjMtMC42LDAuNlY2NUg1My43di0yLjFINTd6IE05My4zLDQzLjJjMy42LDEuOSw1LDYuNCw0LjksMTAuMWgtOS44Qzg4LjMsNDkuNiw4OS43LDQ1LjEsOTMuMyw0My4yeiYjMTA7JiM5OyYjOTsgTTEwMy42LDU0LjZoMC41djEuMWgtMC41SDgyLjV2LTEuMUg4M0gxMDMuNnogTTUzLjcsNzMuOGg4Ljl2MTIuOWgtOC45VjczLjh6IE01My43LDcyLjV2LTMuOGg4Ljl2My44SDUzLjd6IE01My43LDY2LjNoMjcuNnYxLjEmIzEwOyYjOTsmIzk7SDUzLjdWNjYuM3ogTTYzLjksNjguN2gxNy4zdjMuOEg2My45VjY4Ljd6IE02Mi42LDkzaC04Ljl2LTVoOC45VjkzeiBNNjMuOSw4Ni43VjczLjhoMTcuM3YxMi45SDYzLjl6IE04Mi41LDg2LjdWNzMuOGgyLjN2MTIuOSYjMTA7JiM5OyYjOTtIODIuNXogTTg0LjgsNzIuNWgtMi4zdi0zLjhoMi4zVjcyLjV6IE04OC43LDg2LjdWNzMuOGg5LjR2MTIuOUg4OC43eiBNOTguMSw3Mi41aC05LjR2LTMuOGg5LjRWNzIuNXogTTk4LjcsNjcuNEg4OC4xaC0yLjZoLTIuOSYjMTA7JiM5OyYjOTt2LTEuN3YtMC41aDIxLjFoMC41djIuM2gtMi44SDk4Ljd6IE0xMjIuNiw2OC43aDExLjd2My44aC0xMS43VjY4Ljd6IE0xMzQuMyw2Ny40aC0xMS43di0xLjFoMTEuN1Y2Ny40eiBNMTIxLjMsNzIuNWgtMTUuOXYtMy44JiMxMDsmIzk7JiM5O2gxNS45VjcyLjV6IE0xMDQuMSw2OC43djMuOGgtMi4ydi0zLjhIMTA0LjF6IE0xMDEuOSw4Ni43VjczLjhoMi4ydjEyLjlIMTAxLjl6IE0xMDUuNCw4Ni43VjczLjhoMTUuOXYxMi45SDEwNS40eiBNMTIyLjYsODYuNyYjMTA7JiM5OyYjOTtWNzMuOGgxMS43djEyLjlIMTIyLjZ6IE0xMjcuNiw0My4xaDEuNWwxLjcsMy4zdjAuM0gxMjZjMCwwLTAuMSwwLTAuMSwwdi0wLjNMMTI3LjYsNDMuMXogTTEzMC40LDQ4LjF2M2gtMy44di0zSDEzMC40eiYjMTA7JiM5OyYjOTsgTTEyNi41LDUyLjRoNC4xbDMuNiwxMi42aC0xMS4zTDEyNi41LDUyLjR6IE0xMDcuNiw1OS4yYzAtMC4xLDAtMC4yLDAtMC4ydi0yLjZoMTEuNHYyLjZjMCwwLjEsMCwwLjEsMCwwLjJsMi4yLDYuNnYxLjZoLTE1LjkmIzEwOyYjOTsmIzk7di0yLjhMMTA3LjYsNTkuMnogTTEwMyw2My44SDgzLjd2LTYuOUgxMDNWNjMuOHogTTEwMyw1My4zaC0zLjVjMC4xLTMuNC0wLjktNy4zLTMuNS05LjhDOTkuOCw0NC43LDEwMi43LDQ4LjYsMTAzLDUzLjN6JiMxMDsmIzk7JiM5OyBNOTMuMywzNC44YzEuMywwLDIuMSwxLDIuMywyLjVIOTFDOTEuMiwzNS45LDkyLjEsMzQuOCw5My4zLDM0Ljh6IE05MS45LDM4LjdIOTV2My4zYy0wLjYtMC4xLTEuMS0wLjItMS43LTAuMiYjMTA7JiM5OyYjOTtjLTAuNSwwLTEsMC4xLTEuNSwwLjFWMzguN3ogTTkwLjYsNDMuNWMtMi42LDIuNS0zLjYsNi4zLTMuNSw5LjhoLTMuNUM4My45LDQ4LjgsODYuOSw0NC44LDkwLjYsNDMuNXoiIGNsYXNzPSJzdDAiLz4mI3hhOwk8cG9seWdvbiBwb2ludHM9IjQ5LjMsMTQ3LjQgNDcuOCwxNDcuNSA0OCwxNDYgNDcuMiwxNDYgNDYuNiwxNTAgNDcuNCwxNDkuOSA0Ny43LDE0OC4zIDQ5LjIsMTQ4LjEgNDguOSwxNDkuNyAmIzEwOyYjOTsmIzk7NDkuOCwxNDkuNiA1MC40LDE0NS43IDQ5LjYsMTQ1LjgiIGNsYXNzPSJzdDAiLz4mI3hhOwk8cGF0aCBkPSJNNTQuMywxNDUuM2wtMi4zLDQuMWwwLjktMC4xbDAuNS0wLjlsMS42LTAuMmwwLjIsMC44bDAuOS0wLjFsLTEtMy44TDU0LjMsMTQ1LjN6IE01My45LDE0Ny42bDAuNy0xLjMmIzEwOyYjOTsmIzk7bDAuMywxLjJMNTMuOSwxNDcuNnoiIGNsYXNzPSJzdDAiLz4mI3hhOwk8cGF0aCBkPSJNNjAuNSwxNDUuNGMwLjUsMCwwLjcsMC4xLDEsMC40bDAuNi0wLjZjLTAuNC0wLjUtMC45LTAuNy0xLjYtMC43Yy0wLjYsMC4xLTEuMiwwLjQtMS42LDAuOCYjMTA7JiM5OyYjOTtjLTAuNCwwLjUtMC42LDEuMS0wLjUsMS43YzAuMSwxLDAuOSwxLjYsMiwxLjVjMC42LTAuMSwxLjEtMC40LDEuNC0wLjdsLTAuNi0wLjVjLTAuMywwLjMtMC41LDAuNC0wLjksMC41Yy0wLjUsMC4xLTEtMC4zLTEtMC44JiMxMDsmIzk7JiM5O2MwLTAuNCwwLjEtMC44LDAuMy0xLjFDNTkuOSwxNDUuNiw2MC4yLDE0NS41LDYwLjUsMTQ1LjR6IiBjbGFzcz0ic3QwIi8+JiN4YTsJPHBvbHlnb24gcG9pbnRzPSI2NywxNDQuMSA2NS4zLDE0NS45IDY1LjYsMTQ0LjIgNjQuOCwxNDQuMyA2NC4xLDE0OC4yIDY1LDE0OC4xIDY1LjEsMTQ3IDY1LjgsMTQ2LjMgNjYuNywxNDcuOSAmIzEwOyYjOTsmIzk7NjcuNiwxNDcuOCA2Ni41LDE0NS43IDY4LjIsMTQzLjkiIGNsYXNzPSJzdDAiLz4mI3hhOwk8cG9seWdvbiBwb2ludHM9IjY5LjksMTQ3LjYgNzIuOCwxNDcuMyA3Mi45LDE0Ni42IDcwLjksMTQ2LjggNzEsMTQ1LjkgNzIuOCwxNDUuOCA3Mi45LDE0NSA3MS4yLDE0NS4yIDcxLjMsMTQ0LjQgJiMxMDsmIzk7JiM5OzczLjMsMTQ0LjIgNzMuNCwxNDMuNCA3MC42LDE0My43IiBjbGFzcz0ic3QwIi8+JiN4YTsJPHBhdGggZD0iTTc4LjksMTQzLjNjLTAuMy0wLjItMC43LTAuMy0xLjItMC4zbC0xLjQsMC4xbC0wLjYsMy45bDAuOC0wLjFsMC4yLTEuMmwwLjYtMC4xbDAuNywxLjJsMS0wLjFsLTAuOC0xLjImIzEwOyYjOTsmIzk7YzAuNS0wLjIsMC43LTAuNCwwLjgtMC41YzAuMi0wLjIsMC4zLTAuNiwwLjMtMC45Qzc5LjIsMTQzLjcsNzkuMSwxNDMuNCw3OC45LDE0My4zeiBNNzguMywxNDQuNWMtMC4xLDAuMi0wLjQsMC4zLTAuNywwLjMmIzEwOyYjOTsmIzk7bC0wLjcsMC4xbDAuMi0xLjFsMC43LTAuMWMwLjMsMCwwLjUsMCwwLjYsMC4xYzAuMSwwLjEsMC4xLDAuMiwwLjEsMC4zQzc4LjQsMTQ0LjMsNzguNCwxNDQuNCw3OC4zLDE0NC41eiIgY2xhc3M9InN0MCIvPiYjeGE7CTxwYXRoIGQ9Ik04Ni4yLDE0Mi44YzAuNCwwLDAuNiwwLjEsMSwwLjNsMC41LTAuNmMtMC40LTAuMy0wLjgtMC41LTEuNS0wLjRjLTAuNSwwLTAuOSwwLjItMS4xLDAuNiYjMTA7JiM5OyYjOTtjLTAuMiwwLjItMC4zLDAuNS0wLjMsMC45YzAuMSwwLjYsMC41LDAuOCwxLDAuOWMwLjUsMC4yLDAuNywwLjMsMC43LDAuNGMwLDAuMi0wLjIsMC40LTAuNSwwLjVjLTAuNCwwLTAuOC0wLjEtMS4xLTAuNGwtMC42LDAuNiYjMTA7JiM5OyYjOTtjMC40LDAuNCwxLDAuNiwxLjcsMC41YzAuNSwwLDAuOS0wLjIsMS4xLTAuNmMwLjItMC4yLDAuMy0wLjUsMC4zLTAuOWMtMC4xLTAuNi0wLjUtMC44LTEtMC45Yy0wLjUtMC4yLTAuNy0wLjItMC43LTAuNCYjMTA7JiM5OyYjOTtDODUuNiwxNDMuMSw4NS44LDE0Mi45LDg2LjIsMTQyLjh6IiBjbGFzcz0ic3QwIi8+JiN4YTsJPHBhdGggZD0iTTkyLjcsMTQxLjljLTAuMy0wLjItMC43LTAuMy0xLjItMC4zbC0xLjIsMC4xbC0wLjYsMy45bDAuOC0wLjFsMC4yLTEuMmwwLjctMC4xYzAuNi0wLjEsMS4xLTAuMywxLjQtMC43JiMxMDsmIzk7JiM5O2MwLjItMC4zLDAuMy0wLjYsMC4zLTFDOTMuMSwxNDIuMyw5MywxNDIsOTIuNywxNDEuOXogTTkyLjEsMTQzLjJjLTAuMSwwLjItMC40LDAuMy0wLjcsMC4zbC0wLjYsMC4xbDAuMi0xLjJsMC41LTAuMSYjMTA7JiM5OyYjOTtjMC4yLDAsMC40LDAsMC41LDAuMWMwLjEsMC4xLDAuMSwwLjIsMC4yLDAuM0M5Mi4zLDE0Myw5Mi4yLDE0My4xLDkyLjEsMTQzLjJ6IiBjbGFzcz0ic3QwIi8+JiN4YTsJPHBhdGggZD0iTTk2LjgsMTQxbC0yLjMsNC4xbDAuOS0wLjFsMC41LTAuOWwxLjYtMC4ybDAuMiwwLjhsMC45LTAuMWwtMS0zLjhMOTYuOCwxNDF6IE05Ni4zLDE0My40TDk3LDE0MmwwLjMsMS4yJiMxMDsmIzk7JiM5O0w5Ni4zLDE0My40eiIgY2xhc3M9InN0MCIvPiYjeGE7CTxwYXRoIGQ9Ik0xMDIuOSwxNDEuMmMwLjUsMCwwLjcsMC4xLDEsMC40bDAuNi0wLjZjLTAuNC0wLjUtMC45LTAuNy0xLjYtMC43Yy0wLjYsMC4xLTEuMiwwLjQtMS42LDAuOCYjMTA7JiM5OyYjOTtjLTAuNCwwLjUtMC42LDEuMS0wLjUsMS43YzAuMSwxLDAuOSwxLjYsMiwxLjVjMC42LTAuMSwxLjEtMC40LDEuNC0wLjdsLTAuNi0wLjVjLTAuMywwLjMtMC41LDAuNC0wLjksMC41Yy0wLjUsMC4xLTEtMC4zLTEtMC44JiMxMDsmIzk7JiM5O2MwLTAuNCwwLjEtMC44LDAuMy0xLjFDMTAyLjIsMTQxLjQsMTAyLjUsMTQxLjIsMTAyLjksMTQxLjJ6IiBjbGFzcz0ic3QwIi8+JiN4YTsJPHBvbHlnb24gcG9pbnRzPSIxMDYuMywxNDQgMTA5LjEsMTQzLjcgMTA5LjMsMTQyLjkgMTA3LjIsMTQzLjEgMTA3LjQsMTQyLjMgMTA5LjEsMTQyLjEgMTA5LjIsMTQxLjQgMTA3LjUsMTQxLjUgJiMxMDsmIzk7JiM5OzEwNy42LDE0MC43IDEwOS42LDE0MC41IDEwOS43LDEzOS44IDEwNi45LDE0MC4xIiBjbGFzcz0ic3QwIi8+JiN4YTsJPHBvbHlnb24gcG9pbnRzPSIxMTQuOCwxNDMuMSAxMTUuNiwxNDMgMTE1LjksMTQxLjUgMTE3LjcsMTQxLjMgMTE3LjgsMTQwLjYgMTE2LDE0MC43IDExNi4xLDEzOS45IDExOC4yLDEzOS43ICYjMTA7JiM5OyYjOTsxMTguMywxMzguOSAxMTUuNCwxMzkuMiIgY2xhc3M9InN0MCIvPiYjeGE7CTxwYXRoIGQ9Ik0xMjIuNiwxNDAuN2MtMC4xLDAuMy0wLjIsMC42LTAuMywwLjdjLTAuMSwwLjItMC4zLDAuMy0wLjYsMC4zYy0wLjQsMC0wLjctMC4yLTAuNy0wLjZjMC0wLjIsMC0wLjMsMC0wLjQmIzEwOyYjOTsmIzk7bDAuMy0yLjFsLTAuOCwwLjFsLTAuMywyYzAsMC4yLDAsMC40LDAsMC42YzAuMSwwLjgsMC43LDEuMiwxLjYsMS4xYzAuNi0wLjEsMS0wLjMsMS4yLTAuNmMwLjItMC4zLDAuNC0wLjcsMC41LTEuMmwwLjQtMi4zJiMxMDsmIzk7JiM5O2wtMC44LDAuMUwxMjIuNiwxNDAuN3oiIGNsYXNzPSJzdDAiLz4mI3hhOwk8cG9seWdvbiBwb2ludHM9IjEyOC40LDEzNy45IDEyNi43LDEzOS44IDEyNywxMzggMTI2LjEsMTM4LjEgMTI1LjUsMTQyIDEyNi4zLDE0MiAxMjYuNSwxNDAuOSAxMjcuMiwxNDAuMSAxMjgsMTQxLjggJiMxMDsmIzk7JiM5OzEyOC45LDE0MS43IDEyNy44LDEzOS42IDEyOS41LDEzNy44IiBjbGFzcz0ic3QwIi8+JiN4YTsJPHBhdGggZD0iTTEzMy42LDEzOS42YzAsMC4zLTAuMiwwLjYtMC4zLDAuN2MtMC4xLDAuMi0wLjMsMC4zLTAuNiwwLjNjLTAuNCwwLTAuNy0wLjItMC43LTAuNmMwLTAuMiwwLTAuMywwLTAuNCYjMTA7JiM5OyYjOTtsMC4zLTIuMWwtMC44LDAuMWwtMC4zLDJjMCwwLjItMC4xLDAuNCwwLDAuNmMwLjEsMC44LDAuNywxLjIsMS42LDEuMWMwLjYtMC4xLDEtMC4zLDEuMi0wLjZjMC4yLTAuMywwLjQtMC43LDAuNS0xLjJsMC40LTIuMyYjMTA7JiM5OyYjOTtsLTAuOCwwLjFMMTMzLjYsMTM5LjZ6IiBjbGFzcz0ic3QwIi8+JiN4YTsJPHBhdGggZD0iTTEzOC42LDEzNi44Yy0wLjcsMC4xLTEuMiwwLjQtMS42LDAuOGMtMC40LDAuNS0wLjYsMS4xLTAuNSwxLjdjMC4xLDEsMC45LDEuNiwxLjksMS41JiMxMDsmIzk7JiM5O2MwLjctMC4xLDEuMi0wLjQsMS42LTAuOGMwLjQtMC41LDAuNi0xLjEsMC41LTEuN0MxNDAuNCwxMzcuNCwxMzkuNywxMzYuNywxMzguNiwxMzYuOHogTTEzOS4zLDEzOS42Yy0wLjIsMC4yLTAuNSwwLjQtMC44LDAuNSYjMTA7JiM5OyYjOTtjLTAuNiwwLjEtMS0wLjMtMS4xLTAuOWMwLTAuNCwwLjEtMC44LDAuMy0xLjFjMC4yLTAuMiwwLjUtMC40LDAuOC0wLjVjMC42LTAuMSwxLDAuMywxLjEsMC45JiMxMDsmIzk7JiM5O0MxMzkuNywxMzguOCwxMzkuNiwxMzkuMywxMzkuMywxMzkuNnoiIGNsYXNzPSJzdDAiLz4mI3hhOwk8cG9seWdvbiBwb2ludHM9IjE0NS40LDEzNi4yIDE0My43LDEzOC4xIDE0NCwxMzYuMyAxNDMuMSwxMzYuNCAxNDIuNSwxNDAuMyAxNDMuMywxNDAuMiAxNDMuNSwxMzkuMiAxNDQuMiwxMzguNCAmIzEwOyYjOTsmIzk7MTQ1LDE0MC4xIDE0NS45LDE0MCAxNDQuOCwxMzcuOSAxNDYuNSwxMzYuMSIgY2xhc3M9InN0MCIvPiYjeGE7CTxwYXRoIGQ9Ik0xNTAsMTM1LjdsLTIuMyw0LjFsMC45LTAuMWwwLjUtMC45bDEuNi0wLjJsMC4yLDAuOGwwLjktMC4xbC0xLTMuOEwxNTAsMTM1Ljd6IE0xNDkuNSwxMzhsMC43LTEuM2wwLjMsMS4yJiMxMDsmIzk7JiM5O0wxNDkuNSwxMzh6IiBjbGFzcz0ic3QwIi8+JiN4YTsJPHBhdGggZD0iTTcwLjUsMTA1LjRjLTAuNi0wLjMtMS41LTAuMS0yLjEsMC42YzAsMC0yLjMsMi40LTIuNiwzLjJjLTAuMiwwLjYsMCwwLjksMC4xLDEuMWMwLjIsMC4zLDAuNSwwLjQsMC45LDAuNCYjMTA7JiM5OyYjOTtjMC4xLDAsMC4xLDAsMC4yLDBoMGMwLjctMC4xLDEuNC0wLjYsMS44LTEuM2MwLjEtMC4yLDAuOS0xLjEsMS44LTJjMC40LTAuNCwwLjYtMC45LDAuNS0xLjRDNzEsMTA1LjgsNzAuOCwxMDUuNSw3MC41LDEwNS40eiIgY2xhc3M9InN0MCIvPiYjeGE7CTxwYXRoIGQ9Ik0xODMuMSwxMDcuMmMwLjQsMS4yLDEuMiwxLjksMi41LDEuOWMwLjEsMCwwLjMsMCwwLjQsMGwwLjEsMGMzLjUtMC4zLDkuMS01LjIsMTMuMy05LjMmIzEwOyYjOTsmIzk7YzAuNC0wLjQsMC42LTAuOSwwLjYtMS4zYzAtMC4zLTAuMi0wLjYtMC40LTAuN2MtMC42LTAuNS0xLjYtMC4xLTIuMSwwLjRjLTUuOCw1LjctOS40LDcuOS0xMC44LDhjLTAuMSwwLTAuMywwLTAuNS0wLjQmIzEwOyYjOTsmIzk7Yy0wLjEtMC40LTAuMS0wLjgtMC4xLTEuM2MxLjctMC45LDMuMi0yLjQsNC4yLTQuMmMwLjQtMC43LDAuOS0yLDAuNi0yLjljLTAuMS0wLjQtMC40LTAuNy0wLjgtMC45Yy0wLjgtMC4zLTEuOCwwLTIuOCwwLjgmIzEwOyYjOTsmIzk7Yy0wLjIsMC4xLTAuNCwwLjMtMC42LDAuNWMtMC4xLDAuMS0wLjMsMC4yLTAuNCwwLjNjLTQuMiw0LjEtNy40LDYuOS0xMC4zLDguM2MtMi4yLDEuMS00LjQsMS40LTcsMWM1LTUuMSwxNS40LTE4LjIsMTYtMjMmIzEwOyYjOTsmIzk7YzAuMS0wLjgsMC0xLjUtMC40LTEuOWMtMC40LTAuNC0wLjktMC43LTEuNi0wLjdjLTEuNy0wLjEtMy43LDEuMi01LjgsMy44Yy0yLjksMy41LTYuNSw5LjctMTAuMSwxNy4xYzAsMCwwLDAtMC4xLDAuMWwtMC41LDAuNiYjMTA7JiM5OyYjOTtjLTAuMywwLjMtMC42LDAuNy0xLDFjLTAuOCwwLjktMS43LDEuOC0yLjUsMi43Yy0wLjgsMC44LTEuNiwxLjYtMi41LDIuNGMtMiwxLjctMi45LDItMy40LDEuOWMtMC4xLDAtMC4yLTAuMS0wLjMtMC4yJiMxMDsmIzk7JiM5O2MtMC4zLTAuNi0wLjItMi44LDMuOS0xMC44YzAuMi0wLjQsMC4yLTAuOCwwLTEuMWMtMC4yLTAuMy0wLjUtMC41LTAuOS0wLjVjLTAuNywwLTEuNSwwLjUtMS45LDEuMWwtMC4zLDAuNSYjMTA7JiM5OyYjOTtjLTAuMSwwLjItMC4yLDAuMy0wLjMsMC41YzAsMCwwLDAsMC0wLjFjLTAuMS0wLjMtMC41LTAuNy0xLjItMC43Yy0xLjMtMC4yLTIuOCwwLjktNC43LDMuNWwtMS4yLDEuNGMtNC4yLDUuMS03LjksOS41LTEwLjgsMTIuNiYjMTA7JiM5OyYjOTtjLTMuNiwzLjctNS4xLDQuNC01LjgsNC4zYy0wLjIsMC0wLjMtMC4xLTAuNC0wLjJjLTAuMi0wLjItMC42LTEuMywwLjMtNC42YzEuMS0zLjgsMy40LTguNSw2LjQtMTMuNGMzLjEtNSw2LjYtOS42LDEwLTEzLjEmIzEwOyYjOTsmIzk7YzMuNi0zLjcsNS43LTQuNiw2LjMtNC41YzAuMiwwLDAuMiwwLjEsMC4yLDAuMmMwLDAuMSwwLjEsMC41LTAuNSwxLjVjLTAuMywwLjQtMC4zLDAuOS0wLjEsMS4yYzAuMiwwLjMsMC41LDAuNSwwLjgsMC41JiMxMDsmIzk7JiM5O2MwLjcsMC4xLDEuNS0wLjQsMi0xLjFjMS4xLTEuOCwxLjEtMywxLTMuN2MtMC4zLTAuOS0xLTEuNS0yLjEtMS42Yy0yLjktMC4zLTYuOCwzLTkuNiw1LjljLTMuNiwzLjYtNy40LDguNS0xMC42LDEzLjkmIzEwOyYjOTsmIzk7Yy0zLjMsNS4zLTUuNywxMC4zLTYuOCwxNC4zYy0wLjgsMy4xLTAuOSw1LjIsMCw2LjRjMC40LDAuNiwxLjEsMSwxLjksMS4xYzAuMSwwLDAuMiwwLDAuMywwYzAuMiwwLDAuNCwwLDAuNSwwJiMxMDsmIzk7JiM5O2MyLjEtMC4yLDQuNi0yLDguMi01LjdjMS42LTEuNywzLjQtMy43LDUuMy01LjljMCwwLjUsMCwwLjksMC4yLDEuMmMwLjIsMC40LDAuNSwwLjgsMS4zLDAuOWMwLjEsMCwwLjIsMCwwLjMsMGMwLjEsMCwwLjIsMCwwLjMsMCYjMTA7JiM5OyYjOTtjMC41LTAuMSwxLjEtMC4zLDEuNi0wLjZjMC45LTAuNSwxLjktMS40LDMtMi44YzAsMC42LDAuMiwxLjEsMC41LDEuNWMwLjQsMC41LDAuOSwwLjgsMS43LDAuOWMxLjYsMC4zLDMuNi0wLjYsNi4yLTIuOCYjMTA7JiM5OyYjOTtjMC43LTAuNiwxLjQtMS4yLDItMS45Yy0wLjgsMS45LTEuNiwzLjktMi40LDUuOGMtMSwyLjUtMi41LDYuNC0zLjgsMTAuNEw0OC4yLDEzNi4zYzEuNS0zLjQsMi44LTYuNiwzLjctOC44JiMxMDsmIzk7JiM5O2MwLjItMC42LDAuNS0xLjQsMC44LTIuMWMyLjktMi44LDUuNy01LjIsOC4yLTcuMmMtMC41LDEuMi0wLjksMi4yLTEuMSwzLjFjLTAuNCwxLjQtMC40LDIuNCwwLjEsM2MwLjMsMC40LDAuOCwwLjYsMS40LDAuNiYjMTA7JiM5OyYjOTtjMCwwLDAuMSwwLDAuMSwwbDAuMiwwYzEuOS0wLjIsNi40LTQsOS44LTcuMWMtMC40LDEtMC44LDEuOS0xLjEsMi42Yy0wLjIsMC40LTAuNCwwLjgtMC40LDEuMWMtMC4xLDAuNCwwLDAuNywwLjIsMC45JiMxMDsmIzk7JiM5O2MwLjEsMC4yLDAuNCwwLjMsMC44LDAuM2wwLDBsMC4yLDBjMC43LTAuMSwxLjMtMC42LDEuOC0xLjRjMC4xLTAuMiwwLjMtMC40LDAuNS0wLjdsMC4yLTAuM2MwLjYtMSwyLjItMy41LDMuOC01LjYmIzEwOyYjOTsmIzk7YzEuMS0xLjQsMS43LTIuMSwyLjEtMi41Yy0wLjEsMC41LTAuMywxLjEtMC41LDEuN2wtMC4yLDAuNmMtMC4yLDAuNi0wLjQsMS4yLTAuNSwxLjhjLTAuMSwwLjYtMC4zLDEuMi0wLjMsMS43JiMxMDsmIzk7JiM5O2MwLDAuOCwwLjEsMS40LDAuNSwxLjhjMC4zLDAuNCwwLjgsMC41LDEuNCwwLjVjMS4xLDAsMi4zLTAuNSw0LTEuOGMwLjYtMC40LDEuMy0xLDIuMS0xLjdjMC43LTAuNiwxLjUtMS4yLDIuMi0xLjkmIzEwOyYjOTsmIzk7YzAuMy0wLjMsMC42LTAuNSwwLjktMC44Yy0wLjQsMS4zLTAuNSwyLjctMC4yLDMuOGMwLjQsMS4yLDEuMiwxLjksMi41LDEuOWMwLjEsMCwwLjMsMCwwLjQsMGwwLjEsMGMyLjQtMC4yLDUuOS0yLjcsOS4yLTUuNSYjMTA7JiM5OyYjOTtjLTAuMSwwLjgtMC4xLDEuNiwwLjEsMi4zYzAuNCwxLjIsMS4yLDEuOSwyLjUsMS45YzAuMSwwLDAuMywwLDAuNSwwbDAuMSwwYzIuNC0wLjIsNi0yLjgsOS4zLTUuN2MtMC42LDEuMy0xLjQsMy0yLjYsNS4ybDAsMC4xJiMxMDsmIzk7JiM5O2MtMC4yLDAuNC0wLjIsMC45LDAsMS4yYzAuMiwwLjMsMC41LDAuNCwwLjksMC40YzAuMSwwLDAuMSwwLDAuMiwwYzAuNi0wLjEsMS40LTAuNiwxLjctMS4xYzQtNy4xLDguNS0xMi4zLDkuOC0xMi43JiMxMDsmIzk7JiM5O2MtMC4xLDAuMy0wLjMsMC45LTAuOSwxLjdsMCwwYy0wLjIsMC40LTAuMywwLjktMC4xLDEuMmMwLjIsMC4zLDAuNSwwLjUsMC44LDAuNWMwLjcsMC4xLDEuNS0wLjQsMi0xLjFjMS40LTIuMywxLjgtMy45LDEtNC44JiMxMDsmIzk7JiM5O2MtMC44LTEtMi40LTAuNS0yLjktMC4zYy0xLjcsMC41LTMuNiwyLjQtNS4xLDQuMmMwLTAuNC0wLjEtMC44LTAuMi0xLjFjLTAuMy0wLjUtMC44LTAuOC0xLjYtMC44Yy0wLjcsMC0xLjUsMC42LTEuOCwxLjMmIzEwOyYjOTsmIzk7Yy0wLjIsMC40LTAuMiwwLjksMCwxLjJjMC4xLDAuMSwwLjIsMC4yLDAuMywwLjNjLTUuNCw1LjItOC44LDcuMy0xMC4yLDcuNGMtMC4xLDAtMC4zLDAtMC41LTAuNGMtMC4xLTAuNC0wLjEtMC44LTAuMS0xLjMmIzEwOyYjOTsmIzk7YzEuNy0wLjksMy4yLTIuNCw0LjItNC4yYzAuNC0wLjcsMC45LTIsMC42LTIuOWMtMC4xLTAuNC0wLjQtMC43LTAuOC0wLjljLTAuOC0wLjMtMS44LDAtMi44LDAuOGMtMC43LDAuNi0xLjUsMS40LTIuMiwyLjUmIzEwOyYjOTsmIzk7Yy01LjgsNS42LTkuMyw3LjgtMTAuNyw3LjljLTAuMSwwLTAuMywwLTAuNS0wLjRjLTAuMS0wLjQtMC4xLTAuOC0wLjEtMS4zYzEuNy0wLjksMy4yLTIuNCw0LjItNC4yYzAuNC0wLjcsMC45LTIsMC42LTIuOSYjMTA7JiM5OyYjOTtjLTAuMS0wLjQtMC40LTAuNy0wLjgtMC45Yy0wLjgtMC4zLTEuOCwwLTIuOCwwLjhjLTAuMiwwLjEtMC40LDAuMy0wLjUsMC41Yy0wLjEsMC0wLjEsMC4xLTAuMiwwLjFjLTEuOCwxLjEtMy44LDIuOS01LjksNC43JiMxMDsmIzk7JiM5O2MtMC42LDAuNS0xLjIsMS4xLTEuOSwxLjZjLTAuNiwwLjUtMS4yLDEtMS43LDEuNGMtMC45LDAuNy0xLjQsMS0xLjcsMS4xYzAtMC4xLDAtMC4yLDAtMC40YzAuMS0wLjcsMC40LTEuNiwwLjctMi41JiMxMDsmIzk7JiM5O2MwLjYtMiwxLjEtMy45LDAuMy00LjljLTAuNC0wLjQtMC45LTAuNi0xLjYtMC42Yy0xLjMsMC4xLTIuNywxLjEtNC40LDMuMWMwLjEtMC42LDAuMS0xLjEsMC4xLTEuNmMwLTAuMy0wLjItMC42LTAuNC0wLjgmIzEwOyYjOTsmIzk7Yy0wLjMtMC4yLTAuOC0wLjItMS4zLTAuMWMtMC44LDAuMy0xLjQsMS4xLTEuNCwxLjhjMCwwLjMsMCwwLjgtMC4xLDEuM2MtMC44LDAuOC0yLjgsMi43LTUsNC42Yy0zLjEsMi43LTQuNywzLjgtNS40LDQuMyYjMTA7JiM5OyYjOTtjMC0wLjIsMC4xLTAuNiwwLjMtMS4xYzAuNS0xLjUsMS40LTMuNSwyLjItNS4ybDAuOC0xLjZjMC4yLTAuNCwwLjEtMC45LTAuMS0xLjJjLTAuMi0wLjMtMC42LTAuNC0xLTAuNGMtMC43LDAtMS41LDAuNi0xLjksMS4zJiMxMDsmIzk7JiM5O2MwLDAsMCwwLjEsMCwwLjFjLTIuNCwxLjYtNS4yLDMuNy04LDYuM2MyLTUuMiwyLjYtNy4yLDEuOS04Yy0wLjMtMC4zLTAuNy0wLjQtMS4zLTAuNGMtMC4yLDAtMC4zLDAuMS0wLjUsMC4yJiMxMDsmIzk7JiM5O2MwLjEtMC42LDAtMS4xLTAuMy0xLjRjLTAuMy0wLjQtMC45LTAuNi0xLjctMC41Yy0xLjIsMC4xLTIuNSwxLTQsMi43Yy0wLjQsMC40LTAuNywwLjgtMS4xLDEuM2MtMS43LDEuMS0zLjcsMi44LTUuNyw0LjYmIzEwOyYjOTsmIzk7Yy0wLjYsMC41LTEuMiwxLjEtMS45LDEuNmMtMC42LDAuNS0xLjIsMS0xLjcsMS40Yy0wLjksMC43LTEuNCwxLTEuNywxLjFjMC0wLjEsMC0wLjIsMC0wLjRjMC4xLTAuNywwLjQtMS42LDAuNy0yLjUmIzEwOyYjOTsmIzk7YzAuNi0yLDEuMS0zLjksMC4zLTQuOWMtMC40LTAuNC0wLjktMC42LTEuNi0wLjZjLTEuMywwLjEtMi43LDEuMS00LjQsMy4xYzAuMS0wLjYsMC4xLTEuMSwwLjEtMS42YzAtMC4zLTAuMi0wLjYtMC40LTAuOCYjMTA7JiM5OyYjOTtjLTAuMy0wLjItMC44LTAuMi0xLjMtMC4xYy0wLjgsMC4zLTEuNCwxLjEtMS40LDEuOGMwLDAuMywwLDAuNy0wLjEsMS4xYy0zLjEsMy4xLTguMyw4LjEtMTAuNiwxMC4yYy0xLDAuOS0xLDAuOS0xLDAuOSYjMTA7JiM5OyYjOTtjLTcuNSw3LjMtMTMuMiw5LjktMTMuOSw5LjRjMCwwLTAuMS0wLjEtMC4xLTAuMkMzLDEzNi44LDUuNywxMzIsMTIsMTI1LjhjMS40LTEuNCwyLjktMi42LDQuMy0zLjdjMS4yLTAuOSwyLjQtMS44LDMuNS0yLjdsMS4zLTEmIzEwOyYjOTsmIzk7YzAuNi0wLjUsMS4zLTAuOSwxLjktMS41YzAuNC0wLjMsMC43LTAuOCwwLjgtMS4yYzAtMC4zLDAtMC42LTAuMi0wLjhjLTAuNS0wLjUtMS40LTAuNC0yLjEsMC4xYy0wLjUsMC40LTEuMSwwLjgtMS42LDEuMiYjMTA7JiM5OyYjOTtsLTAuMSwwLjFjLTYuNyw0LjktMTAuNyw1LjctMTEuMyw1YzAsMC0wLjEtMC4yLDAuMS0wLjhjMC45LTMsNS4yLTcsNy42LTkuMWM1LjEtNC40LDkuMy03LjEsMTIuOS04LjNjMC44LTAuMywxLjQtMC40LDEuOC0wLjQmIzEwOyYjOTsmIzk7YzAuOCwwLDEsMC4xLDEuMSwwLjJjMCwwLDAuMSwwLjEsMC4xLDAuM2MwLDAuNi0wLjgsMS44LTIsMi45Yy0wLjUsMC41LTEuMSwwLjktMS42LDEuMWMwLDAsMCwwLDAsMGMtMC4xLTAuMi0wLjMtMC4zLTAuOC0wLjQmIzEwOyYjOTsmIzk7Yy0wLjctMC4xLTEuNSwwLjQtMiwxLjFjLTAuMywwLjYtMC40LDEuMi0wLjEsMS42YzAuNCwwLjYsMS4xLDAuOCwxLjcsMC43YzEuNC0wLjEsMy0xLDQuNi0yLjRjMS45LTEuNywzLjItMy43LDMuNC01LjImIzEwOyYjOTsmIzk7YzAuMS0wLjgtMC4xLTEuNC0wLjYtMS45Yy0wLjYtMC42LTEuNy0wLjktMy0wLjhjLTAuOCwwLjEtMS43LDAuMi0yLjcsMC42Yy00LjIsMS4zLTksNC40LTE0LjYsOS4yYy0yLjgsMi40LTcuNyw3LjEtOC45LDExJiMxMDsmIzk7JiM5O2MtMC40LDEuMi0wLjIsMi4yLDAuMywyLjhjMC44LDEsMi4zLDEuMiw0LjMsMC43Yy00LjgsNC43LTEwLjMsMTEuNS0xMCwxNWMwLjEsMC43LDAuNCwxLjMsMC45LDEuNmMwLjQsMC4zLDAuOSwwLjQsMS41LDAuNCYjMTA7JiM5OyYjOTtjMC4yLDAsMC40LDAsMC42LDBoMGMzLjUtMC40LDkuOC00LjYsMTYuMS0xMC43YzAsMCwwLjQtMC4zLDAuOS0wLjhjMS40LTEuMyw0LjMtNC4xLDctNi43Yy0wLjQsMS0wLjgsMS44LTEuMSwyLjUmIzEwOyYjOTsmIzk7Yy0wLjIsMC40LTAuNCwwLjgtMC40LDEuMWMtMC4xLDAuNCwwLDAuNywwLjIsMC45YzAuMiwwLjIsMC41LDAuMywwLjksMC4zbDAuMiwwYzAuNy0wLjEsMS4zLTAuNiwxLjgtMS40YzAuMS0wLjIsMC4zLTAuNCwwLjQtMC43JiMxMDsmIzk7JiM5O2wwLjItMC40YzAuNi0xLDIuMi0zLjUsMy44LTUuNmMxLjEtMS40LDEuNy0yLjEsMi4xLTIuNWMtMC4xLDAuNS0wLjMsMS4xLTAuNSwxLjdsLTAuMiwwLjZjLTAuMiwwLjYtMC4zLDEuMi0wLjUsMS44JiMxMDsmIzk7JiM5O2MtMC4xLDAuNi0wLjMsMS4yLTAuMywxLjdjMCwwLjgsMC4xLDEuNCwwLjUsMS44YzAuMywwLjQsMC44LDAuNSwxLjQsMC41YzEuMSwwLDIuMy0wLjUsNC0xLjhjMC42LTAuNCwxLjMtMSwyLjEtMS43JiMxMDsmIzk7JiM5O2MwLjctMC42LDEuNS0xLjIsMi4yLTEuOWMwLDAsMC4xLTAuMSwwLjEtMC4xYy0wLjgsMS43LTEuMywzLjQtMC45LDQuNWMwLjIsMC41LDAuNSwwLjgsMSwxYzAuNywwLjIsMS41LDAuMiwyLjQtMC4yJiMxMDsmIzk7JiM5O2MxLjItMC42LDIuNC0xLjcsMy44LTMuNGMwLjUtMC43LDEuMS0xLjQsMS42LTIuMmMtMC4xLDAuMi0wLjIsMC41LTAuMywwLjdjLTAuMywwLjctMC41LDEuNC0wLjgsMi4xYy0wLjEsMC4zLTAuMywwLjctMC40LDEmIzEwOyYjOTsmIzk7Yy0wLjEsMC40LTAuMywwLjctMC40LDEuMWMtMi44LDIuOC01LjcsNS44LTguNiw5LjFjLTEuMSwxLjMtMi4yLDIuNS0zLjEsMy43bC0xMS43LDEuMWwtMC40LDB2Ny4ybC0xNS40LDEuNWw1LDExbC01LDEyLjEmIzEwOyYjOTsmIzk7bDI0LjItMi42di03TDE2MywxNDguM3Y3LjRsMjQtMi42bC0zLjUtMTEuM2wzLjUtMTEuOGwtMTUuMywxLjV2LTcuMmwtMy42LDAuM2MwLjItMC42LDAuMy0xLjIsMC41LTEuOGMxLTMuOSwxLjUtNy40LDEuNC0xMC4xJiMxMDsmIzk7JiM5O2MwLTAuOS0wLjEtMS43LTAuMi0yLjRjMi40LDAsNC42LTAuNSw2LjktMS42YzIuMS0xLDQuMS0yLjUsNi40LTQuNEMxODIuOSwxMDUuMywxODIuOSwxMDYuMywxODMuMSwxMDcuMnogTTE2NS4xLDEyNC45bC00LjIsMC40JiMxMDsmIzk7JiM5O2MwLjktMi44LDIuMS02LjEsMy42LTkuOWMwLjQtMSwwLjgtMS45LDEuMS0yLjhjMC4zLTAuNywwLjUtMS4zLDAuOC0xLjljMC44LDEuOCwwLjcsNi4yLTAuOCwxMi40JiMxMDsmIzk7JiM5O0MxNjUuNCwxMjMuNywxNjUuMywxMjQuMywxNjUuMSwxMjQuOXogTTE1OS4xLDEzNy45Yy0wLjIsMC4xLTAuMywwLjItMC40LDAuMmMtMC43LTAuNy0wLjUtNC4zLDEuOC0xMS43bDQuMi0wLjQmIzEwOyYjOTsmIzk7QzE2Mi44LDEzMi40LDE2MC4zLDEzNy4yLDE1OS4xLDEzNy45eiBNMTgxLjksODQuNmMwLDAsMCwwLjEsMCwwLjJjLTAuMiwxLjQtMi4yLDUuNC03LjQsMTIuMmMtMS4zLDEuNy0yLjgsMy41LTQuMiw1LjImIzEwOyYjOTsmIzk7YzMuNC02LjksNi43LTEyLjYsOS4yLTE1LjVDMTgxLjIsODQuOCwxODEuOSw4NC42LDE4MS45LDg0LjZ6IE0xNTAsMTExLjljMC4xLTAuOCwwLjctMi41LDIuNS01LjRsMCwwYzAuNS0wLjgsMC45LTEuNCwxLjMtMiYjMTA7JiM5OyYjOTtsMC4yLTAuMmMwLjEtMC4xLDAuMi0wLjMsMC4zLTAuNGMwLDAsMCwwLDAtMC4xYzAuMiwwLjIsMC40LDAuMywwLjcsMC4zYzAuMSwwLDAuMywwLDAuNCwwQzE1My43LDEwNy4xLDE1MS41LDExMC43LDE1MCwxMTEuOXomIzEwOyYjOTsmIzk7IE00NC41LDEzNy42Yy0zLjgsOC4yLTguMSwxNS41LTExLjUsMTcuNmMtMC43LDAuNC0xLjIsMC42LTEuNywwLjRsMCwwYy0wLjMtMC4xLTAuNC0wLjItMC40LTAuM2MtMC4xLTAuMi0wLjItMC42LDAtMS41JiMxMDsmIzk7JiM5O2MwLjctMy4yLDQuNi05LjIsMTAuMi0xNkw0NC41LDEzNy42eiBNNDEuOSwxMzYuOWMxLjgtMi4xLDMuNy00LjIsNS43LTYuNGMtMC44LDItMS43LDQuMS0yLjcsNi4xTDQxLjksMTM2Ljl6IE01MS43LDExMy40JiMxMDsmIzk7JiM5O2MwLDAuMiwwLjEsMC4zLDAuMiwwLjRjMC4xLDAuMSwwLjMsMC4zLDAuNywwLjRjLTAuNSwwLjYtMC45LDEuMy0xLjUsMi4yYy0xLjMsMS45LTMuNSw1LjItNC44LDYuMmMwLjEtMC43LDAuNi0yLjMsMi4zLTUmIzEwOyYjOTsmIzk7QzQ5LjgsMTE1LjQsNTAuOSwxMTQuMSw1MS43LDExMy40eiBNMzIuNCwxNjFsMS42LDEuMnYwLjVsLTIuMi0xLjdMMzIuNCwxNjF6IE0zMSwxNjEuMWwyLjksMi4zdjAuNmwtMy42LTIuOEwzMSwxNjEuMXomIzEwOyYjOTsmIzk7IE0yOS42LDE2MS4ybDQuMywzLjR2MC42bC01LTMuOUwyOS42LDE2MS4yeiBNMjguMiwxNjEuNGw1LjcsNC40djAuNWwtNi4zLTQuOUwyOC4yLDE2MS40eiBNMTYuOSwxNTguMkwxMi4zLDE0OGwxMy45LTEuNHYxNC45JiMxMDsmIzk7JiM5O2wwLDBsMCwwbDYuOSw1LjRsLTIwLjgsMi4yTDE2LjksMTU4LjJ6IE0zMy45LDE2MS41bC0wLjgtMC42bDAuOC0wLjFWMTYxLjV6IE0xNjQuNywxNDguMWwtMC43LDAuN3YtMC42TDE2NC43LDE0OC4xeiBNMTY0LDE1My40JiMxMDsmIzk7JiM5O2w1LjctNS44bDAuNSwwbC02LjIsNi40VjE1My40eiBNMTY0LDE1Mi43di0wLjZsNC4zLTQuM2wwLjctMC4xTDE2NCwxNTIuN3ogTTE2NCwxNTEuNHYtMC42bDIuOS0yLjlsMC42LTAuMUwxNjQsMTUxLjR6JiMxMDsmIzk7JiM5OyBNMTY0LDE1MC4xdi0wLjZsMS40LTEuNWwwLjctMC4xTDE2NCwxNTAuMXogTTE4NS43LDEzMS4xbC0zLjIsMTAuN2wzLjIsMTAuNGwtMjAuOSwyLjNsNi45LTcuMWwwLDB2LTE0LjlMMTg1LjcsMTMxLjF6JiMxMDsmIzk7JiM5OyBNMTcwLjgsMTI1LjR2MjEuMWwtMTQzLjYsMTR2LTIxLjFsMTAuMi0xYy01LjUsNi45LTksMTIuNS05LjcsMTUuOWMtMC4zLDEuMy0wLjIsMi40LDAuMywzLjFjMC40LDAuNiwxLDEsMS44LDEuMSYjMTA7JiM5OyYjOTtjMC4zLDAuMSwwLjYsMC4xLDEsMC4xYzAuMiwwLDAuMywwLDAuNSwwYzAuOS0wLjEsMS45LTAuNSwyLjktMS4xYzQuOS0zLDkuOS0xMi4yLDEzLjYtMjAuMmwxMDkuOC0xMC43Yy0xLjgsNi0zLDExLjktMS4zLDEzLjYmIzEwOyYjOTsmIzk7YzAuNCwwLjQsMSwwLjYsMS42LDAuNmMwLjEsMCwwLjIsMCwwLjMsMGMwLjYtMC4xLDEuMy0wLjMsMi0wLjdjMy0xLjcsNS45LTguMSw3LjgtMTQuNUwxNzAuOCwxMjUuNHoiIGNsYXNzPSJzdDAiLz4mI3hhOzwvZz4mI3hhOzwvc3ZnPg==;" parent="1" vertex="1">
                    <mxGeometry x="450" y="159.25" width="53.53" height="45.5" as="geometry"/>
                </mxCell>
                <mxCell id="b9YFm3cifNt7pc6ETkbJ-34" value="&lt;span&gt;Language&lt;/span&gt;" style="text;html=1;align=center;verticalAlign=middle;whiteSpace=wrap;rounded=0;fontSize=20;fontStyle=0" parent="1" vertex="1">
                    <mxGeometry x="1200" y="140" width="140" height="30" as="geometry"/>
                </mxCell>
                <mxCell id="4bEHPRB5DnhDI-j8BFeG-1" value="" style="rounded=0;whiteSpace=wrap;html=1;aspect=fixed;strokeColor=#999999;" parent="1" vertex="1">
                    <mxGeometry x="1880" y="120" width="1280" height="720" as="geometry"/>
                </mxCell>
                <mxCell id="4bEHPRB5DnhDI-j8BFeG-2" value="望郷 太郎" style="rounded=1;whiteSpace=wrap;html=1;strokeColor=#CCCCCC;fillColor=none;align=left;spacingLeft=10;fontColor=#CCCCCC;" parent="1" vertex="1">
                    <mxGeometry x="2365" y="250.5" width="310" height="40" as="geometry"/>
                </mxCell>
                <mxCell id="4bEHPRB5DnhDI-j8BFeG-3" value="次へ" style="html=1;shadow=0;dashed=0;shape=mxgraph.bootstrap.rrect;rSize=5;strokeColor=none;strokeWidth=1;fillColor=#422AD5;fontColor=#FFFFFF;whiteSpace=wrap;align=center;verticalAlign=middle;spacingLeft=0;fontStyle=0;fontSize=16;spacing=5;" parent="1" vertex="1">
                    <mxGeometry x="2570" y="764" width="105" height="40" as="geometry"/>
                </mxCell>
                <mxCell id="4bEHPRB5DnhDI-j8BFeG-8" value="氏名" style="text;html=1;align=left;verticalAlign=middle;whiteSpace=wrap;rounded=0;fontSize=12;spacingLeft=0;spacing=2;fillColor=default;fontStyle=1" parent="1" vertex="1">
                    <mxGeometry x="2365" y="231.5" width="50" height="15" as="geometry"/>
                </mxCell>
                <mxCell id="4bEHPRB5DnhDI-j8BFeG-13" value="&lt;b&gt;&lt;font style=&quot;font-size: 18px;&quot;&gt;基本情報&lt;/font&gt;&lt;/b&gt;&lt;div&gt;&lt;font style=&quot;font-size: 16px; color: rgb(128, 128, 128);&quot;&gt;/registration&lt;/font&gt;&lt;/div&gt;" style="rounded=1;whiteSpace=wrap;html=1;fillColor=#f5f5f5;fontColor=#333333;strokeColor=none;" parent="1" vertex="1">
                    <mxGeometry x="1880" y="50" width="250" height="60" as="geometry"/>
                </mxCell>
                <mxCell id="4bEHPRB5DnhDI-j8BFeG-19" value="" style="rounded=0;whiteSpace=wrap;html=1;strokeColor=none;fillColor=#E6E6E6;" parent="1" vertex="1">
                    <mxGeometry x="2324" y="160" width="100" height="10" as="geometry"/>
                </mxCell>
                <mxCell id="4bEHPRB5DnhDI-j8BFeG-20" value="基本情報" style="text;html=1;align=center;verticalAlign=middle;whiteSpace=wrap;rounded=0;fontStyle=0;fontSize=10;" parent="1" vertex="1">
                    <mxGeometry x="2293.5" y="180" width="67" height="30" as="geometry"/>
                </mxCell>
                <mxCell id="4bEHPRB5DnhDI-j8BFeG-22" value="連絡先・所属" style="text;html=1;align=center;verticalAlign=middle;whiteSpace=wrap;rounded=0;fontStyle=0;fontSize=10;" parent="1" vertex="1">
                    <mxGeometry x="2376.5" y="180" width="85" height="30" as="geometry"/>
                </mxCell>
                <mxCell id="4bEHPRB5DnhDI-j8BFeG-25" value="登録完了" style="text;html=1;align=center;verticalAlign=middle;whiteSpace=wrap;rounded=0;fontStyle=0;fontSize=10;" parent="1" vertex="1">
                    <mxGeometry x="2674" y="180" width="60" height="30" as="geometry"/>
                </mxCell>
                <mxCell id="4bEHPRB5DnhDI-j8BFeG-26" value="アンケート" style="text;html=1;align=center;verticalAlign=middle;whiteSpace=wrap;rounded=0;fontStyle=0;fontSize=10;" parent="1" vertex="1">
                    <mxGeometry x="2476.5" y="180" width="75" height="30" as="geometry"/>
                </mxCell>
                <mxCell id="4bEHPRB5DnhDI-j8BFeG-31" value="ぼうきょう たろう" style="rounded=1;whiteSpace=wrap;html=1;strokeColor=#CCCCCC;fillColor=none;align=left;spacingLeft=10;fontColor=#CCCCCC;" parent="1" vertex="1">
                    <mxGeometry x="2365" y="323.5" width="310" height="40" as="geometry"/>
                </mxCell>
                <mxCell id="4bEHPRB5DnhDI-j8BFeG-32" value="氏名（ふりがな）" style="text;html=1;align=left;verticalAlign=middle;whiteSpace=wrap;rounded=0;fontSize=12;spacingLeft=0;spacing=2;fillColor=default;fontStyle=1" parent="1" vertex="1">
                    <mxGeometry x="2365" y="304.5" width="100" height="15" as="geometry"/>
                </mxCell>
                <mxCell id="4bEHPRB5DnhDI-j8BFeG-33" value="" style="rounded=1;whiteSpace=wrap;html=1;strokeColor=#CCCCCC;fillColor=none;align=left;spacingLeft=10;fontColor=#CCCCCC;" parent="1" vertex="1">
                    <mxGeometry x="2365" y="422.5" width="160" height="40" as="geometry"/>
                </mxCell>
                <mxCell id="4bEHPRB5DnhDI-j8BFeG-34" value="郵便番号" style="text;html=1;align=left;verticalAlign=middle;whiteSpace=wrap;rounded=0;fontSize=12;spacingLeft=0;spacing=2;fillColor=default;fontStyle=1" parent="1" vertex="1">
                    <mxGeometry x="2365" y="382.5" width="50" height="15" as="geometry"/>
                </mxCell>
                <mxCell id="4bEHPRB5DnhDI-j8BFeG-35" value="" style="rounded=1;whiteSpace=wrap;html=1;strokeColor=#CCCCCC;fillColor=none;align=left;spacingLeft=10;fontColor=#CCCCCC;" parent="1" vertex="1">
                    <mxGeometry x="2365" y="495.5" width="160" height="40" as="geometry"/>
                </mxCell>
                <mxCell id="4bEHPRB5DnhDI-j8BFeG-36" value="都道府県" style="text;html=1;align=left;verticalAlign=middle;whiteSpace=wrap;rounded=0;fontSize=12;spacingLeft=0;spacing=2;fillColor=default;fontStyle=1" parent="1" vertex="1">
                    <mxGeometry x="2365" y="476.5" width="50" height="15" as="geometry"/>
                </mxCell>
                <mxCell id="4bEHPRB5DnhDI-j8BFeG-37" value="" style="triangle;whiteSpace=wrap;html=1;rotation=90;strokeColor=none;fillColor=#000000;" parent="1" vertex="1">
                    <mxGeometry x="2505" y="510.5" width="5" height="10" as="geometry"/>
                </mxCell>
                <mxCell id="4bEHPRB5DnhDI-j8BFeG-40" value="" style="rounded=1;whiteSpace=wrap;html=1;strokeColor=#CCCCCC;fillColor=none;align=left;spacingLeft=10;fontColor=#CCCCCC;" parent="1" vertex="1">
                    <mxGeometry x="2365" y="567.5" width="310" height="40" as="geometry"/>
                </mxCell>
                <mxCell id="4bEHPRB5DnhDI-j8BFeG-41" value="市区町村" style="text;html=1;align=left;verticalAlign=middle;whiteSpace=wrap;rounded=0;fontSize=12;spacingLeft=0;spacing=2;fillColor=default;fontStyle=1" parent="1" vertex="1">
                    <mxGeometry x="2365" y="548.5" width="50" height="15" as="geometry"/>
                </mxCell>
                <mxCell id="4bEHPRB5DnhDI-j8BFeG-42" value="" style="rounded=1;whiteSpace=wrap;html=1;strokeColor=#CCCCCC;fillColor=none;align=left;spacingLeft=10;fontColor=#CCCCCC;" parent="1" vertex="1">
                    <mxGeometry x="2365" y="637.5" width="310" height="40" as="geometry"/>
                </mxCell>
                <mxCell id="4bEHPRB5DnhDI-j8BFeG-43" value="丁目" style="text;html=1;align=left;verticalAlign=middle;whiteSpace=wrap;rounded=0;fontSize=12;spacingLeft=0;spacing=2;fillColor=default;fontStyle=1" parent="1" vertex="1">
                    <mxGeometry x="2365" y="618.5" width="50" height="15" as="geometry"/>
                </mxCell>
                <mxCell id="4bEHPRB5DnhDI-j8BFeG-44" value="戻る" style="html=1;shadow=0;dashed=0;shape=mxgraph.bootstrap.rrect;rSize=5;strokeColor=none;strokeWidth=1;fillColor=#B3B3B3;fontColor=#000000;whiteSpace=wrap;align=center;verticalAlign=middle;spacingLeft=0;fontStyle=0;fontSize=16;spacing=5;" parent="1" vertex="1">
                    <mxGeometry x="2365" y="764" width="105" height="40" as="geometry"/>
                </mxCell>
                <mxCell id="4bEHPRB5DnhDI-j8BFeG-47" value="" style="rounded=0;whiteSpace=wrap;html=1;strokeColor=none;fillColor=#E6E6E6;" parent="1" vertex="1">
                    <mxGeometry x="2416.5" y="160" width="100" height="10" as="geometry"/>
                </mxCell>
                <mxCell id="4bEHPRB5DnhDI-j8BFeG-21" value="&lt;b&gt;2&lt;/b&gt;" style="ellipse;whiteSpace=wrap;html=1;aspect=fixed;strokeColor=none;fillColor=#E6E6E6;fontColor=#000000;" parent="1" vertex="1">
                    <mxGeometry x="2404" y="150" width="30" height="30" as="geometry"/>
                </mxCell>
                <mxCell id="4bEHPRB5DnhDI-j8BFeG-48" value="" style="rounded=0;whiteSpace=wrap;html=1;strokeColor=none;fillColor=#E6E6E6;" parent="1" vertex="1">
                    <mxGeometry x="2509" y="160" width="100" height="10" as="geometry"/>
                </mxCell>
                <mxCell id="4bEHPRB5DnhDI-j8BFeG-23" value="&lt;b&gt;3&lt;/b&gt;" style="ellipse;whiteSpace=wrap;html=1;aspect=fixed;strokeColor=none;fillColor=#E6E6E6;fontColor=#000000;" parent="1" vertex="1">
                    <mxGeometry x="2499" y="150" width="30" height="30" as="geometry"/>
                </mxCell>
                <mxCell id="4bEHPRB5DnhDI-j8BFeG-49" value="" style="rounded=0;whiteSpace=wrap;html=1;strokeColor=none;fillColor=#E6E6E6;" parent="1" vertex="1">
                    <mxGeometry x="2604" y="160" width="100" height="10" as="geometry"/>
                </mxCell>
                <mxCell id="4bEHPRB5DnhDI-j8BFeG-45" value="&lt;b&gt;4&lt;/b&gt;" style="ellipse;whiteSpace=wrap;html=1;aspect=fixed;strokeColor=none;fillColor=#E6E6E6;fontColor=#000000;" parent="1" vertex="1">
                    <mxGeometry x="2594" y="150" width="30" height="30" as="geometry"/>
                </mxCell>
                <mxCell id="4bEHPRB5DnhDI-j8BFeG-24" value="&lt;b&gt;5&lt;/b&gt;" style="ellipse;whiteSpace=wrap;html=1;aspect=fixed;strokeColor=none;fillColor=#E6E6E6;fontColor=#000000;" parent="1" vertex="1">
                    <mxGeometry x="2689" y="150" width="30" height="30" as="geometry"/>
                </mxCell>
                <mxCell id="4bEHPRB5DnhDI-j8BFeG-50" value="確認" style="text;html=1;align=center;verticalAlign=middle;whiteSpace=wrap;rounded=0;fontStyle=0;fontSize=10;" parent="1" vertex="1">
                    <mxGeometry x="2571.5" y="180" width="75" height="30" as="geometry"/>
                </mxCell>
                <mxCell id="4bEHPRB5DnhDI-j8BFeG-51" value="半角7桁入力次第&lt;div&gt;住所取得、自動入力&lt;/div&gt;&lt;div&gt;（zipcloudを使用）&lt;/div&gt;" style="shape=note;strokeWidth=2;fontSize=14;size=20;whiteSpace=wrap;html=1;fillColor=#f5f5f5;strokeColor=#999999;fontColor=#333333;align=left;spacing=10;shadow=1;" parent="1" vertex="1">
                    <mxGeometry x="3211" y="350" width="169" height="70" as="geometry"/>
                </mxCell>
                <mxCell id="4bEHPRB5DnhDI-j8BFeG-52" style="rounded=1;orthogonalLoop=1;jettySize=auto;html=1;entryX=1;entryY=0.5;entryDx=0;entryDy=0;exitX=0;exitY=0.5;exitDx=0;exitDy=0;exitPerimeter=0;endArrow=oval;endFill=1;shadow=1;strokeColor=#4D4D4D;strokeWidth=1;edgeStyle=orthogonalEdgeStyle;jumpStyle=none;jumpSize=6;startSize=6;endSize=8;curved=0;" parent="1" source="4bEHPRB5DnhDI-j8BFeG-51" target="4bEHPRB5DnhDI-j8BFeG-33" edge="1">
                    <mxGeometry relative="1" as="geometry">
                        <mxPoint x="2810" y="489" as="targetPoint"/>
                    </mxGeometry>
                </mxCell>
                <mxCell id="4bEHPRB5DnhDI-j8BFeG-53" value="prefecturesから選択" style="shape=note;strokeWidth=2;fontSize=14;size=20;whiteSpace=wrap;html=1;fillColor=#f5f5f5;strokeColor=#999999;fontColor=#333333;align=left;spacing=10;shadow=1;" parent="1" vertex="1">
                    <mxGeometry x="3211" y="513" width="169" height="70" as="geometry"/>
                </mxCell>
                <mxCell id="4bEHPRB5DnhDI-j8BFeG-54" style="rounded=1;orthogonalLoop=1;jettySize=auto;html=1;entryX=1;entryY=0.5;entryDx=0;entryDy=0;exitX=0;exitY=0.5;exitDx=0;exitDy=0;exitPerimeter=0;endArrow=oval;endFill=1;shadow=1;strokeColor=#4D4D4D;strokeWidth=1;edgeStyle=orthogonalEdgeStyle;jumpStyle=none;jumpSize=6;startSize=6;endSize=8;curved=0;" parent="1" source="4bEHPRB5DnhDI-j8BFeG-53" target="4bEHPRB5DnhDI-j8BFeG-35" edge="1">
                    <mxGeometry relative="1" as="geometry">
                        <mxPoint x="2525" y="524" as="targetPoint"/>
                        <Array as="points">
                            <mxPoint x="2870" y="548"/>
                            <mxPoint x="2870" y="516"/>
                        </Array>
                    </mxGeometry>
                </mxCell>
                <mxCell id="_T3psCKW3RF578xt2ag6-1" value="" style="rounded=0;whiteSpace=wrap;html=1;aspect=fixed;strokeColor=#999999;" parent="1" vertex="1">
                    <mxGeometry x="3680" y="120" width="1280" height="720" as="geometry"/>
                </mxCell>
                <mxCell id="_T3psCKW3RF578xt2ag6-2" value="" style="rounded=1;whiteSpace=wrap;html=1;strokeColor=#CCCCCC;fillColor=none;align=left;spacingLeft=10;fontColor=#CCCCCC;" parent="1" vertex="1">
                    <mxGeometry x="4165" y="275" width="185" height="40" as="geometry"/>
                </mxCell>
                <mxCell id="_T3psCKW3RF578xt2ag6-3" value="次へ" style="html=1;shadow=0;dashed=0;shape=mxgraph.bootstrap.rrect;rSize=5;strokeColor=none;strokeWidth=1;fillColor=#422AD5;fontColor=#FFFFFF;whiteSpace=wrap;align=center;verticalAlign=middle;spacingLeft=0;fontStyle=0;fontSize=16;spacing=5;" parent="1" vertex="1">
                    <mxGeometry x="4370" y="764" width="105" height="40" as="geometry"/>
                </mxCell>
                <mxCell id="_T3psCKW3RF578xt2ag6-4" value="電話番号" style="text;html=1;align=left;verticalAlign=middle;whiteSpace=wrap;rounded=0;fontSize=12;spacingLeft=0;spacing=2;fillColor=default;fontStyle=1" parent="1" vertex="1">
                    <mxGeometry x="4165" y="236" width="50" height="15" as="geometry"/>
                </mxCell>
                <mxCell id="_T3psCKW3RF578xt2ag6-5" value="&lt;b&gt;&lt;font style=&quot;font-size: 18px;&quot;&gt;連絡先・所属&lt;/font&gt;&lt;/b&gt;&lt;div&gt;&lt;font style=&quot;font-size: 16px; color: rgb(128, 128, 128);&quot;&gt;/registration&lt;/font&gt;&lt;/div&gt;" style="rounded=1;whiteSpace=wrap;html=1;fillColor=#f5f5f5;fontColor=#333333;strokeColor=none;" parent="1" vertex="1">
                    <mxGeometry x="3680" y="50" width="250" height="60" as="geometry"/>
                </mxCell>
                <mxCell id="_T3psCKW3RF578xt2ag6-7" value="" style="rounded=0;whiteSpace=wrap;html=1;strokeColor=none;fillColor=#422AD5;" parent="1" vertex="1">
                    <mxGeometry x="4124" y="160" width="100" height="10" as="geometry"/>
                </mxCell>
                <mxCell id="_T3psCKW3RF578xt2ag6-9" value="基本情報" style="text;html=1;align=center;verticalAlign=middle;whiteSpace=wrap;rounded=0;fontStyle=0;fontSize=10;" parent="1" vertex="1">
                    <mxGeometry x="4093.5" y="180" width="67" height="30" as="geometry"/>
                </mxCell>
                <mxCell id="_T3psCKW3RF578xt2ag6-10" value="連絡先・所属" style="text;html=1;align=center;verticalAlign=middle;whiteSpace=wrap;rounded=0;fontStyle=0;fontSize=10;" parent="1" vertex="1">
                    <mxGeometry x="4176.5" y="180" width="85" height="30" as="geometry"/>
                </mxCell>
                <mxCell id="_T3psCKW3RF578xt2ag6-11" value="登録完了" style="text;html=1;align=center;verticalAlign=middle;whiteSpace=wrap;rounded=0;fontStyle=0;fontSize=10;" parent="1" vertex="1">
                    <mxGeometry x="4474" y="180" width="60" height="30" as="geometry"/>
                </mxCell>
                <mxCell id="_T3psCKW3RF578xt2ag6-12" value="アンケート" style="text;html=1;align=center;verticalAlign=middle;whiteSpace=wrap;rounded=0;fontStyle=0;fontSize=10;" parent="1" vertex="1">
                    <mxGeometry x="4276.5" y="180" width="75" height="30" as="geometry"/>
                </mxCell>
                <mxCell id="_T3psCKW3RF578xt2ag6-13" value="" style="rounded=1;whiteSpace=wrap;html=1;strokeColor=#CCCCCC;fillColor=none;align=left;spacingLeft=10;fontColor=#CCCCCC;" parent="1" vertex="1">
                    <mxGeometry x="4164" y="349" width="310" height="40" as="geometry"/>
                </mxCell>
                <mxCell id="_T3psCKW3RF578xt2ag6-14" value="メールアドレス" style="text;html=1;align=left;verticalAlign=middle;whiteSpace=wrap;rounded=0;fontSize=12;spacingLeft=0;spacing=2;fillColor=default;fontStyle=1" parent="1" vertex="1">
                    <mxGeometry x="4164" y="330" width="100" height="15" as="geometry"/>
                </mxCell>
                <mxCell id="_T3psCKW3RF578xt2ag6-16" value="所属" style="text;html=1;align=left;verticalAlign=middle;whiteSpace=wrap;rounded=0;fontSize=12;spacingLeft=0;spacing=2;fillColor=default;fontStyle=1" parent="1" vertex="1">
                    <mxGeometry x="4165" y="409" width="50" height="15" as="geometry"/>
                </mxCell>
                <mxCell id="_T3psCKW3RF578xt2ag6-22" value="" style="rounded=1;whiteSpace=wrap;html=1;strokeColor=#CCCCCC;fillColor=none;align=left;spacingLeft=10;fontColor=#CCCCCC;" parent="1" vertex="1">
                    <mxGeometry x="4165" y="588" width="310" height="40" as="geometry"/>
                </mxCell>
                <mxCell id="_T3psCKW3RF578xt2ag6-23" value="所属詳細" style="text;html=1;align=left;verticalAlign=middle;whiteSpace=wrap;rounded=0;fontSize=12;spacingLeft=0;spacing=2;fillColor=default;fontStyle=1" parent="1" vertex="1">
                    <mxGeometry x="4165" y="547" width="50" height="15" as="geometry"/>
                </mxCell>
                <mxCell id="_T3psCKW3RF578xt2ag6-24" value="戻る" style="html=1;shadow=0;dashed=0;shape=mxgraph.bootstrap.rrect;rSize=5;strokeColor=none;strokeWidth=1;fillColor=#B3B3B3;fontColor=#000000;whiteSpace=wrap;align=center;verticalAlign=middle;spacingLeft=0;fontStyle=0;fontSize=16;spacing=5;" parent="1" vertex="1">
                    <mxGeometry x="4165" y="764" width="105" height="40" as="geometry"/>
                </mxCell>
                <mxCell id="_T3psCKW3RF578xt2ag6-25" value="" style="rounded=0;whiteSpace=wrap;html=1;strokeColor=none;fillColor=#E6E6E6;" parent="1" vertex="1">
                    <mxGeometry x="4216.5" y="160" width="100" height="10" as="geometry"/>
                </mxCell>
                <mxCell id="_T3psCKW3RF578xt2ag6-26" value="&lt;b&gt;&lt;font style=&quot;color: rgb(255, 255, 255);&quot;&gt;2&lt;/font&gt;&lt;/b&gt;" style="ellipse;whiteSpace=wrap;html=1;aspect=fixed;strokeColor=none;fillColor=#422AD5;fontColor=#FFFFFF;" parent="1" vertex="1">
                    <mxGeometry x="4204" y="150" width="30" height="30" as="geometry"/>
                </mxCell>
                <mxCell id="_T3psCKW3RF578xt2ag6-27" value="" style="rounded=0;whiteSpace=wrap;html=1;strokeColor=none;fillColor=#E6E6E6;" parent="1" vertex="1">
                    <mxGeometry x="4309" y="160" width="100" height="10" as="geometry"/>
                </mxCell>
                <mxCell id="_T3psCKW3RF578xt2ag6-28" value="&lt;b&gt;3&lt;/b&gt;" style="ellipse;whiteSpace=wrap;html=1;aspect=fixed;strokeColor=none;fillColor=#E6E6E6;fontColor=#000000;" parent="1" vertex="1">
                    <mxGeometry x="4299" y="150" width="30" height="30" as="geometry"/>
                </mxCell>
                <mxCell id="_T3psCKW3RF578xt2ag6-29" value="" style="rounded=0;whiteSpace=wrap;html=1;strokeColor=none;fillColor=#E6E6E6;" parent="1" vertex="1">
                    <mxGeometry x="4404" y="160" width="100" height="10" as="geometry"/>
                </mxCell>
                <mxCell id="_T3psCKW3RF578xt2ag6-30" value="&lt;b&gt;4&lt;/b&gt;" style="ellipse;whiteSpace=wrap;html=1;aspect=fixed;strokeColor=none;fillColor=#E6E6E6;fontColor=#000000;" parent="1" vertex="1">
                    <mxGeometry x="4394" y="150" width="30" height="30" as="geometry"/>
                </mxCell>
                <mxCell id="_T3psCKW3RF578xt2ag6-31" value="&lt;b&gt;5&lt;/b&gt;" style="ellipse;whiteSpace=wrap;html=1;aspect=fixed;strokeColor=none;fillColor=#E6E6E6;fontColor=#000000;" parent="1" vertex="1">
                    <mxGeometry x="4489" y="150" width="30" height="30" as="geometry"/>
                </mxCell>
                <mxCell id="_T3psCKW3RF578xt2ag6-32" value="確認" style="text;html=1;align=center;verticalAlign=middle;whiteSpace=wrap;rounded=0;fontStyle=0;fontSize=10;" parent="1" vertex="1">
                    <mxGeometry x="4371.5" y="180" width="75" height="30" as="geometry"/>
                </mxCell>
                <mxCell id="_T3psCKW3RF578xt2ag6-33" value="ハイフンなし" style="text;html=1;align=left;verticalAlign=middle;whiteSpace=wrap;rounded=0;fontSize=12;spacingLeft=0;spacing=2;fillColor=default;fontStyle=0;fontColor=#808080;" parent="1" vertex="1">
                    <mxGeometry x="4165" y="255" width="75" height="15" as="geometry"/>
                </mxCell>
                <mxCell id="_T3psCKW3RF578xt2ag6-35" value="※必須" style="text;html=1;align=left;verticalAlign=middle;whiteSpace=wrap;rounded=0;fontSize=9;spacingLeft=0;spacing=2;fillColor=default;fontStyle=0;fontColor=#FF0000;" parent="1" vertex="1">
                    <mxGeometry x="4224" y="236" width="30.5" height="15" as="geometry"/>
                </mxCell>
                <mxCell id="_T3psCKW3RF578xt2ag6-37" value="デフォルトテキスト" style="rounded=1;whiteSpace=wrap;html=1;strokeColor=#FF0000;fillColor=none;align=left;spacingLeft=10;fontColor=#CCCCCC;" parent="1" vertex="1">
                    <mxGeometry x="2199.5" y="974" width="310" height="40" as="geometry"/>
                </mxCell>
                <mxCell id="_T3psCKW3RF578xt2ag6-38" value="ラベル" style="text;html=1;align=left;verticalAlign=middle;whiteSpace=wrap;rounded=0;fontSize=12;spacingLeft=0;spacing=2;fillColor=default;fontStyle=1" parent="1" vertex="1">
                    <mxGeometry x="2199.5" y="937" width="50" height="15" as="geometry"/>
                </mxCell>
                <mxCell id="_T3psCKW3RF578xt2ag6-40" value="*エラーテキスト" style="text;html=1;align=left;verticalAlign=middle;whiteSpace=wrap;rounded=0;fontSize=12;spacingLeft=0;spacing=2;fillColor=default;fontStyle=0;fontColor=#FF0000;" parent="1" vertex="1">
                    <mxGeometry x="2199.5" y="1022" width="100" height="15" as="geometry"/>
                </mxCell>
                <mxCell id="_T3psCKW3RF578xt2ag6-41" value="サポートテキスト" style="text;html=1;align=left;verticalAlign=middle;whiteSpace=wrap;rounded=0;fontSize=12;spacingLeft=0;spacing=2;fillColor=default;fontStyle=0;fontColor=#808080;" parent="1" vertex="1">
                    <mxGeometry x="2199.5" y="954" width="100" height="15" as="geometry"/>
                </mxCell>
                <mxCell id="_T3psCKW3RF578xt2ag6-42" value="※必須" style="text;html=1;align=left;verticalAlign=middle;whiteSpace=wrap;rounded=0;fontSize=9;spacingLeft=0;spacing=2;fillColor=default;fontStyle=0;fontColor=#FF0000;" parent="1" vertex="1">
                    <mxGeometry x="2244" y="937" width="30.5" height="15" as="geometry"/>
                </mxCell>
                <mxCell id="_T3psCKW3RF578xt2ag6-46" value="※必須" style="text;html=1;align=left;verticalAlign=middle;whiteSpace=wrap;rounded=0;fontSize=9;spacingLeft=0;spacing=2;fillColor=default;fontStyle=0;fontColor=#FF0000;" parent="1" vertex="1">
                    <mxGeometry x="4254.5" y="330" width="30.5" height="15" as="geometry"/>
                </mxCell>
                <mxCell id="_T3psCKW3RF578xt2ag6-47" value="個人" style="html=1;shadow=0;dashed=0;shape=mxgraph.bootstrap.radioButton2;labelPosition=right;verticalLabelPosition=middle;align=left;verticalAlign=middle;gradientColor=#DEDEDE;fillColor=#EDEDED;checked=1;spacing=5;checkedFill=#422AD5;checkedStroke=#ffffff;sketch=0;" parent="1" vertex="1">
                    <mxGeometry x="4176.5" y="437" width="10" height="10" as="geometry"/>
                </mxCell>
                <mxCell id="_T3psCKW3RF578xt2ag6-48" value="コミュニティー" style="html=1;shadow=0;dashed=0;shape=mxgraph.bootstrap.radioButton2;labelPosition=right;verticalLabelPosition=middle;align=left;verticalAlign=middle;gradientColor=#DEDEDE;fillColor=#EDEDED;checked=0;spacing=5;checkedFill=#0085FC;checkedStroke=#ffffff;sketch=0;" parent="1" vertex="1">
                    <mxGeometry x="4176.5" y="458" width="10" height="10" as="geometry"/>
                </mxCell>
                <mxCell id="_T3psCKW3RF578xt2ag6-50" value="法人" style="html=1;shadow=0;dashed=0;shape=mxgraph.bootstrap.radioButton2;labelPosition=right;verticalLabelPosition=middle;align=left;verticalAlign=middle;gradientColor=#DEDEDE;fillColor=#EDEDED;checked=0;spacing=5;checkedFill=#0085FC;checkedStroke=#ffffff;sketch=0;" parent="1" vertex="1">
                    <mxGeometry x="4176.5" y="484" width="10" height="10" as="geometry"/>
                </mxCell>
                <mxCell id="_T3psCKW3RF578xt2ag6-51" value="" style="html=1;shadow=0;dashed=0;shape=mxgraph.bootstrap.radioButton2;labelPosition=right;verticalLabelPosition=middle;align=left;verticalAlign=middle;gradientColor=#DEDEDE;fillColor=#EDEDED;checked=0;spacing=5;checkedFill=#0085FC;checkedStroke=#ffffff;sketch=0;" parent="1" vertex="1">
                    <mxGeometry x="4176.5" y="509" width="10" height="10" as="geometry"/>
                </mxCell>
                <mxCell id="V6eRgOUS85zWo4gEC153-1" value="&lt;div&gt;フォームバリデーションは、&lt;/div&gt;react-hook-form、zodで作成" style="shape=note;strokeWidth=2;fontSize=14;size=20;whiteSpace=wrap;html=1;fillColor=#f5f5f5;strokeColor=#999999;fontColor=#333333;align=left;spacing=10;shadow=1;" parent="1" vertex="1">
                    <mxGeometry x="1880" y="880" width="220" height="70" as="geometry"/>
                </mxCell>
                <mxCell id="V6eRgOUS85zWo4gEC153-2" value="※必須" style="text;html=1;align=left;verticalAlign=middle;whiteSpace=wrap;rounded=0;fontSize=9;spacingLeft=0;spacing=2;fillColor=default;fontStyle=0;fontColor=#FF0000;" parent="1" vertex="1">
                    <mxGeometry x="4198.75" y="409" width="30.5" height="15" as="geometry"/>
                </mxCell>
                <mxCell id="V6eRgOUS85zWo4gEC153-3" value="その他" style="rounded=1;whiteSpace=wrap;html=1;strokeColor=#CCCCCC;fillColor=none;align=left;spacingLeft=10;fontColor=#CCCCCC;" parent="1" vertex="1">
                    <mxGeometry x="4194" y="502" width="146" height="24" as="geometry"/>
                </mxCell>
                <mxCell id="V6eRgOUS85zWo4gEC153-4" value="コミュニティー名や企業名" style="text;html=1;align=left;verticalAlign=middle;whiteSpace=wrap;rounded=0;fontSize=12;spacingLeft=0;spacing=2;fillColor=default;fontStyle=0;fontColor=#808080;" parent="1" vertex="1">
                    <mxGeometry x="4165" y="566" width="145" height="15" as="geometry"/>
                </mxCell>
                <mxCell id="V6eRgOUS85zWo4gEC153-5" value="" style="rounded=0;whiteSpace=wrap;html=1;aspect=fixed;strokeColor=#999999;" parent="1" vertex="1">
                    <mxGeometry x="5480" y="120" width="1280" height="720" as="geometry"/>
                </mxCell>
                <mxCell id="V6eRgOUS85zWo4gEC153-7" value="次へ" style="html=1;shadow=0;dashed=0;shape=mxgraph.bootstrap.rrect;rSize=5;strokeColor=none;strokeWidth=1;fillColor=#422AD5;fontColor=#FFFFFF;whiteSpace=wrap;align=center;verticalAlign=middle;spacingLeft=0;fontStyle=0;fontSize=16;spacing=5;" parent="1" vertex="1">
                    <mxGeometry x="6170" y="764" width="105" height="40" as="geometry"/>
                </mxCell>
                <mxCell id="V6eRgOUS85zWo4gEC153-8" value="職種" style="text;html=1;align=left;verticalAlign=middle;whiteSpace=wrap;rounded=0;fontSize=12;spacingLeft=0;spacing=2;fillColor=default;fontStyle=1" parent="1" vertex="1">
                    <mxGeometry x="4165" y="646" width="50" height="15" as="geometry"/>
                </mxCell>
                <mxCell id="V6eRgOUS85zWo4gEC153-9" value="&lt;b&gt;&lt;font style=&quot;font-size: 18px;&quot;&gt;アンケート&lt;/font&gt;&lt;/b&gt;&lt;div&gt;&lt;font style=&quot;font-size: 16px; color: rgb(128, 128, 128);&quot;&gt;/registration&lt;/font&gt;&lt;/div&gt;" style="rounded=1;whiteSpace=wrap;html=1;fillColor=#f5f5f5;fontColor=#333333;strokeColor=none;" parent="1" vertex="1">
                    <mxGeometry x="5480" y="50" width="250" height="60" as="geometry"/>
                </mxCell>
                <mxCell id="V6eRgOUS85zWo4gEC153-11" value="" style="rounded=0;whiteSpace=wrap;html=1;strokeColor=none;fillColor=#422AD5;" parent="1" vertex="1">
                    <mxGeometry x="5924" y="160" width="100" height="10" as="geometry"/>
                </mxCell>
                <mxCell id="V6eRgOUS85zWo4gEC153-13" value="基本情報" style="text;html=1;align=center;verticalAlign=middle;whiteSpace=wrap;rounded=0;fontStyle=0;fontSize=10;" parent="1" vertex="1">
                    <mxGeometry x="5893.5" y="180" width="67" height="30" as="geometry"/>
                </mxCell>
                <mxCell id="V6eRgOUS85zWo4gEC153-14" value="連絡先・所属" style="text;html=1;align=center;verticalAlign=middle;whiteSpace=wrap;rounded=0;fontStyle=0;fontSize=10;" parent="1" vertex="1">
                    <mxGeometry x="5976.5" y="180" width="85" height="30" as="geometry"/>
                </mxCell>
                <mxCell id="V6eRgOUS85zWo4gEC153-15" value="登録完了" style="text;html=1;align=center;verticalAlign=middle;whiteSpace=wrap;rounded=0;fontStyle=0;fontSize=10;" parent="1" vertex="1">
                    <mxGeometry x="6274" y="180" width="60" height="30" as="geometry"/>
                </mxCell>
                <mxCell id="V6eRgOUS85zWo4gEC153-16" value="アンケート" style="text;html=1;align=center;verticalAlign=middle;whiteSpace=wrap;rounded=0;fontStyle=0;fontSize=10;" parent="1" vertex="1">
                    <mxGeometry x="6076.5" y="180" width="75" height="30" as="geometry"/>
                </mxCell>
                <mxCell id="V6eRgOUS85zWo4gEC153-19" value="エンジニアカフェをどこで知りましたか？" style="text;html=1;align=left;verticalAlign=middle;whiteSpace=wrap;rounded=0;fontSize=12;spacingLeft=0;spacing=2;fillColor=default;fontStyle=1" parent="1" vertex="1">
                    <mxGeometry x="5965" y="236" width="235" height="15" as="geometry"/>
                </mxCell>
                <mxCell id="V6eRgOUS85zWo4gEC153-22" value="戻る" style="html=1;shadow=0;dashed=0;shape=mxgraph.bootstrap.rrect;rSize=5;strokeColor=none;strokeWidth=1;fillColor=#B3B3B3;fontColor=#000000;whiteSpace=wrap;align=center;verticalAlign=middle;spacingLeft=0;fontStyle=0;fontSize=16;spacing=5;" parent="1" vertex="1">
                    <mxGeometry x="5965" y="764" width="105" height="40" as="geometry"/>
                </mxCell>
                <mxCell id="V6eRgOUS85zWo4gEC153-23" value="" style="rounded=0;whiteSpace=wrap;html=1;strokeColor=none;fillColor=#422AD5;" parent="1" vertex="1">
                    <mxGeometry x="6016.5" y="160" width="100" height="10" as="geometry"/>
                </mxCell>
                <mxCell id="V6eRgOUS85zWo4gEC153-24" value="&lt;b&gt;&lt;font style=&quot;color: rgb(255, 255, 255);&quot;&gt;2&lt;/font&gt;&lt;/b&gt;" style="ellipse;whiteSpace=wrap;html=1;aspect=fixed;strokeColor=none;fillColor=#422AD5;fontColor=#FFFFFF;" parent="1" vertex="1">
                    <mxGeometry x="6004" y="150" width="30" height="30" as="geometry"/>
                </mxCell>
                <mxCell id="V6eRgOUS85zWo4gEC153-25" value="" style="rounded=0;whiteSpace=wrap;html=1;strokeColor=none;fillColor=#E6E6E6;" parent="1" vertex="1">
                    <mxGeometry x="6109" y="160" width="100" height="10" as="geometry"/>
                </mxCell>
                <mxCell id="V6eRgOUS85zWo4gEC153-26" value="&lt;b&gt;&lt;font style=&quot;color: rgb(255, 255, 255);&quot;&gt;3&lt;/font&gt;&lt;/b&gt;" style="ellipse;whiteSpace=wrap;html=1;aspect=fixed;strokeColor=none;fillColor=#422AD5;fontColor=#FFFFFF;" parent="1" vertex="1">
                    <mxGeometry x="6099" y="150" width="30" height="30" as="geometry"/>
                </mxCell>
                <mxCell id="V6eRgOUS85zWo4gEC153-27" value="" style="rounded=0;whiteSpace=wrap;html=1;strokeColor=none;fillColor=#E6E6E6;" parent="1" vertex="1">
                    <mxGeometry x="6204" y="160" width="100" height="10" as="geometry"/>
                </mxCell>
                <mxCell id="V6eRgOUS85zWo4gEC153-28" value="&lt;b&gt;4&lt;/b&gt;" style="ellipse;whiteSpace=wrap;html=1;aspect=fixed;strokeColor=none;fillColor=#E6E6E6;fontColor=#000000;" parent="1" vertex="1">
                    <mxGeometry x="6194" y="150" width="30" height="30" as="geometry"/>
                </mxCell>
                <mxCell id="V6eRgOUS85zWo4gEC153-29" value="&lt;b&gt;5&lt;/b&gt;" style="ellipse;whiteSpace=wrap;html=1;aspect=fixed;strokeColor=none;fillColor=#E6E6E6;fontColor=#000000;" parent="1" vertex="1">
                    <mxGeometry x="6289" y="150" width="30" height="30" as="geometry"/>
                </mxCell>
                <mxCell id="V6eRgOUS85zWo4gEC153-30" value="確認" style="text;html=1;align=center;verticalAlign=middle;whiteSpace=wrap;rounded=0;fontStyle=0;fontSize=10;" parent="1" vertex="1">
                    <mxGeometry x="6171.5" y="180" width="75" height="30" as="geometry"/>
                </mxCell>
                <mxCell id="V6eRgOUS85zWo4gEC153-32" value="※必須" style="text;html=1;align=left;verticalAlign=middle;whiteSpace=wrap;rounded=0;fontSize=9;spacingLeft=0;spacing=2;fillColor=default;fontStyle=0;fontColor=#FF0000;" parent="1" vertex="1">
                    <mxGeometry x="4194" y="646" width="30.5" height="15" as="geometry"/>
                </mxCell>
                <mxCell id="V6eRgOUS85zWo4gEC153-38" value="※必須" style="text;html=1;align=left;verticalAlign=middle;whiteSpace=wrap;rounded=0;fontSize=9;spacingLeft=0;spacing=2;fillColor=default;fontStyle=0;fontColor=#FF0000;" parent="1" vertex="1">
                    <mxGeometry x="6204" y="236" width="30.5" height="15" as="geometry"/>
                </mxCell>
                <mxCell id="V6eRgOUS85zWo4gEC153-41" value="" style="rounded=1;whiteSpace=wrap;html=1;strokeColor=#CCCCCC;fillColor=none;align=left;spacingLeft=10;fontColor=#CCCCCC;" parent="1" vertex="1">
                    <mxGeometry x="4165" y="665" width="235" height="40" as="geometry"/>
                </mxCell>
                <mxCell id="V6eRgOUS85zWo4gEC153-42" value="" style="triangle;whiteSpace=wrap;html=1;rotation=90;strokeColor=none;fillColor=#000000;" parent="1" vertex="1">
                    <mxGeometry x="4379" y="680" width="5" height="10" as="geometry"/>
                </mxCell>
                <mxCell id="V6eRgOUS85zWo4gEC153-45" value="SNS" style="html=1;shadow=0;dashed=0;shape=mxgraph.bootstrap.radioButton2;labelPosition=right;verticalLabelPosition=middle;align=left;verticalAlign=middle;gradientColor=#DEDEDE;fillColor=#EDEDED;checked=1;spacing=5;checkedFill=#422AD5;checkedStroke=#ffffff;sketch=0;" parent="1" vertex="1">
                    <mxGeometry x="5970" y="265" width="10" height="10" as="geometry"/>
                </mxCell>
                <mxCell id="V6eRgOUS85zWo4gEC153-46" value="職場" style="html=1;shadow=0;dashed=0;shape=mxgraph.bootstrap.radioButton2;labelPosition=right;verticalLabelPosition=middle;align=left;verticalAlign=middle;gradientColor=#DEDEDE;fillColor=#EDEDED;checked=0;spacing=5;checkedFill=#0085FC;checkedStroke=#ffffff;sketch=0;" parent="1" vertex="1">
                    <mxGeometry x="5970" y="290" width="10" height="10" as="geometry"/>
                </mxCell>
                <mxCell id="V6eRgOUS85zWo4gEC153-47" value="イベント" style="html=1;shadow=0;dashed=0;shape=mxgraph.bootstrap.radioButton2;labelPosition=right;verticalLabelPosition=middle;align=left;verticalAlign=middle;gradientColor=#DEDEDE;fillColor=#EDEDED;checked=0;spacing=5;checkedFill=#0085FC;checkedStroke=#ffffff;sketch=0;" parent="1" vertex="1">
                    <mxGeometry x="5970" y="314" width="10" height="10" as="geometry"/>
                </mxCell>
                <mxCell id="V6eRgOUS85zWo4gEC153-48" value="" style="html=1;shadow=0;dashed=0;shape=mxgraph.bootstrap.radioButton2;labelPosition=right;verticalLabelPosition=middle;align=left;verticalAlign=middle;gradientColor=#DEDEDE;fillColor=#EDEDED;checked=0;spacing=5;checkedFill=#0085FC;checkedStroke=#ffffff;sketch=0;" parent="1" vertex="1">
                    <mxGeometry x="5970" y="441" width="10" height="10" as="geometry"/>
                </mxCell>
                <mxCell id="V6eRgOUS85zWo4gEC153-50" value="その他" style="rounded=1;whiteSpace=wrap;html=1;strokeColor=#CCCCCC;fillColor=none;align=left;spacingLeft=10;fontColor=#CCCCCC;" parent="1" vertex="1">
                    <mxGeometry x="5986.5" y="434" width="146" height="24" as="geometry"/>
                </mxCell>
                <mxCell id="V6eRgOUS85zWo4gEC153-51" value="市政だより&lt;span style=&quot;color: rgba(0, 0, 0, 0); font-family: monospace; font-size: 0px;&quot;&gt;%3CmxGraphModel%3E%3Croot%3E%3CmxCell%20id%3D%220%22%2F%3E%3CmxCell%20id%3D%221%22%20parent%3D%220%22%2F%3E%3CmxCell%20id%3D%222%22%20value%3D%22%E3%82%A4%E3%83%99%E3%83%B3%E3%83%88%22%20style%3D%22html%3D1%3Bshadow%3D0%3Bdashed%3D0%3Bshape%3Dmxgraph.bootstrap.radioButton2%3BlabelPosition%3Dright%3BverticalLabelPosition%3Dmiddle%3Balign%3Dleft%3BverticalAlign%3Dmiddle%3BgradientColor%3D%23DEDEDE%3BfillColor%3D%23EDEDED%3Bchecked%3D0%3Bspacing%3D5%3BcheckedFill%3D%230085FC%3BcheckedStroke%3D%23ffffff%3Bsketch%3D0%3B%22%20vertex%3D%221%22%20parent%3D%221%22%3E%3CmxGeometry%20x%3D%225970%22%20y%3D%22314%22%20width%3D%2210%22%20height%3D%2210%22%20as%3D%22geometry%22%2F%3E%3C%2FmxCell%3E%3C%2Froot%3E%3C%2FmxGraphModel%3E&lt;/span&gt;" style="html=1;shadow=0;dashed=0;shape=mxgraph.bootstrap.radioButton2;labelPosition=right;verticalLabelPosition=middle;align=left;verticalAlign=middle;gradientColor=#DEDEDE;fillColor=#EDEDED;checked=0;spacing=5;checkedFill=#0085FC;checkedStroke=#ffffff;sketch=0;" parent="1" vertex="1">
                    <mxGeometry x="5970" y="339" width="10" height="10" as="geometry"/>
                </mxCell>
                <mxCell id="V6eRgOUS85zWo4gEC153-52" value="インターネットニュース&lt;span style=&quot;color: rgba(0, 0, 0, 0); font-family: monospace; font-size: 0px;&quot;&gt;%3CmxGraphModel%3E%3Croot%3E%3CmxCell%20id%3D%220%22%2F%3E%3CmxCell%20id%3D%221%22%20parent%3D%220%22%2F%3E%3CmxCell%20id%3D%222%22%20value%3D%22%E5%B8%82%E6%94%BF%E3%81%A0%E3%82%88%E3%82%8A%26lt%3Bspan%20style%3D%26quot%3Bcolor%3A%20rgba(0%2C%200%2C%200%2C%200)%3B%20font-family%3A%20monospace%3B%20font-size%3A%200px%3B%26quot%3B%26gt%3B%253CmxGraphModel%253E%253Croot%253E%253CmxCell%2520id%253D%25220%2522%252F%253E%253CmxCell%2520id%253D%25221%2522%2520parent%253D%25220%2522%252F%253E%253CmxCell%2520id%253D%25222%2522%2520value%253D%2522%25E3%2582%25A4%25E3%2583%2599%25E3%2583%25B3%25E3%2583%2588%2522%2520style%253D%2522html%253D1%253Bshadow%253D0%253Bdashed%253D0%253Bshape%253Dmxgraph.bootstrap.radioButton2%253BlabelPosition%253Dright%253BverticalLabelPosition%253Dmiddle%253Balign%253Dleft%253BverticalAlign%253Dmiddle%253BgradientColor%253D%2523DEDEDE%253BfillColor%253D%2523EDEDED%253Bchecked%253D0%253Bspacing%253D5%253BcheckedFill%253D%25230085FC%253BcheckedStroke%253D%2523ffffff%253Bsketch%253D0%253B%2522%2520vertex%253D%25221%2522%2520parent%253D%25221%2522%253E%253CmxGeometry%2520x%253D%25225970%2522%2520y%253D%2522314%2522%2520width%253D%252210%2522%2520height%253D%252210%2522%2520as%253D%2522geometry%2522%252F%253E%253C%252FmxCell%253E%253C%252Froot%253E%253C%252FmxGraphModel%253E%26lt%3B%2Fspan%26gt%3B%22%20style%3D%22html%3D1%3Bshadow%3D0%3Bdashed%3D0%3Bshape%3Dmxgraph.bootstrap.radioButton2%3BlabelPosition%3Dright%3BverticalLabelPosition%3Dmiddle%3Balign%3Dleft%3BverticalAlign%3Dmiddle%3BgradientColor%3D%23DEDEDE%3BfillColor%3D%23EDEDED%3Bchecked%3D0%3Bspacing%3D5%3BcheckedFill%3D%230085FC%3BcheckedStroke%3D%23ffffff%3Bsketch%3D0%3B%22%20vertex%3D%221%22%20parent%3D%221%22%3E%3CmxGeometry%20x%3D%225970%22%20y%3D%22339%22%20width%3D%2210%22%20height%3D%2210%22%20as%3D%22geometry%22%2F%3E%3C%2FmxCell%3E%3C%2Froot%3E%3C%2FmxGraphModel%3E&lt;/span&gt;" style="html=1;shadow=0;dashed=0;shape=mxgraph.bootstrap.radioButton2;labelPosition=right;verticalLabelPosition=middle;align=left;verticalAlign=middle;gradientColor=#DEDEDE;fillColor=#EDEDED;checked=0;spacing=5;checkedFill=#0085FC;checkedStroke=#ffffff;sketch=0;" parent="1" vertex="1">
                    <mxGeometry x="5970" y="364" width="10" height="10" as="geometry"/>
                </mxCell>
                <mxCell id="V6eRgOUS85zWo4gEC153-53" value="新聞" style="html=1;shadow=0;dashed=0;shape=mxgraph.bootstrap.radioButton2;labelPosition=right;verticalLabelPosition=middle;align=left;verticalAlign=middle;gradientColor=#DEDEDE;fillColor=#EDEDED;checked=0;spacing=5;checkedFill=#0085FC;checkedStroke=#ffffff;sketch=0;" parent="1" vertex="1">
                    <mxGeometry x="5970" y="389" width="10" height="10" as="geometry"/>
                </mxCell>
                <mxCell id="V6eRgOUS85zWo4gEC153-54" value="ラジオ" style="html=1;shadow=0;dashed=0;shape=mxgraph.bootstrap.radioButton2;labelPosition=right;verticalLabelPosition=middle;align=left;verticalAlign=middle;gradientColor=#DEDEDE;fillColor=#EDEDED;checked=0;spacing=5;checkedFill=#0085FC;checkedStroke=#ffffff;sketch=0;" parent="1" vertex="1">
                    <mxGeometry x="5970" y="414" width="10" height="10" as="geometry"/>
                </mxCell>
                <mxCell id="V6eRgOUS85zWo4gEC153-55" value="" style="rounded=0;whiteSpace=wrap;html=1;aspect=fixed;strokeColor=#999999;" parent="1" vertex="1">
                    <mxGeometry x="7280" y="120" width="1280" height="720" as="geometry"/>
                </mxCell>
                <mxCell id="V6eRgOUS85zWo4gEC153-56" value="登録する" style="html=1;shadow=0;dashed=0;shape=mxgraph.bootstrap.rrect;rSize=5;strokeColor=none;strokeWidth=1;fillColor=#422AD5;fontColor=#FFFFFF;whiteSpace=wrap;align=center;verticalAlign=middle;spacingLeft=0;fontStyle=0;fontSize=16;spacing=5;" parent="1" vertex="1">
                    <mxGeometry x="7970" y="764" width="105" height="40" as="geometry"/>
                </mxCell>
                <mxCell id="V6eRgOUS85zWo4gEC153-57" value="&lt;b&gt;&lt;font style=&quot;font-size: 18px;&quot;&gt;確認&lt;/font&gt;&lt;/b&gt;&lt;div&gt;&lt;font style=&quot;font-size: 16px; color: rgb(128, 128, 128);&quot;&gt;/registration&lt;/font&gt;&lt;/div&gt;" style="rounded=1;whiteSpace=wrap;html=1;fillColor=#f5f5f5;fontColor=#333333;strokeColor=none;" parent="1" vertex="1">
                    <mxGeometry x="7280" y="50" width="250" height="60" as="geometry"/>
                </mxCell>
                <mxCell id="V6eRgOUS85zWo4gEC153-59" value="" style="rounded=0;whiteSpace=wrap;html=1;strokeColor=none;fillColor=#422AD5;" parent="1" vertex="1">
                    <mxGeometry x="7724" y="160" width="100" height="10" as="geometry"/>
                </mxCell>
                <mxCell id="V6eRgOUS85zWo4gEC153-61" value="基本情報" style="text;html=1;align=center;verticalAlign=middle;whiteSpace=wrap;rounded=0;fontStyle=0;fontSize=10;" parent="1" vertex="1">
                    <mxGeometry x="7693.5" y="180" width="67" height="30" as="geometry"/>
                </mxCell>
                <mxCell id="V6eRgOUS85zWo4gEC153-62" value="連絡先・所属" style="text;html=1;align=center;verticalAlign=middle;whiteSpace=wrap;rounded=0;fontStyle=0;fontSize=10;" parent="1" vertex="1">
                    <mxGeometry x="7776.5" y="180" width="85" height="30" as="geometry"/>
                </mxCell>
                <mxCell id="V6eRgOUS85zWo4gEC153-63" value="登録完了" style="text;html=1;align=center;verticalAlign=middle;whiteSpace=wrap;rounded=0;fontStyle=0;fontSize=10;" parent="1" vertex="1">
                    <mxGeometry x="8074" y="180" width="60" height="30" as="geometry"/>
                </mxCell>
                <mxCell id="V6eRgOUS85zWo4gEC153-64" value="アンケート" style="text;html=1;align=center;verticalAlign=middle;whiteSpace=wrap;rounded=0;fontStyle=0;fontSize=10;" parent="1" vertex="1">
                    <mxGeometry x="7876.5" y="180" width="75" height="30" as="geometry"/>
                </mxCell>
                <mxCell id="V6eRgOUS85zWo4gEC153-65" value="登録内容" style="text;html=1;align=left;verticalAlign=middle;whiteSpace=wrap;rounded=0;fontSize=26;spacingLeft=0;spacing=2;fillColor=default;fontStyle=1" parent="1" vertex="1">
                    <mxGeometry x="7712" y="231.5" width="118" height="24" as="geometry"/>
                </mxCell>
                <mxCell id="V6eRgOUS85zWo4gEC153-66" value="戻る" style="html=1;shadow=0;dashed=0;shape=mxgraph.bootstrap.rrect;rSize=5;strokeColor=none;strokeWidth=1;fillColor=#B3B3B3;fontColor=#000000;whiteSpace=wrap;align=center;verticalAlign=middle;spacingLeft=0;fontStyle=0;fontSize=16;spacing=5;" parent="1" vertex="1">
                    <mxGeometry x="7765" y="764" width="105" height="40" as="geometry"/>
                </mxCell>
                <mxCell id="V6eRgOUS85zWo4gEC153-67" value="" style="rounded=0;whiteSpace=wrap;html=1;strokeColor=none;fillColor=#422AD5;" parent="1" vertex="1">
                    <mxGeometry x="7816.5" y="160" width="100" height="10" as="geometry"/>
                </mxCell>
                <mxCell id="V6eRgOUS85zWo4gEC153-68" value="&lt;b&gt;&lt;font style=&quot;color: rgb(255, 255, 255);&quot;&gt;2&lt;/font&gt;&lt;/b&gt;" style="ellipse;whiteSpace=wrap;html=1;aspect=fixed;strokeColor=none;fillColor=#422AD5;fontColor=#FFFFFF;" parent="1" vertex="1">
                    <mxGeometry x="7804" y="150" width="30" height="30" as="geometry"/>
                </mxCell>
                <mxCell id="V6eRgOUS85zWo4gEC153-69" value="" style="rounded=0;whiteSpace=wrap;html=1;strokeColor=none;fillColor=#422AD5;" parent="1" vertex="1">
                    <mxGeometry x="7909" y="160" width="100" height="10" as="geometry"/>
                </mxCell>
                <mxCell id="V6eRgOUS85zWo4gEC153-70" value="&lt;b&gt;&lt;font style=&quot;color: rgb(255, 255, 255);&quot;&gt;3&lt;/font&gt;&lt;/b&gt;" style="ellipse;whiteSpace=wrap;html=1;aspect=fixed;strokeColor=none;fillColor=#422AD5;fontColor=#FFFFFF;" parent="1" vertex="1">
                    <mxGeometry x="7899" y="150" width="30" height="30" as="geometry"/>
                </mxCell>
                <mxCell id="V6eRgOUS85zWo4gEC153-71" value="" style="rounded=0;whiteSpace=wrap;html=1;strokeColor=none;fillColor=#E6E6E6;" parent="1" vertex="1">
                    <mxGeometry x="8004" y="160" width="100" height="10" as="geometry"/>
                </mxCell>
                <mxCell id="V6eRgOUS85zWo4gEC153-72" value="&lt;b&gt;&lt;font style=&quot;color: rgb(255, 255, 255);&quot;&gt;4&lt;/font&gt;&lt;/b&gt;" style="ellipse;whiteSpace=wrap;html=1;aspect=fixed;strokeColor=none;fillColor=#422AD5;fontColor=#FFFFFF;" parent="1" vertex="1">
                    <mxGeometry x="7994" y="150" width="30" height="30" as="geometry"/>
                </mxCell>
                <mxCell id="V6eRgOUS85zWo4gEC153-73" value="&lt;b&gt;5&lt;/b&gt;" style="ellipse;whiteSpace=wrap;html=1;aspect=fixed;strokeColor=none;fillColor=#E6E6E6;fontColor=#000000;" parent="1" vertex="1">
                    <mxGeometry x="8089" y="150" width="30" height="30" as="geometry"/>
                </mxCell>
                <mxCell id="V6eRgOUS85zWo4gEC153-74" value="確認" style="text;html=1;align=center;verticalAlign=middle;whiteSpace=wrap;rounded=0;fontStyle=0;fontSize=10;" parent="1" vertex="1">
                    <mxGeometry x="7971.5" y="180" width="75" height="30" as="geometry"/>
                </mxCell>
                <mxCell id="V6eRgOUS85zWo4gEC153-85" value="氏名" style="text;html=1;align=left;verticalAlign=middle;whiteSpace=wrap;rounded=0;fontSize=12;spacingLeft=0;spacing=2;fillColor=default;fontStyle=1;fontColor=#808080;" parent="1" vertex="1">
                    <mxGeometry x="7712" y="269" width="50" height="15" as="geometry"/>
                </mxCell>
                <mxCell id="V6eRgOUS85zWo4gEC153-86" value="望郷 太郎" style="text;html=1;align=left;verticalAlign=middle;whiteSpace=wrap;rounded=0;fontSize=18;spacingLeft=0;spacing=2;fillColor=default;fontStyle=1" parent="1" vertex="1">
                    <mxGeometry x="7712" y="290" width="95" height="24" as="geometry"/>
                </mxCell>
                <mxCell id="EG5soa8mufRvhOV-GAfv-1" value="氏名（ふりがな）" style="text;html=1;align=left;verticalAlign=middle;whiteSpace=wrap;rounded=0;fontSize=12;spacingLeft=0;spacing=2;fillColor=default;fontStyle=1;fontColor=#808080;" parent="1" vertex="1">
                    <mxGeometry x="7712" y="323" width="98" height="15" as="geometry"/>
                </mxCell>
                <mxCell id="EG5soa8mufRvhOV-GAfv-2" value="ぼうきょう たろう" style="text;html=1;align=left;verticalAlign=middle;whiteSpace=wrap;rounded=0;fontSize=18;spacingLeft=0;spacing=2;fillColor=default;fontStyle=1" parent="1" vertex="1">
                    <mxGeometry x="7712" y="339" width="158" height="24" as="geometry"/>
                </mxCell>
                <mxCell id="EG5soa8mufRvhOV-GAfv-3" value="住所" style="text;html=1;align=left;verticalAlign=middle;whiteSpace=wrap;rounded=0;fontSize=12;spacingLeft=0;spacing=2;fillColor=default;fontStyle=1;fontColor=#808080;" parent="1" vertex="1">
                    <mxGeometry x="7712" y="369.5" width="38" height="15" as="geometry"/>
                </mxCell>
                <mxCell id="EG5soa8mufRvhOV-GAfv-4" value="〒810-0001&lt;div&gt;福岡県福岡市中央区天神1丁目&lt;/div&gt;" style="text;html=1;align=left;verticalAlign=middle;whiteSpace=wrap;rounded=0;fontSize=18;spacingLeft=0;spacing=2;fillColor=default;fontStyle=1" parent="1" vertex="1">
                    <mxGeometry x="7712" y="388" width="298" height="40" as="geometry"/>
                </mxCell>
                <mxCell id="EG5soa8mufRvhOV-GAfv-5" value="電話番号" style="text;html=1;align=left;verticalAlign=middle;whiteSpace=wrap;rounded=0;fontSize=12;spacingLeft=0;spacing=2;fillColor=default;fontStyle=1;fontColor=#808080;" parent="1" vertex="1">
                    <mxGeometry x="7712" y="445" width="58" height="15" as="geometry"/>
                </mxCell>
                <mxCell id="EG5soa8mufRvhOV-GAfv-6" value="080-6742-7231" style="text;html=1;align=left;verticalAlign=middle;whiteSpace=wrap;rounded=0;fontSize=18;spacingLeft=0;spacing=2;fillColor=default;fontStyle=1" parent="1" vertex="1">
                    <mxGeometry x="7712" y="460" width="158" height="24" as="geometry"/>
                </mxCell>
                <mxCell id="EG5soa8mufRvhOV-GAfv-8" value="メールアドレス" style="text;html=1;align=left;verticalAlign=middle;whiteSpace=wrap;rounded=0;fontSize=12;spacingLeft=0;spacing=2;fillColor=default;fontStyle=1;fontColor=#808080;" parent="1" vertex="1">
                    <mxGeometry x="7712" y="493" width="88" height="15" as="geometry"/>
                </mxCell>
                <mxCell id="EG5soa8mufRvhOV-GAfv-9" value="info@engineercafe.jp" style="text;html=1;align=left;verticalAlign=middle;whiteSpace=wrap;rounded=0;fontSize=18;spacingLeft=0;spacing=2;fillColor=default;fontStyle=1" parent="1" vertex="1">
                    <mxGeometry x="7712" y="508" width="198" height="24" as="geometry"/>
                </mxCell>
                <mxCell id="xoeoE_2J9vq2hr8RCRhO-3" value="所属" style="text;html=1;align=left;verticalAlign=middle;whiteSpace=wrap;rounded=0;fontSize=12;spacingLeft=0;spacing=2;fillColor=default;fontStyle=1;fontColor=#808080;" parent="1" vertex="1">
                    <mxGeometry x="7712" y="541" width="58" height="15" as="geometry"/>
                </mxCell>
                <mxCell id="xoeoE_2J9vq2hr8RCRhO-4" value="個人" style="text;html=1;align=left;verticalAlign=middle;whiteSpace=wrap;rounded=0;fontSize=18;spacingLeft=0;spacing=2;fillColor=default;fontStyle=1" parent="1" vertex="1">
                    <mxGeometry x="7712" y="556" width="158" height="24" as="geometry"/>
                </mxCell>
                <mxCell id="xoeoE_2J9vq2hr8RCRhO-5" value="所属詳細" style="text;html=1;align=left;verticalAlign=middle;whiteSpace=wrap;rounded=0;fontSize=12;spacingLeft=0;spacing=2;fillColor=default;fontStyle=1;fontColor=#808080;" parent="1" vertex="1">
                    <mxGeometry x="7712" y="589" width="88" height="15" as="geometry"/>
                </mxCell>
                <mxCell id="xoeoE_2J9vq2hr8RCRhO-6" value="" style="text;html=1;align=left;verticalAlign=middle;whiteSpace=wrap;rounded=0;fontSize=18;spacingLeft=0;spacing=2;fillColor=default;fontStyle=1" parent="1" vertex="1">
                    <mxGeometry x="7712" y="604" width="198" height="24" as="geometry"/>
                </mxCell>
                <mxCell id="xoeoE_2J9vq2hr8RCRhO-7" value="職種" style="text;html=1;align=left;verticalAlign=middle;whiteSpace=wrap;rounded=0;fontSize=12;spacingLeft=0;spacing=2;fillColor=default;fontStyle=1;fontColor=#808080;" parent="1" vertex="1">
                    <mxGeometry x="7712" y="638" width="58" height="15" as="geometry"/>
                </mxCell>
                <mxCell id="xoeoE_2J9vq2hr8RCRhO-8" value="ネットワークエンジニア" style="text;html=1;align=left;verticalAlign=middle;whiteSpace=wrap;rounded=0;fontSize=18;spacingLeft=0;spacing=2;fillColor=default;fontStyle=1" parent="1" vertex="1">
                    <mxGeometry x="7712" y="653" width="208" height="24" as="geometry"/>
                </mxCell>
                <mxCell id="xoeoE_2J9vq2hr8RCRhO-9" value="エンジニアカフェをどこで知りましたか？" style="text;html=1;align=left;verticalAlign=middle;whiteSpace=wrap;rounded=0;fontSize=12;spacingLeft=0;spacing=2;fillColor=default;fontStyle=1;fontColor=#808080;" parent="1" vertex="1">
                    <mxGeometry x="7712" y="686" width="248" height="15" as="geometry"/>
                </mxCell>
                <mxCell id="xoeoE_2J9vq2hr8RCRhO-10" value="SNS" style="text;html=1;align=left;verticalAlign=middle;whiteSpace=wrap;rounded=0;fontSize=18;spacingLeft=0;spacing=2;fillColor=default;fontStyle=1" parent="1" vertex="1">
                    <mxGeometry x="7712" y="701" width="198" height="24" as="geometry"/>
                </mxCell>
                <mxCell id="xoeoE_2J9vq2hr8RCRhO-11" value="" style="rounded=0;whiteSpace=wrap;html=1;aspect=fixed;strokeColor=#999999;" parent="1" vertex="1">
                    <mxGeometry x="9080" y="120" width="1280" height="720" as="geometry"/>
                </mxCell>
                <mxCell id="xoeoE_2J9vq2hr8RCRhO-13" value="&lt;b&gt;&lt;font style=&quot;font-size: 18px;&quot;&gt;登録完了&lt;/font&gt;&lt;/b&gt;&lt;div&gt;&lt;font style=&quot;font-size: 16px; color: rgb(128, 128, 128);&quot;&gt;/registration&lt;/font&gt;&lt;/div&gt;" style="rounded=1;whiteSpace=wrap;html=1;fillColor=#f5f5f5;fontColor=#333333;strokeColor=none;" parent="1" vertex="1">
                    <mxGeometry x="9080" y="50" width="250" height="60" as="geometry"/>
                </mxCell>
                <mxCell id="xoeoE_2J9vq2hr8RCRhO-15" value="" style="rounded=0;whiteSpace=wrap;html=1;strokeColor=none;fillColor=#422AD5;fontColor=#FFFFFF;" parent="1" vertex="1">
                    <mxGeometry x="9524" y="160" width="100" height="10" as="geometry"/>
                </mxCell>
                <mxCell id="xoeoE_2J9vq2hr8RCRhO-17" value="基本情報" style="text;html=1;align=center;verticalAlign=middle;whiteSpace=wrap;rounded=0;fontStyle=0;fontSize=10;" parent="1" vertex="1">
                    <mxGeometry x="9493.5" y="180" width="67" height="30" as="geometry"/>
                </mxCell>
                <mxCell id="xoeoE_2J9vq2hr8RCRhO-18" value="連絡先・所属" style="text;html=1;align=center;verticalAlign=middle;whiteSpace=wrap;rounded=0;fontStyle=0;fontSize=10;" parent="1" vertex="1">
                    <mxGeometry x="9576.5" y="180" width="85" height="30" as="geometry"/>
                </mxCell>
                <mxCell id="xoeoE_2J9vq2hr8RCRhO-19" value="登録完了" style="text;html=1;align=center;verticalAlign=middle;whiteSpace=wrap;rounded=0;fontStyle=0;fontSize=10;" parent="1" vertex="1">
                    <mxGeometry x="9874" y="180" width="60" height="30" as="geometry"/>
                </mxCell>
                <mxCell id="xoeoE_2J9vq2hr8RCRhO-20" value="アンケート" style="text;html=1;align=center;verticalAlign=middle;whiteSpace=wrap;rounded=0;fontStyle=0;fontSize=10;" parent="1" vertex="1">
                    <mxGeometry x="9676.5" y="180" width="75" height="30" as="geometry"/>
                </mxCell>
                <mxCell id="xoeoE_2J9vq2hr8RCRhO-21" value="登録完了" style="text;html=1;align=left;verticalAlign=middle;whiteSpace=wrap;rounded=0;fontSize=20;spacingLeft=0;spacing=2;fillColor=default;fontStyle=1" parent="1" vertex="1">
                    <mxGeometry x="9512" y="235" width="95" height="24" as="geometry"/>
                </mxCell>
                <mxCell id="xoeoE_2J9vq2hr8RCRhO-22" value="閉じる" style="html=1;shadow=0;dashed=0;shape=mxgraph.bootstrap.rrect;rSize=5;strokeColor=none;strokeWidth=1;fillColor=#B3B3B3;fontColor=#000000;whiteSpace=wrap;align=center;verticalAlign=middle;spacingLeft=0;fontStyle=0;fontSize=16;spacing=5;" parent="1" vertex="1">
                    <mxGeometry x="9586.5" y="479" width="255" height="40" as="geometry"/>
                </mxCell>
                <mxCell id="xoeoE_2J9vq2hr8RCRhO-23" value="" style="rounded=0;whiteSpace=wrap;html=1;strokeColor=none;fillColor=#422AD5;fontColor=#FFFFFF;" parent="1" vertex="1">
                    <mxGeometry x="9616.5" y="160" width="100" height="10" as="geometry"/>
                </mxCell>
                <mxCell id="xoeoE_2J9vq2hr8RCRhO-24" value="&lt;b&gt;&lt;font style=&quot;color: rgb(255, 255, 255);&quot;&gt;2&lt;/font&gt;&lt;/b&gt;" style="ellipse;whiteSpace=wrap;html=1;aspect=fixed;strokeColor=none;fillColor=#422AD5;fontColor=#FFFFFF;" parent="1" vertex="1">
                    <mxGeometry x="9604" y="150" width="30" height="30" as="geometry"/>
                </mxCell>
                <mxCell id="xoeoE_2J9vq2hr8RCRhO-25" value="" style="rounded=0;whiteSpace=wrap;html=1;strokeColor=none;fillColor=#422AD5;fontColor=#FFFFFF;" parent="1" vertex="1">
                    <mxGeometry x="9709" y="160" width="100" height="10" as="geometry"/>
                </mxCell>
                <mxCell id="xoeoE_2J9vq2hr8RCRhO-26" value="&lt;b&gt;&lt;font style=&quot;color: rgb(255, 255, 255);&quot;&gt;3&lt;/font&gt;&lt;/b&gt;" style="ellipse;whiteSpace=wrap;html=1;aspect=fixed;strokeColor=none;fillColor=#422AD5;fontColor=#000000;" parent="1" vertex="1">
                    <mxGeometry x="9699" y="150" width="30" height="30" as="geometry"/>
                </mxCell>
                <mxCell id="xoeoE_2J9vq2hr8RCRhO-27" value="" style="rounded=0;whiteSpace=wrap;html=1;strokeColor=none;fillColor=#422AD5;fontColor=#FFFFFF;" parent="1" vertex="1">
                    <mxGeometry x="9804" y="160" width="100" height="10" as="geometry"/>
                </mxCell>
                <mxCell id="xoeoE_2J9vq2hr8RCRhO-28" value="&lt;b&gt;&lt;font style=&quot;color: rgb(255, 255, 255);&quot;&gt;4&lt;/font&gt;&lt;/b&gt;" style="ellipse;whiteSpace=wrap;html=1;aspect=fixed;strokeColor=none;fillColor=#422AD5;fontColor=#FFFFFF;" parent="1" vertex="1">
                    <mxGeometry x="9794" y="150" width="30" height="30" as="geometry"/>
                </mxCell>
                <mxCell id="xoeoE_2J9vq2hr8RCRhO-29" value="&lt;b&gt;&lt;font style=&quot;color: rgb(255, 255, 255);&quot;&gt;5&lt;/font&gt;&lt;/b&gt;" style="ellipse;whiteSpace=wrap;html=1;aspect=fixed;strokeColor=none;fillColor=#422AD5;fontColor=#FFFFFF;" parent="1" vertex="1">
                    <mxGeometry x="9889" y="150" width="30" height="30" as="geometry"/>
                </mxCell>
                <mxCell id="xoeoE_2J9vq2hr8RCRhO-30" value="確認" style="text;html=1;align=center;verticalAlign=middle;whiteSpace=wrap;rounded=0;fontStyle=0;fontSize=10;" parent="1" vertex="1">
                    <mxGeometry x="9771.5" y="180" width="75" height="30" as="geometry"/>
                </mxCell>
                <mxCell id="xoeoE_2J9vq2hr8RCRhO-31" value="ユーザー番号" style="text;html=1;align=left;verticalAlign=middle;whiteSpace=wrap;rounded=0;fontSize=12;spacingLeft=0;spacing=2;fillColor=default;fontStyle=1;fontColor=#808080;" parent="1" vertex="1">
                    <mxGeometry x="9512" y="294.5" width="78" height="15" as="geometry"/>
                </mxCell>
                <mxCell id="xoeoE_2J9vq2hr8RCRhO-32" value="100202" style="text;html=1;align=left;verticalAlign=middle;whiteSpace=wrap;rounded=0;fontSize=46;spacingLeft=0;spacing=2;fillColor=default;fontStyle=1" parent="1" vertex="1">
                    <mxGeometry x="9512" y="312.5" width="178" height="50" as="geometry"/>
                </mxCell>
                <mxCell id="xoeoE_2J9vq2hr8RCRhO-35" value="ユーザー番号をメモしてください" style="text;html=1;align=left;verticalAlign=middle;whiteSpace=wrap;rounded=0;fontSize=12;spacingLeft=0;spacing=2;fillColor=default;fontStyle=1;fontColor=#808080;" parent="1" vertex="1">
                    <mxGeometry x="9512" y="394" width="198" height="15" as="geometry"/>
                </mxCell>
                <mxCell id="xoeoE_2J9vq2hr8RCRhO-50" style="edgeStyle=orthogonalEdgeStyle;rounded=0;orthogonalLoop=1;jettySize=auto;html=1;entryX=0;entryY=0.5;entryDx=0;entryDy=0;strokeWidth=10;endArrow=block;endFill=1;strokeColor=#999999;endSize=20;" parent="1" edge="1">
                    <mxGeometry relative="1" as="geometry">
                        <mxPoint x="3160" y="475" as="sourcePoint"/>
                        <mxPoint x="3680" y="475" as="targetPoint"/>
                    </mxGeometry>
                </mxCell>
                <mxCell id="xoeoE_2J9vq2hr8RCRhO-51" style="edgeStyle=orthogonalEdgeStyle;rounded=0;orthogonalLoop=1;jettySize=auto;html=1;entryX=0;entryY=0.5;entryDx=0;entryDy=0;strokeWidth=10;endArrow=block;endFill=1;strokeColor=#999999;endSize=20;" parent="1" edge="1">
                    <mxGeometry relative="1" as="geometry">
                        <mxPoint x="4960" y="475" as="sourcePoint"/>
                        <mxPoint x="5480" y="475" as="targetPoint"/>
                    </mxGeometry>
                </mxCell>
                <mxCell id="xoeoE_2J9vq2hr8RCRhO-52" style="edgeStyle=orthogonalEdgeStyle;rounded=0;orthogonalLoop=1;jettySize=auto;html=1;entryX=0;entryY=0.5;entryDx=0;entryDy=0;strokeWidth=10;endArrow=block;endFill=1;strokeColor=#999999;endSize=20;" parent="1" edge="1">
                    <mxGeometry relative="1" as="geometry">
                        <mxPoint x="6760" y="475" as="sourcePoint"/>
                        <mxPoint x="7280" y="475" as="targetPoint"/>
                    </mxGeometry>
                </mxCell>
                <mxCell id="xoeoE_2J9vq2hr8RCRhO-54" style="edgeStyle=orthogonalEdgeStyle;rounded=0;orthogonalLoop=1;jettySize=auto;html=1;entryX=0;entryY=0.5;entryDx=0;entryDy=0;strokeWidth=10;endArrow=block;endFill=1;strokeColor=#999999;endSize=20;" parent="1" edge="1">
                    <mxGeometry relative="1" as="geometry">
                        <mxPoint x="8560" y="475" as="sourcePoint"/>
                        <mxPoint x="9080" y="475" as="targetPoint"/>
                    </mxGeometry>
                </mxCell>
                <mxCell id="xoeoE_2J9vq2hr8RCRhO-55" value="i18nはi18next関係のライブラリを使用する" style="shape=note;strokeWidth=2;fontSize=14;size=20;whiteSpace=wrap;html=1;fillColor=#f5f5f5;strokeColor=#999999;fontColor=#333333;align=left;spacing=10;shadow=1;" parent="1" vertex="1">
                    <mxGeometry x="1383" y="31" width="310" height="70" as="geometry"/>
                </mxCell>
                <mxCell id="xoeoE_2J9vq2hr8RCRhO-56" style="rounded=1;orthogonalLoop=1;jettySize=auto;html=1;entryX=1;entryY=0.5;entryDx=0;entryDy=0;exitX=0;exitY=0.5;exitDx=0;exitDy=0;exitPerimeter=0;endArrow=oval;endFill=1;shadow=1;strokeColor=#4D4D4D;strokeWidth=1;edgeStyle=orthogonalEdgeStyle;jumpStyle=none;jumpSize=6;startSize=6;endSize=8;curved=0;" parent="1" source="xoeoE_2J9vq2hr8RCRhO-55" edge="1">
                    <mxGeometry relative="1" as="geometry">
                        <mxPoint x="1270" y="129" as="targetPoint"/>
                    </mxGeometry>
                </mxCell>
                <mxCell id="xoeoE_2J9vq2hr8RCRhO-57" value="半角数字7桁" style="text;html=1;align=left;verticalAlign=middle;whiteSpace=wrap;rounded=0;fontSize=12;spacingLeft=0;spacing=2;fillColor=default;fontStyle=0;fontColor=#808080;" parent="1" vertex="1">
                    <mxGeometry x="2365" y="401.5" width="75" height="15" as="geometry"/>
                </mxCell>
                <mxCell id="xoeoE_2J9vq2hr8RCRhO-59" value="※必須" style="text;html=1;align=left;verticalAlign=middle;whiteSpace=wrap;rounded=0;fontSize=9;spacingLeft=0;spacing=2;fillColor=default;fontStyle=0;fontColor=#FF0000;" parent="1" vertex="1">
                    <mxGeometry x="2393.5" y="231.5" width="30.5" height="15" as="geometry"/>
                </mxCell>
                <mxCell id="xoeoE_2J9vq2hr8RCRhO-61" value="※必須" style="text;html=1;align=left;verticalAlign=middle;whiteSpace=wrap;rounded=0;fontSize=9;spacingLeft=0;spacing=2;fillColor=default;fontStyle=0;fontColor=#FF0000;" parent="1" vertex="1">
                    <mxGeometry x="2461.5" y="304.5" width="30.5" height="15" as="geometry"/>
                </mxCell>
                <mxCell id="xoeoE_2J9vq2hr8RCRhO-63" value="※必須" style="text;html=1;align=left;verticalAlign=middle;whiteSpace=wrap;rounded=0;fontSize=9;spacingLeft=0;spacing=2;fillColor=default;fontStyle=0;fontColor=#FF0000;" parent="1" vertex="1">
                    <mxGeometry x="2424" y="476.5" width="30.5" height="15" as="geometry"/>
                </mxCell>
                <mxCell id="xoeoE_2J9vq2hr8RCRhO-64" value="※必須" style="text;html=1;align=left;verticalAlign=middle;whiteSpace=wrap;rounded=0;fontSize=9;spacingLeft=0;spacing=2;fillColor=default;fontStyle=0;fontColor=#FF0000;" parent="1" vertex="1">
                    <mxGeometry x="2424" y="548.5" width="30.5" height="15" as="geometry"/>
                </mxCell>
                <mxCell id="xoeoE_2J9vq2hr8RCRhO-65" value="※必須" style="text;html=1;align=left;verticalAlign=middle;whiteSpace=wrap;rounded=0;fontSize=9;spacingLeft=0;spacing=2;fillColor=default;fontStyle=0;fontColor=#FF0000;" parent="1" vertex="1">
                    <mxGeometry x="2393.5" y="618.5" width="30.5" height="15" as="geometry"/>
                </mxCell>
                <mxCell id="xoeoE_2J9vq2hr8RCRhO-66" value="" style="triangle;whiteSpace=wrap;html=1;rotation=90;strokeColor=none;fillColor=#000000;" parent="1" vertex="1">
                    <mxGeometry x="1330" y="150" width="5" height="10" as="geometry"/>
                </mxCell>
                <mxCell id="xoeoE_2J9vq2hr8RCRhO-68" value="" style="shape=image;html=1;verticalAlign=top;verticalLabelPosition=bottom;labelBackgroundColor=#ffffff;imageAspect=0;aspect=fixed;image=https://cdn3.iconfinder.com/data/icons/internet-and-web-4/78/internt_web_technology-01-128.png" parent="1" vertex="1">
                    <mxGeometry x="1200" y="145" width="20" height="20" as="geometry"/>
                </mxCell>
                <mxCell id="xoeoE_2J9vq2hr8RCRhO-69" value="&lt;span&gt;Language&lt;/span&gt;" style="text;html=1;align=center;verticalAlign=middle;whiteSpace=wrap;rounded=0;fontSize=20;fontStyle=0" parent="1" vertex="1">
                    <mxGeometry x="3000" y="140" width="140" height="30" as="geometry"/>
                </mxCell>
                <mxCell id="xoeoE_2J9vq2hr8RCRhO-70" value="" style="triangle;whiteSpace=wrap;html=1;rotation=90;strokeColor=none;fillColor=#000000;" parent="1" vertex="1">
                    <mxGeometry x="3130" y="150" width="5" height="10" as="geometry"/>
                </mxCell>
                <mxCell id="xoeoE_2J9vq2hr8RCRhO-71" value="" style="shape=image;html=1;verticalAlign=top;verticalLabelPosition=bottom;labelBackgroundColor=#ffffff;imageAspect=0;aspect=fixed;image=https://cdn3.iconfinder.com/data/icons/internet-and-web-4/78/internt_web_technology-01-128.png" parent="1" vertex="1">
                    <mxGeometry x="3000" y="145" width="20" height="20" as="geometry"/>
                </mxCell>
                <mxCell id="xoeoE_2J9vq2hr8RCRhO-72" value="&lt;span&gt;Language&lt;/span&gt;" style="text;html=1;align=center;verticalAlign=middle;whiteSpace=wrap;rounded=0;fontSize=20;fontStyle=0" parent="1" vertex="1">
                    <mxGeometry x="4800" y="140" width="140" height="30" as="geometry"/>
                </mxCell>
                <mxCell id="xoeoE_2J9vq2hr8RCRhO-73" value="" style="triangle;whiteSpace=wrap;html=1;rotation=90;strokeColor=none;fillColor=#000000;" parent="1" vertex="1">
                    <mxGeometry x="4930" y="150" width="5" height="10" as="geometry"/>
                </mxCell>
                <mxCell id="xoeoE_2J9vq2hr8RCRhO-74" value="" style="shape=image;html=1;verticalAlign=top;verticalLabelPosition=bottom;labelBackgroundColor=#ffffff;imageAspect=0;aspect=fixed;image=https://cdn3.iconfinder.com/data/icons/internet-and-web-4/78/internt_web_technology-01-128.png" parent="1" vertex="1">
                    <mxGeometry x="4800" y="145" width="20" height="20" as="geometry"/>
                </mxCell>
                <mxCell id="xoeoE_2J9vq2hr8RCRhO-75" value="&lt;span&gt;Language&lt;/span&gt;" style="text;html=1;align=center;verticalAlign=middle;whiteSpace=wrap;rounded=0;fontSize=20;fontStyle=0" parent="1" vertex="1">
                    <mxGeometry x="6600" y="140" width="140" height="30" as="geometry"/>
                </mxCell>
                <mxCell id="xoeoE_2J9vq2hr8RCRhO-76" value="" style="triangle;whiteSpace=wrap;html=1;rotation=90;strokeColor=none;fillColor=#000000;" parent="1" vertex="1">
                    <mxGeometry x="6730" y="150" width="5" height="10" as="geometry"/>
                </mxCell>
                <mxCell id="xoeoE_2J9vq2hr8RCRhO-77" value="" style="shape=image;html=1;verticalAlign=top;verticalLabelPosition=bottom;labelBackgroundColor=#ffffff;imageAspect=0;aspect=fixed;image=https://cdn3.iconfinder.com/data/icons/internet-and-web-4/78/internt_web_technology-01-128.png" parent="1" vertex="1">
                    <mxGeometry x="6600" y="145" width="20" height="20" as="geometry"/>
                </mxCell>
                <mxCell id="xoeoE_2J9vq2hr8RCRhO-78" value="&lt;span&gt;Language&lt;/span&gt;" style="text;html=1;align=center;verticalAlign=middle;whiteSpace=wrap;rounded=0;fontSize=20;fontStyle=0" parent="1" vertex="1">
                    <mxGeometry x="8400" y="140" width="140" height="30" as="geometry"/>
                </mxCell>
                <mxCell id="xoeoE_2J9vq2hr8RCRhO-79" value="" style="triangle;whiteSpace=wrap;html=1;rotation=90;strokeColor=none;fillColor=#000000;" parent="1" vertex="1">
                    <mxGeometry x="8530" y="150" width="5" height="10" as="geometry"/>
                </mxCell>
                <mxCell id="xoeoE_2J9vq2hr8RCRhO-80" value="" style="shape=image;html=1;verticalAlign=top;verticalLabelPosition=bottom;labelBackgroundColor=#ffffff;imageAspect=0;aspect=fixed;image=https://cdn3.iconfinder.com/data/icons/internet-and-web-4/78/internt_web_technology-01-128.png" parent="1" vertex="1">
                    <mxGeometry x="8400" y="145" width="20" height="20" as="geometry"/>
                </mxCell>
                <mxCell id="xoeoE_2J9vq2hr8RCRhO-81" value="&lt;span&gt;Language&lt;/span&gt;" style="text;html=1;align=center;verticalAlign=middle;whiteSpace=wrap;rounded=0;fontSize=20;fontStyle=0" parent="1" vertex="1">
                    <mxGeometry x="10200" y="140" width="140" height="30" as="geometry"/>
                </mxCell>
                <mxCell id="xoeoE_2J9vq2hr8RCRhO-82" value="" style="triangle;whiteSpace=wrap;html=1;rotation=90;strokeColor=none;fillColor=#000000;" parent="1" vertex="1">
                    <mxGeometry x="10330" y="150" width="5" height="10" as="geometry"/>
                </mxCell>
                <mxCell id="xoeoE_2J9vq2hr8RCRhO-83" value="" style="shape=image;html=1;verticalAlign=top;verticalLabelPosition=bottom;labelBackgroundColor=#ffffff;imageAspect=0;aspect=fixed;image=https://cdn3.iconfinder.com/data/icons/internet-and-web-4/78/internt_web_technology-01-128.png" parent="1" vertex="1">
                    <mxGeometry x="10200" y="145" width="20" height="20" as="geometry"/>
                </mxCell>
                <mxCell id="xoeoE_2J9vq2hr8RCRhO-105" value="" style="childLayout=tableLayout;recursiveResize=0;shadow=0;fillColor=default;align=left;spacing=2;spacingLeft=5;" parent="1" vertex="1">
                    <mxGeometry x="8620" y="880" width="400" height="797" as="geometry"/>
                </mxCell>
                <mxCell id="xoeoE_2J9vq2hr8RCRhO-106" value="" style="shape=tableRow;horizontal=0;startSize=0;swimlaneHead=0;swimlaneBody=0;top=0;left=0;bottom=0;right=0;dropTarget=0;collapsible=0;recursiveResize=0;expand=0;fontStyle=0;fillColor=none;strokeColor=inherit;spacingLeft=5;" parent="xoeoE_2J9vq2hr8RCRhO-105" vertex="1">
                    <mxGeometry width="400" height="47" as="geometry"/>
                </mxCell>
                <mxCell id="xoeoE_2J9vq2hr8RCRhO-107" value="フォーム" style="connectable=0;recursiveResize=0;strokeColor=inherit;fillColor=#4D4D4D;align=left;whiteSpace=wrap;html=1;fontColor=#FFFFFF;fontStyle=1;spacingLeft=5;" parent="xoeoE_2J9vq2hr8RCRhO-106" vertex="1">
                    <mxGeometry width="200" height="47" as="geometry">
                        <mxRectangle width="200" height="47" as="alternateBounds"/>
                    </mxGeometry>
                </mxCell>
                <mxCell id="xoeoE_2J9vq2hr8RCRhO-108" value="データベース" style="connectable=0;recursiveResize=0;strokeColor=inherit;fillColor=#4D4D4D;align=left;whiteSpace=wrap;html=1;fontStyle=1;fontColor=#FFFFFF;spacingLeft=5;" parent="xoeoE_2J9vq2hr8RCRhO-106" vertex="1">
                    <mxGeometry x="200" width="200" height="47" as="geometry">
                        <mxRectangle width="200" height="47" as="alternateBounds"/>
                    </mxGeometry>
                </mxCell>
                <mxCell id="22" style="shape=tableRow;horizontal=0;startSize=0;swimlaneHead=0;swimlaneBody=0;top=0;left=0;bottom=0;right=0;dropTarget=0;collapsible=0;recursiveResize=0;expand=0;fontStyle=0;fillColor=none;strokeColor=inherit;spacingLeft=5;" vertex="1" parent="xoeoE_2J9vq2hr8RCRhO-105">
                    <mxGeometry y="47" width="400" height="46" as="geometry"/>
                </mxCell>
                <mxCell id="23" value="" style="connectable=0;recursiveResize=0;strokeColor=inherit;fillColor=none;align=left;whiteSpace=wrap;html=1;spacingLeft=5;" vertex="1" parent="22">
                    <mxGeometry width="200" height="46" as="geometry">
                        <mxRectangle width="200" height="46" as="alternateBounds"/>
                    </mxGeometry>
                </mxCell>
                <mxCell id="24" value="users.number" style="connectable=0;recursiveResize=0;strokeColor=inherit;fillColor=none;align=left;whiteSpace=wrap;html=1;spacingLeft=5;" vertex="1" parent="22">
                    <mxGeometry x="200" width="200" height="46" as="geometry">
                        <mxRectangle width="200" height="46" as="alternateBounds"/>
                    </mxGeometry>
                </mxCell>
                <mxCell id="xoeoE_2J9vq2hr8RCRhO-110" style="shape=tableRow;horizontal=0;startSize=0;swimlaneHead=0;swimlaneBody=0;top=0;left=0;bottom=0;right=0;dropTarget=0;collapsible=0;recursiveResize=0;expand=0;fontStyle=0;fillColor=none;strokeColor=inherit;spacingLeft=5;" parent="xoeoE_2J9vq2hr8RCRhO-105" vertex="1">
                    <mxGeometry y="93" width="400" height="46" as="geometry"/>
                </mxCell>
                <mxCell id="xoeoE_2J9vq2hr8RCRhO-111" value="氏名" style="connectable=0;recursiveResize=0;strokeColor=inherit;fillColor=none;align=left;whiteSpace=wrap;html=1;spacingLeft=5;" parent="xoeoE_2J9vq2hr8RCRhO-110" vertex="1">
                    <mxGeometry width="200" height="46" as="geometry">
                        <mxRectangle width="200" height="46" as="alternateBounds"/>
                    </mxGeometry>
                </mxCell>
                <mxCell id="xoeoE_2J9vq2hr8RCRhO-112" value="users.name" style="connectable=0;recursiveResize=0;strokeColor=inherit;fillColor=none;align=left;whiteSpace=wrap;html=1;spacingLeft=5;" parent="xoeoE_2J9vq2hr8RCRhO-110" vertex="1">
                    <mxGeometry x="200" width="200" height="46" as="geometry">
                        <mxRectangle width="200" height="46" as="alternateBounds"/>
                    </mxGeometry>
                </mxCell>
                <mxCell id="xoeoE_2J9vq2hr8RCRhO-114" style="shape=tableRow;horizontal=0;startSize=0;swimlaneHead=0;swimlaneBody=0;top=0;left=0;bottom=0;right=0;dropTarget=0;collapsible=0;recursiveResize=0;expand=0;fontStyle=0;fillColor=none;strokeColor=inherit;spacingLeft=5;" parent="xoeoE_2J9vq2hr8RCRhO-105" vertex="1">
                    <mxGeometry y="139" width="400" height="47" as="geometry"/>
                </mxCell>
                <mxCell id="xoeoE_2J9vq2hr8RCRhO-115" value="氏名（ふりがな）" style="connectable=0;recursiveResize=0;strokeColor=inherit;fillColor=none;align=left;whiteSpace=wrap;html=1;spacingLeft=5;" parent="xoeoE_2J9vq2hr8RCRhO-114" vertex="1">
                    <mxGeometry width="200" height="47" as="geometry">
                        <mxRectangle width="200" height="47" as="alternateBounds"/>
                    </mxGeometry>
                </mxCell>
                <mxCell id="xoeoE_2J9vq2hr8RCRhO-116" value="users.pronunciation" style="connectable=0;recursiveResize=0;strokeColor=inherit;fillColor=none;align=left;whiteSpace=wrap;html=1;spacingLeft=5;" parent="xoeoE_2J9vq2hr8RCRhO-114" vertex="1">
                    <mxGeometry x="200" width="200" height="47" as="geometry">
                        <mxRectangle width="200" height="47" as="alternateBounds"/>
                    </mxGeometry>
                </mxCell>
                <mxCell id="xoeoE_2J9vq2hr8RCRhO-118" style="shape=tableRow;horizontal=0;startSize=0;swimlaneHead=0;swimlaneBody=0;top=0;left=0;bottom=0;right=0;dropTarget=0;collapsible=0;recursiveResize=0;expand=0;fontStyle=0;fillColor=none;strokeColor=inherit;spacingLeft=5;" parent="xoeoE_2J9vq2hr8RCRhO-105" vertex="1">
                    <mxGeometry y="186" width="400" height="47" as="geometry"/>
                </mxCell>
                <mxCell id="xoeoE_2J9vq2hr8RCRhO-119" value="都道府県" style="connectable=0;recursiveResize=0;strokeColor=inherit;fillColor=none;align=left;whiteSpace=wrap;html=1;spacingLeft=5;" parent="xoeoE_2J9vq2hr8RCRhO-118" vertex="1">
                    <mxGeometry width="200" height="47" as="geometry">
                        <mxRectangle width="200" height="47" as="alternateBounds"/>
                    </mxGeometry>
                </mxCell>
                <mxCell id="xoeoE_2J9vq2hr8RCRhO-120" value="users.prefecture_id" style="connectable=0;recursiveResize=0;strokeColor=inherit;fillColor=none;align=left;whiteSpace=wrap;html=1;spacingLeft=5;" parent="xoeoE_2J9vq2hr8RCRhO-118" vertex="1">
                    <mxGeometry x="200" width="200" height="47" as="geometry">
                        <mxRectangle width="200" height="47" as="alternateBounds"/>
                    </mxGeometry>
                </mxCell>
                <mxCell id="16" style="shape=tableRow;horizontal=0;startSize=0;swimlaneHead=0;swimlaneBody=0;top=0;left=0;bottom=0;right=0;dropTarget=0;collapsible=0;recursiveResize=0;expand=0;fontStyle=0;fillColor=none;strokeColor=inherit;spacingLeft=5;" vertex="1" parent="xoeoE_2J9vq2hr8RCRhO-105">
                    <mxGeometry y="233" width="400" height="47" as="geometry"/>
                </mxCell>
                <mxCell id="17" value="都道府県（その他）" style="connectable=0;recursiveResize=0;strokeColor=inherit;fillColor=none;align=left;whiteSpace=wrap;html=1;spacingLeft=5;" vertex="1" parent="16">
                    <mxGeometry width="200" height="47" as="geometry">
                        <mxRectangle width="200" height="47" as="alternateBounds"/>
                    </mxGeometry>
                </mxCell>
                <mxCell id="18" value="users.prefecture_other" style="connectable=0;recursiveResize=0;strokeColor=inherit;fillColor=none;align=left;whiteSpace=wrap;html=1;spacingLeft=5;" vertex="1" parent="16">
                    <mxGeometry x="200" width="200" height="47" as="geometry">
                        <mxRectangle width="200" height="47" as="alternateBounds"/>
                    </mxGeometry>
                </mxCell>
                <mxCell id="xoeoE_2J9vq2hr8RCRhO-124" style="shape=tableRow;horizontal=0;startSize=0;swimlaneHead=0;swimlaneBody=0;top=0;left=0;bottom=0;right=0;dropTarget=0;collapsible=0;recursiveResize=0;expand=0;fontStyle=0;fillColor=none;strokeColor=inherit;spacingLeft=5;" parent="xoeoE_2J9vq2hr8RCRhO-105" vertex="1">
                    <mxGeometry y="280" width="400" height="47" as="geometry"/>
                </mxCell>
                <mxCell id="xoeoE_2J9vq2hr8RCRhO-125" value="市区町村" style="connectable=0;recursiveResize=0;strokeColor=inherit;fillColor=none;align=left;whiteSpace=wrap;html=1;spacingLeft=5;" parent="xoeoE_2J9vq2hr8RCRhO-124" vertex="1">
                    <mxGeometry width="200" height="47" as="geometry">
                        <mxRectangle width="200" height="47" as="alternateBounds"/>
                    </mxGeometry>
                </mxCell>
                <mxCell id="xoeoE_2J9vq2hr8RCRhO-126" value="users.city" style="connectable=0;recursiveResize=0;strokeColor=inherit;fillColor=none;align=left;whiteSpace=wrap;html=1;spacingLeft=5;" parent="xoeoE_2J9vq2hr8RCRhO-124" vertex="1">
                    <mxGeometry x="200" width="200" height="47" as="geometry">
                        <mxRectangle width="200" height="47" as="alternateBounds"/>
                    </mxGeometry>
                </mxCell>
                <mxCell id="xoeoE_2J9vq2hr8RCRhO-121" style="shape=tableRow;horizontal=0;startSize=0;swimlaneHead=0;swimlaneBody=0;top=0;left=0;bottom=0;right=0;dropTarget=0;collapsible=0;recursiveResize=0;expand=0;fontStyle=0;fillColor=none;strokeColor=inherit;spacingLeft=5;" parent="xoeoE_2J9vq2hr8RCRhO-105" vertex="1">
                    <mxGeometry y="327" width="400" height="47" as="geometry"/>
                </mxCell>
                <mxCell id="xoeoE_2J9vq2hr8RCRhO-122" value="丁目" style="connectable=0;recursiveResize=0;strokeColor=inherit;fillColor=none;align=left;whiteSpace=wrap;html=1;spacingLeft=5;" parent="xoeoE_2J9vq2hr8RCRhO-121" vertex="1">
                    <mxGeometry width="200" height="47" as="geometry">
                        <mxRectangle width="200" height="47" as="alternateBounds"/>
                    </mxGeometry>
                </mxCell>
                <mxCell id="xoeoE_2J9vq2hr8RCRhO-123" value="users.address" style="connectable=0;recursiveResize=0;strokeColor=inherit;fillColor=none;align=left;whiteSpace=wrap;html=1;spacingLeft=5;" parent="xoeoE_2J9vq2hr8RCRhO-121" vertex="1">
                    <mxGeometry x="200" width="200" height="47" as="geometry">
                        <mxRectangle width="200" height="47" as="alternateBounds"/>
                    </mxGeometry>
                </mxCell>
                <mxCell id="xoeoE_2J9vq2hr8RCRhO-127" style="shape=tableRow;horizontal=0;startSize=0;swimlaneHead=0;swimlaneBody=0;top=0;left=0;bottom=0;right=0;dropTarget=0;collapsible=0;recursiveResize=0;expand=0;fontStyle=0;fillColor=none;strokeColor=inherit;spacingLeft=5;" parent="xoeoE_2J9vq2hr8RCRhO-105" vertex="1">
                    <mxGeometry y="374" width="400" height="47" as="geometry"/>
                </mxCell>
                <mxCell id="xoeoE_2J9vq2hr8RCRhO-128" value="電話番号" style="connectable=0;recursiveResize=0;strokeColor=inherit;fillColor=none;align=left;whiteSpace=wrap;html=1;spacingLeft=5;" parent="xoeoE_2J9vq2hr8RCRhO-127" vertex="1">
                    <mxGeometry width="200" height="47" as="geometry">
                        <mxRectangle width="200" height="47" as="alternateBounds"/>
                    </mxGeometry>
                </mxCell>
                <mxCell id="xoeoE_2J9vq2hr8RCRhO-129" value="user.phone" style="connectable=0;recursiveResize=0;strokeColor=inherit;fillColor=none;align=left;whiteSpace=wrap;html=1;spacingLeft=5;" parent="xoeoE_2J9vq2hr8RCRhO-127" vertex="1">
                    <mxGeometry x="200" width="200" height="47" as="geometry">
                        <mxRectangle width="200" height="47" as="alternateBounds"/>
                    </mxGeometry>
                </mxCell>
                <mxCell id="BM-8tTZeH3DorDDww9fx-1" style="shape=tableRow;horizontal=0;startSize=0;swimlaneHead=0;swimlaneBody=0;top=0;left=0;bottom=0;right=0;dropTarget=0;collapsible=0;recursiveResize=0;expand=0;fontStyle=0;fillColor=none;strokeColor=inherit;spacingLeft=5;" parent="xoeoE_2J9vq2hr8RCRhO-105" vertex="1">
                    <mxGeometry y="421" width="400" height="47" as="geometry"/>
                </mxCell>
                <mxCell id="BM-8tTZeH3DorDDww9fx-2" value="メールアドレス" style="connectable=0;recursiveResize=0;strokeColor=inherit;fillColor=none;align=left;whiteSpace=wrap;html=1;spacingLeft=5;" parent="BM-8tTZeH3DorDDww9fx-1" vertex="1">
                    <mxGeometry width="200" height="47" as="geometry">
                        <mxRectangle width="200" height="47" as="alternateBounds"/>
                    </mxGeometry>
                </mxCell>
                <mxCell id="BM-8tTZeH3DorDDww9fx-3" value="user.email" style="connectable=0;recursiveResize=0;strokeColor=inherit;fillColor=none;align=left;whiteSpace=wrap;html=1;spacingLeft=5;" parent="BM-8tTZeH3DorDDww9fx-1" vertex="1">
                    <mxGeometry x="200" width="200" height="47" as="geometry">
                        <mxRectangle width="200" height="47" as="alternateBounds"/>
                    </mxGeometry>
                </mxCell>
                <mxCell id="BM-8tTZeH3DorDDww9fx-4" style="shape=tableRow;horizontal=0;startSize=0;swimlaneHead=0;swimlaneBody=0;top=0;left=0;bottom=0;right=0;dropTarget=0;collapsible=0;recursiveResize=0;expand=0;fontStyle=0;fillColor=none;strokeColor=inherit;spacingLeft=5;" parent="xoeoE_2J9vq2hr8RCRhO-105" vertex="1">
                    <mxGeometry y="468" width="400" height="47" as="geometry"/>
                </mxCell>
                <mxCell id="BM-8tTZeH3DorDDww9fx-5" value="所属" style="connectable=0;recursiveResize=0;strokeColor=inherit;fillColor=none;align=left;whiteSpace=wrap;html=1;spacingLeft=5;" parent="BM-8tTZeH3DorDDww9fx-4" vertex="1">
                    <mxGeometry width="200" height="47" as="geometry">
                        <mxRectangle width="200" height="47" as="alternateBounds"/>
                    </mxGeometry>
                </mxCell>
                <mxCell id="BM-8tTZeH3DorDDww9fx-6" value="user.belong_id" style="connectable=0;recursiveResize=0;strokeColor=inherit;fillColor=none;align=left;whiteSpace=wrap;html=1;spacingLeft=5;" parent="BM-8tTZeH3DorDDww9fx-4" vertex="1">
                    <mxGeometry x="200" width="200" height="47" as="geometry">
                        <mxRectangle width="200" height="47" as="alternateBounds"/>
                    </mxGeometry>
                </mxCell>
                <mxCell id="BM-8tTZeH3DorDDww9fx-7" style="shape=tableRow;horizontal=0;startSize=0;swimlaneHead=0;swimlaneBody=0;top=0;left=0;bottom=0;right=0;dropTarget=0;collapsible=0;recursiveResize=0;expand=0;fontStyle=0;fillColor=none;strokeColor=inherit;spacingLeft=5;" parent="xoeoE_2J9vq2hr8RCRhO-105" vertex="1">
                    <mxGeometry y="515" width="400" height="47" as="geometry"/>
                </mxCell>
                <mxCell id="BM-8tTZeH3DorDDww9fx-8" value="所属（その他）" style="connectable=0;recursiveResize=0;strokeColor=inherit;fillColor=none;align=left;whiteSpace=wrap;html=1;spacingLeft=5;" parent="BM-8tTZeH3DorDDww9fx-7" vertex="1">
                    <mxGeometry width="200" height="47" as="geometry">
                        <mxRectangle width="200" height="47" as="alternateBounds"/>
                    </mxGeometry>
                </mxCell>
                <mxCell id="BM-8tTZeH3DorDDww9fx-9" value="user.belong_other" style="connectable=0;recursiveResize=0;strokeColor=inherit;fillColor=none;align=left;whiteSpace=wrap;html=1;spacingLeft=5;" parent="BM-8tTZeH3DorDDww9fx-7" vertex="1">
                    <mxGeometry x="200" width="200" height="47" as="geometry">
                        <mxRectangle width="200" height="47" as="alternateBounds"/>
                    </mxGeometry>
                </mxCell>
                <mxCell id="BM-8tTZeH3DorDDww9fx-10" style="shape=tableRow;horizontal=0;startSize=0;swimlaneHead=0;swimlaneBody=0;top=0;left=0;bottom=0;right=0;dropTarget=0;collapsible=0;recursiveResize=0;expand=0;fontStyle=0;fillColor=none;strokeColor=inherit;spacingLeft=5;" parent="xoeoE_2J9vq2hr8RCRhO-105" vertex="1">
                    <mxGeometry y="562" width="400" height="47" as="geometry"/>
                </mxCell>
                <mxCell id="BM-8tTZeH3DorDDww9fx-11" value="所属詳細" style="connectable=0;recursiveResize=0;strokeColor=inherit;fillColor=none;align=left;whiteSpace=wrap;html=1;spacingLeft=5;" parent="BM-8tTZeH3DorDDww9fx-10" vertex="1">
                    <mxGeometry width="200" height="47" as="geometry">
                        <mxRectangle width="200" height="47" as="alternateBounds"/>
                    </mxGeometry>
                </mxCell>
                <mxCell id="BM-8tTZeH3DorDDww9fx-12" value="user.belong_detail" style="connectable=0;recursiveResize=0;strokeColor=inherit;fillColor=none;align=left;whiteSpace=wrap;html=1;spacingLeft=5;" parent="BM-8tTZeH3DorDDww9fx-10" vertex="1">
                    <mxGeometry x="200" width="200" height="47" as="geometry">
                        <mxRectangle width="200" height="47" as="alternateBounds"/>
                    </mxGeometry>
                </mxCell>
                <mxCell id="BM-8tTZeH3DorDDww9fx-13" style="shape=tableRow;horizontal=0;startSize=0;swimlaneHead=0;swimlaneBody=0;top=0;left=0;bottom=0;right=0;dropTarget=0;collapsible=0;recursiveResize=0;expand=0;fontStyle=0;fillColor=none;strokeColor=inherit;spacingLeft=5;" parent="xoeoE_2J9vq2hr8RCRhO-105" vertex="1">
                    <mxGeometry y="609" width="400" height="47" as="geometry"/>
                </mxCell>
                <mxCell id="BM-8tTZeH3DorDDww9fx-14" value="職種" style="connectable=0;recursiveResize=0;strokeColor=inherit;fillColor=none;align=left;whiteSpace=wrap;html=1;spacingLeft=5;" parent="BM-8tTZeH3DorDDww9fx-13" vertex="1">
                    <mxGeometry width="200" height="47" as="geometry">
                        <mxRectangle width="200" height="47" as="alternateBounds"/>
                    </mxGeometry>
                </mxCell>
                <mxCell id="BM-8tTZeH3DorDDww9fx-15" value="user.job_id" style="connectable=0;recursiveResize=0;strokeColor=inherit;fillColor=none;align=left;whiteSpace=wrap;html=1;spacingLeft=5;" parent="BM-8tTZeH3DorDDww9fx-13" vertex="1">
                    <mxGeometry x="200" width="200" height="47" as="geometry">
                        <mxRectangle width="200" height="47" as="alternateBounds"/>
                    </mxGeometry>
                </mxCell>
                <mxCell id="BM-8tTZeH3DorDDww9fx-16" style="shape=tableRow;horizontal=0;startSize=0;swimlaneHead=0;swimlaneBody=0;top=0;left=0;bottom=0;right=0;dropTarget=0;collapsible=0;recursiveResize=0;expand=0;fontStyle=0;fillColor=none;strokeColor=inherit;spacingLeft=5;" parent="xoeoE_2J9vq2hr8RCRhO-105" vertex="1">
                    <mxGeometry y="656" width="400" height="47" as="geometry"/>
                </mxCell>
                <mxCell id="BM-8tTZeH3DorDDww9fx-17" value="職種（その他）" style="connectable=0;recursiveResize=0;strokeColor=inherit;fillColor=none;align=left;whiteSpace=wrap;html=1;spacingLeft=5;" parent="BM-8tTZeH3DorDDww9fx-16" vertex="1">
                    <mxGeometry width="200" height="47" as="geometry">
                        <mxRectangle width="200" height="47" as="alternateBounds"/>
                    </mxGeometry>
                </mxCell>
                <mxCell id="BM-8tTZeH3DorDDww9fx-18" value="user.job_other" style="connectable=0;recursiveResize=0;strokeColor=inherit;fillColor=none;align=left;whiteSpace=wrap;html=1;spacingLeft=5;" parent="BM-8tTZeH3DorDDww9fx-16" vertex="1">
                    <mxGeometry x="200" width="200" height="47" as="geometry">
                        <mxRectangle width="200" height="47" as="alternateBounds"/>
                    </mxGeometry>
                </mxCell>
                <mxCell id="BM-8tTZeH3DorDDww9fx-19" style="shape=tableRow;horizontal=0;startSize=0;swimlaneHead=0;swimlaneBody=0;top=0;left=0;bottom=0;right=0;dropTarget=0;collapsible=0;recursiveResize=0;expand=0;fontStyle=0;fillColor=none;strokeColor=inherit;spacingLeft=5;" parent="xoeoE_2J9vq2hr8RCRhO-105" vertex="1">
                    <mxGeometry y="703" width="400" height="47" as="geometry"/>
                </mxCell>
                <mxCell id="BM-8tTZeH3DorDDww9fx-20" value="エンジニアカフェをどこで知った" style="connectable=0;recursiveResize=0;strokeColor=inherit;fillColor=none;align=left;whiteSpace=wrap;html=1;spacingLeft=5;" parent="BM-8tTZeH3DorDDww9fx-19" vertex="1">
                    <mxGeometry width="200" height="47" as="geometry">
                        <mxRectangle width="200" height="47" as="alternateBounds"/>
                    </mxGeometry>
                </mxCell>
                <mxCell id="BM-8tTZeH3DorDDww9fx-21" value="user.found_id" style="connectable=0;recursiveResize=0;strokeColor=inherit;fillColor=none;align=left;whiteSpace=wrap;html=1;spacingLeft=5;" parent="BM-8tTZeH3DorDDww9fx-19" vertex="1">
                    <mxGeometry x="200" width="200" height="47" as="geometry">
                        <mxRectangle width="200" height="47" as="alternateBounds"/>
                    </mxGeometry>
                </mxCell>
                <mxCell id="BM-8tTZeH3DorDDww9fx-22" style="shape=tableRow;horizontal=0;startSize=0;swimlaneHead=0;swimlaneBody=0;top=0;left=0;bottom=0;right=0;dropTarget=0;collapsible=0;recursiveResize=0;expand=0;fontStyle=0;fillColor=none;strokeColor=inherit;spacingLeft=5;" parent="xoeoE_2J9vq2hr8RCRhO-105" vertex="1">
                    <mxGeometry y="750" width="400" height="47" as="geometry"/>
                </mxCell>
                <mxCell id="BM-8tTZeH3DorDDww9fx-23" value="エンジニアカフェどこで知った&lt;div&gt;（その他）&lt;/div&gt;" style="connectable=0;recursiveResize=0;strokeColor=inherit;fillColor=none;align=left;whiteSpace=wrap;html=1;spacingLeft=5;" parent="BM-8tTZeH3DorDDww9fx-22" vertex="1">
                    <mxGeometry width="200" height="47" as="geometry">
                        <mxRectangle width="200" height="47" as="alternateBounds"/>
                    </mxGeometry>
                </mxCell>
                <mxCell id="BM-8tTZeH3DorDDww9fx-24" value="user.found_other" style="connectable=0;recursiveResize=0;strokeColor=inherit;fillColor=none;align=left;whiteSpace=wrap;html=1;spacingLeft=5;" parent="BM-8tTZeH3DorDDww9fx-22" vertex="1">
                    <mxGeometry x="200" width="200" height="47" as="geometry">
                        <mxRectangle width="200" height="47" as="alternateBounds"/>
                    </mxGeometry>
                </mxCell>
                <mxCell id="BM-8tTZeH3DorDDww9fx-41" value="belongsから選択" style="shape=note;strokeWidth=2;fontSize=14;size=20;whiteSpace=wrap;html=1;fillColor=#f5f5f5;strokeColor=#999999;fontColor=#333333;align=left;spacing=10;shadow=1;" parent="1" vertex="1">
                    <mxGeometry x="5002.5" y="379" width="169" height="70" as="geometry"/>
                </mxCell>
                <mxCell id="BM-8tTZeH3DorDDww9fx-42" style="rounded=1;orthogonalLoop=1;jettySize=auto;html=1;entryX=1;entryY=0.5;entryDx=0;entryDy=0;exitX=0;exitY=0.5;exitDx=0;exitDy=0;exitPerimeter=0;endArrow=oval;endFill=1;shadow=1;strokeColor=#4D4D4D;strokeWidth=1;edgeStyle=orthogonalEdgeStyle;jumpStyle=none;jumpSize=6;startSize=6;endSize=8;curved=0;" parent="1" source="BM-8tTZeH3DorDDww9fx-41" edge="1">
                    <mxGeometry relative="1" as="geometry">
                        <mxPoint x="4316.5" y="414" as="targetPoint"/>
                        <Array as="points">
                            <mxPoint x="4840" y="414"/>
                            <mxPoint x="4840" y="414"/>
                        </Array>
                    </mxGeometry>
                </mxCell>
                <mxCell id="BM-8tTZeH3DorDDww9fx-43" value="jobsから選択" style="shape=note;strokeWidth=2;fontSize=14;size=20;whiteSpace=wrap;html=1;fillColor=#f5f5f5;strokeColor=#999999;fontColor=#333333;align=left;spacing=10;shadow=1;" parent="1" vertex="1">
                    <mxGeometry x="5002.5" y="650" width="169" height="70" as="geometry"/>
                </mxCell>
                <mxCell id="BM-8tTZeH3DorDDww9fx-44" style="rounded=1;orthogonalLoop=1;jettySize=auto;html=1;entryX=1;entryY=0.5;entryDx=0;entryDy=0;exitX=0;exitY=0.5;exitDx=0;exitDy=0;exitPerimeter=0;endArrow=oval;endFill=1;shadow=1;strokeColor=#4D4D4D;strokeWidth=1;edgeStyle=orthogonalEdgeStyle;jumpStyle=none;jumpSize=6;startSize=6;endSize=8;curved=0;" parent="1" source="BM-8tTZeH3DorDDww9fx-43" edge="1" target="V6eRgOUS85zWo4gEC153-41">
                    <mxGeometry relative="1" as="geometry">
                        <mxPoint x="4424" y="685" as="targetPoint"/>
                        <Array as="points"/>
                    </mxGeometry>
                </mxCell>
                <mxCell id="BM-8tTZeH3DorDDww9fx-45" value="foundsから選択" style="shape=note;strokeWidth=2;fontSize=14;size=20;whiteSpace=wrap;html=1;fillColor=#f5f5f5;strokeColor=#999999;fontColor=#333333;align=left;spacing=10;shadow=1;" parent="1" vertex="1">
                    <mxGeometry x="6838.5" y="208.5" width="169" height="70" as="geometry"/>
                </mxCell>
                <mxCell id="BM-8tTZeH3DorDDww9fx-46" style="rounded=1;orthogonalLoop=1;jettySize=auto;html=1;entryX=1;entryY=0.5;entryDx=0;entryDy=0;exitX=0;exitY=0.5;exitDx=0;exitDy=0;exitPerimeter=0;endArrow=oval;endFill=1;shadow=1;strokeColor=#4D4D4D;strokeWidth=1;edgeStyle=orthogonalEdgeStyle;jumpStyle=none;jumpSize=6;startSize=6;endSize=8;curved=0;" parent="1" source="BM-8tTZeH3DorDDww9fx-45" edge="1">
                    <mxGeometry relative="1" as="geometry">
                        <mxPoint x="6260" y="243.5" as="targetPoint"/>
                        <Array as="points">
                            <mxPoint x="6783.5" y="243.5"/>
                            <mxPoint x="6783.5" y="243.5"/>
                        </Array>
                    </mxGeometry>
                </mxCell>
                <mxCell id="BM-8tTZeH3DorDDww9fx-47" value="routeは実装しながら決定する" style="shape=note;strokeWidth=2;fontSize=14;size=20;whiteSpace=wrap;html=1;fillColor=#f5f5f5;strokeColor=#999999;fontColor=#333333;align=left;spacing=10;shadow=1;" parent="1" vertex="1">
                    <mxGeometry x="350" y="40" width="230" height="70" as="geometry"/>
                </mxCell>
                <mxCell id="2" value="&lt;b&gt;&lt;font style=&quot;color: rgb(255, 255, 255);&quot;&gt;1&lt;/font&gt;&lt;/b&gt;" style="ellipse;whiteSpace=wrap;html=1;aspect=fixed;strokeColor=none;fillColor=#422AD5;fontColor=#FFFFFF;" parent="1" vertex="1">
                    <mxGeometry x="4112" y="150" width="30" height="30" as="geometry"/>
                </mxCell>
                <mxCell id="3" value="&lt;b&gt;&lt;font style=&quot;color: rgb(255, 255, 255);&quot;&gt;1&lt;/font&gt;&lt;/b&gt;" style="ellipse;whiteSpace=wrap;html=1;aspect=fixed;strokeColor=none;fillColor=#422AD5;fontColor=#FFFFFF;" parent="1" vertex="1">
                    <mxGeometry x="2312" y="150" width="30" height="30" as="geometry"/>
                </mxCell>
                <mxCell id="4" value="&lt;b&gt;&lt;font style=&quot;color: rgb(255, 255, 255);&quot;&gt;1&lt;/font&gt;&lt;/b&gt;" style="ellipse;whiteSpace=wrap;html=1;aspect=fixed;strokeColor=none;fillColor=#422AD5;fontColor=#FFFFFF;" parent="1" vertex="1">
                    <mxGeometry x="5912" y="150" width="30" height="30" as="geometry"/>
                </mxCell>
                <mxCell id="5" value="&lt;b&gt;&lt;font style=&quot;color: rgb(255, 255, 255);&quot;&gt;1&lt;/font&gt;&lt;/b&gt;" style="ellipse;whiteSpace=wrap;html=1;aspect=fixed;strokeColor=none;fillColor=#422AD5;fontColor=#FFFFFF;" parent="1" vertex="1">
                    <mxGeometry x="7712" y="150" width="30" height="30" as="geometry"/>
                </mxCell>
                <mxCell id="6" value="&lt;b&gt;&lt;font style=&quot;color: rgb(255, 255, 255);&quot;&gt;1&lt;/font&gt;&lt;/b&gt;" style="ellipse;whiteSpace=wrap;html=1;aspect=fixed;strokeColor=none;fillColor=#422AD5;fontColor=#FFFFFF;" parent="1" vertex="1">
                    <mxGeometry x="9512" y="150" width="30" height="30" as="geometry"/>
                </mxCell>
                <mxCell id="7" value="都道府県 その他選択時" style="rounded=0;whiteSpace=wrap;html=1;align=left;verticalAlign=top;spacing=5;spacingLeft=6;fontStyle=1;fontSize=17;strokeColor=#B3B3B3;fontColor=#000000;" vertex="1" parent="1">
                    <mxGeometry x="2760" y="880" width="395" height="220" as="geometry"/>
                </mxCell>
                <mxCell id="8" value="その他" style="rounded=1;whiteSpace=wrap;html=1;strokeColor=#CCCCCC;fillColor=none;align=left;spacingLeft=10;fontColor=#000000;" vertex="1" parent="1">
                    <mxGeometry x="2800" y="949.5" width="160" height="40" as="geometry"/>
                </mxCell>
                <mxCell id="9" value="都道府県" style="text;html=1;align=left;verticalAlign=middle;whiteSpace=wrap;rounded=0;fontSize=12;spacingLeft=0;spacing=2;fillColor=default;fontStyle=1" vertex="1" parent="1">
                    <mxGeometry x="2800" y="930.5" width="50" height="15" as="geometry"/>
                </mxCell>
                <mxCell id="10" value="" style="triangle;whiteSpace=wrap;html=1;rotation=90;strokeColor=none;fillColor=#000000;" vertex="1" parent="1">
                    <mxGeometry x="2940" y="964.5" width="5" height="10" as="geometry"/>
                </mxCell>
                <mxCell id="11" value="※必須" style="text;html=1;align=left;verticalAlign=middle;whiteSpace=wrap;rounded=0;fontSize=9;spacingLeft=0;spacing=2;fillColor=default;fontStyle=0;fontColor=#FF0000;" vertex="1" parent="1">
                    <mxGeometry x="2859" y="930.5" width="30.5" height="15" as="geometry"/>
                </mxCell>
                <mxCell id="12" value="" style="rounded=1;whiteSpace=wrap;html=1;strokeColor=#CCCCCC;fillColor=none;align=left;spacingLeft=10;fontColor=#000000;" vertex="1" parent="1">
                    <mxGeometry x="2800" y="1029" width="300" height="40" as="geometry"/>
                </mxCell>
                <mxCell id="13" value="その他（具体的に記入してください）" style="text;html=1;align=left;verticalAlign=middle;whiteSpace=wrap;rounded=0;fontSize=12;spacingLeft=0;spacing=2;fillColor=default;fontStyle=1" vertex="1" parent="1">
                    <mxGeometry x="2800" y="1010" width="210" height="15" as="geometry"/>
                </mxCell>
                <mxCell id="15" value="※必須" style="text;html=1;align=left;verticalAlign=middle;whiteSpace=wrap;rounded=0;fontSize=9;spacingLeft=0;spacing=2;fillColor=default;fontStyle=0;fontColor=#FF0000;" vertex="1" parent="1">
                    <mxGeometry x="3000" y="1010" width="30.5" height="15" as="geometry"/>
                </mxCell>
                <mxCell id="19" value="都道府県がその他の場合、&lt;div&gt;市区町村、丁目は不要&lt;/div&gt;" style="shape=note;strokeWidth=2;fontSize=14;size=20;whiteSpace=wrap;html=1;fillColor=#f5f5f5;strokeColor=#999999;fontColor=#333333;align=left;spacing=10;shadow=1;" vertex="1" parent="1">
                    <mxGeometry x="3170" y="959" width="210" height="70" as="geometry"/>
                </mxCell>
                <mxCell id="20" value="" style="shape=curlyBracket;whiteSpace=wrap;html=1;rounded=1;flipH=1;labelPosition=right;verticalLabelPosition=middle;align=left;verticalAlign=middle;" vertex="1" parent="1">
                    <mxGeometry x="2699" y="480" width="20" height="203.5" as="geometry"/>
                </mxCell>
                <mxCell id="21" style="rounded=1;orthogonalLoop=1;jettySize=auto;html=1;entryX=0.1;entryY=0.5;entryDx=0;entryDy=0;exitX=0.5;exitY=0;exitDx=0;exitDy=0;endArrow=oval;endFill=1;shadow=1;strokeColor=#4D4D4D;strokeWidth=1;edgeStyle=orthogonalEdgeStyle;jumpStyle=none;jumpSize=6;startSize=6;endSize=8;curved=0;entryPerimeter=0;" edge="1" parent="1" source="7" target="20">
                    <mxGeometry relative="1" as="geometry">
                        <mxPoint x="2535" y="526" as="targetPoint"/>
                        <Array as="points">
                            <mxPoint x="2957" y="582"/>
                        </Array>
                        <mxPoint x="3221" y="558" as="sourcePoint"/>
                    </mxGeometry>
                </mxCell>
                <mxCell id="25" value="シーケンスジェネレータを定義し、番号を取得する" style="text;html=1;align=left;verticalAlign=middle;whiteSpace=wrap;rounded=0;" vertex="1" parent="1">
                    <mxGeometry x="9030" y="934.5" width="280" height="30" as="geometry"/>
                </mxCell>
                <mxCell id="26" value="職種 その他選択時" style="rounded=0;whiteSpace=wrap;html=1;align=left;verticalAlign=top;spacing=5;spacingLeft=6;fontStyle=1;fontSize=17;strokeColor=#B3B3B3;fontColor=#000000;" vertex="1" parent="1">
                    <mxGeometry x="4560" y="880" width="395" height="220" as="geometry"/>
                </mxCell>
                <mxCell id="27" value="その他" style="rounded=1;whiteSpace=wrap;html=1;strokeColor=#CCCCCC;fillColor=none;align=left;spacingLeft=10;fontColor=#000000;" vertex="1" parent="1">
                    <mxGeometry x="4600" y="949.5" width="160" height="40" as="geometry"/>
                </mxCell>
                <mxCell id="28" value="職種" style="text;html=1;align=left;verticalAlign=middle;whiteSpace=wrap;rounded=0;fontSize=12;spacingLeft=0;spacing=2;fillColor=default;fontStyle=1" vertex="1" parent="1">
                    <mxGeometry x="4600" y="930.5" width="30" height="15" as="geometry"/>
                </mxCell>
                <mxCell id="29" value="" style="triangle;whiteSpace=wrap;html=1;rotation=90;strokeColor=none;fillColor=#000000;" vertex="1" parent="1">
                    <mxGeometry x="4740" y="964.5" width="5" height="10" as="geometry"/>
                </mxCell>
                <mxCell id="30" value="※必須" style="text;html=1;align=left;verticalAlign=middle;whiteSpace=wrap;rounded=0;fontSize=9;spacingLeft=0;spacing=2;fillColor=default;fontStyle=0;fontColor=#FF0000;" vertex="1" parent="1">
                    <mxGeometry x="4630" y="930.5" width="30.5" height="15" as="geometry"/>
                </mxCell>
                <mxCell id="31" value="" style="rounded=1;whiteSpace=wrap;html=1;strokeColor=#CCCCCC;fillColor=none;align=left;spacingLeft=10;fontColor=#000000;" vertex="1" parent="1">
                    <mxGeometry x="4600" y="1029" width="300" height="40" as="geometry"/>
                </mxCell>
                <mxCell id="32" value="その他（具体的に記入してください）" style="text;html=1;align=left;verticalAlign=middle;whiteSpace=wrap;rounded=0;fontSize=12;spacingLeft=0;spacing=2;fillColor=default;fontStyle=1" vertex="1" parent="1">
                    <mxGeometry x="4600" y="1010" width="210" height="15" as="geometry"/>
                </mxCell>
                <mxCell id="33" value="※必須" style="text;html=1;align=left;verticalAlign=middle;whiteSpace=wrap;rounded=0;fontSize=9;spacingLeft=0;spacing=2;fillColor=default;fontStyle=0;fontColor=#FF0000;" vertex="1" parent="1">
                    <mxGeometry x="4800" y="1010" width="30.5" height="15" as="geometry"/>
                </mxCell>
                <mxCell id="36" style="rounded=1;orthogonalLoop=1;jettySize=auto;html=1;exitX=0.5;exitY=0;exitDx=0;exitDy=0;endArrow=oval;endFill=1;shadow=1;strokeColor=#4D4D4D;strokeWidth=1;edgeStyle=orthogonalEdgeStyle;jumpStyle=none;jumpSize=6;startSize=6;endSize=8;curved=0;entryX=1;entryY=0.5;entryDx=0;entryDy=0;" edge="1" parent="1" target="V6eRgOUS85zWo4gEC153-41" source="26">
                    <mxGeometry relative="1" as="geometry">
                        <mxPoint x="4470" y="910" as="targetPoint"/>
                        <Array as="points">
                            <mxPoint x="4758" y="685"/>
                        </Array>
                        <mxPoint x="4682" y="1046" as="sourcePoint"/>
                    </mxGeometry>
                </mxCell>
            </root>
        </mxGraphModel>
    </diagram>
</mxfile>